<?xml version="1.0" encoding="UTF-8"?>
<svg id="Calque_2" data-name="Calque 2" xmlns="http://www.w3.org/2000/svg" viewBox="0 0 553.49 707.04">
  <defs>
    <style>
      .cls-1 {
        fill: #454b66;
      }

      .cls-2 {
        fill: #0d0f18;
      }

      .cls-3 {
        fill: #e8318a;
      }

      .cls-4 {
        fill: #7c2e39;
      }

      .cls-5 {
        fill: #796f91;
      }

      .cls-6 {
        fill: #a1595a;
      }

      .cls-7 {
        fill: #bab3cd;
      }

      .cls-8 {
        fill: #c3bfd9;
      }

      .cls-9 {
        fill: #f3e960;
      }

      .cls-10 {
        fill: #904650;
      }

      .cls-11 {
        fill: #bebbc6;
      }

      .cls-12 {
        fill: #323344;
      }

      .cls-13 {
        fill: #fbfcfc;
      }

      .cls-14 {
        fill: #a49ec1;
      }

      .cls-15 {
        fill: #e5e240;
      }

      .cls-16 {
        fill: #60c4e3;
      }

      .cls-17 {
        fill: #90444d;
      }

      .cls-18 {
        fill: #0c0f17;
      }

      .cls-19 {
        fill: #944849;
      }

      .cls-20 {
        fill: #c9c6cc;
      }

      .cls-21 {
        fill: #313445;
      }

      .cls-22 {
        fill: #212835;
      }

      .cls-23 {
        fill: #0d1019;
      }

      .cls-24 {
        fill: #c9cadf;
      }

      .cls-25 {
        fill: #333348;
      }

      .cls-26 {
        fill: #c7bcc2;
      }
    </style>
  </defs>
  <g id="fille">
    <g>
      <path class="cls-2" d="M550.48,590.68c-3.36-15.03-8.03-40.43-13.5-53.89-2.45-6.02-7.66-7.56-8.83-9.94-6.66-13.5-8.16-36.4-17.74-48.85-9.15-11.91-24.94-17.26-37.43-24.71,20.2-24.07-14.93-36.65-32.96-42.32l.37-2.23c22.45-28.34,43.78-60.41,54.49-95.28,3.42-11.13,5.3-17.67.91-29.01-4.99-12.9-13.46-26.88-19.22-39.94-6.24-14.16-11.75-28.67-17.09-43.19-3.26.88-1.48,5.9-.57,8.4,4.51,12.47,9.48,25.43,14.69,37.78,5.8,9.84,10.97,19.89,14.7,30.76,6.09,9.44,9.37,24.5,1.54,33.49.25-2.66,1.25-14.96-.1-16.41-3.68-3.98-4.88.63-4.79,4.08-.16,1.24-.41,2.48-.75,3.74-.66.44-1.38.98-1.56,1.78-5.5,24.16-14.46,39.65-27.65,60.47-15.03,23.74-31.89,47.46-53.52,65.78-2.12,2.24-4.48,4.74-5.63,7.5l-3.75,2.43c-14.96,14.79-29.58,29.9-43.85,45.36l-.17-9.04-1.65-.55c-.49-1.21-1.5-1.66-3.05-1.33l16.61-23.37,2.16-5.25c.87-.48,1.73-.99,2.52-1.58.78-.58,1.54-1.16,2.13-1.88,19.04-23.32,37.42-46.57,54.51-71.37,7.58-11,19.04-29.53,24.22-41.86,2.46-5.85,2.21-7.74.65-13.88-2.45-9.64-7.37-19.31-12.88-27.44.05-.7.08-1.4,0-2.09-.65-5.48-13.75-21.95-18.05-27.24-21.69-26.68-49.66-49.42-78.36-68.21-9.42-6.17-20.31-13.28-30.44-17.99-2.35-1.09-4.56-1.96-7.2-2.03-.48-.67-.99-1.33-1.57-1.9-.57-.57-1.14-1.11-1.8-1.44-33.65-17.16-72.55-28.76-110.44-28.9-19.63-.08-35.59,14.79-48.28,28.13-28.58,30.03-56.5,61.72-80.18,95.99l-1.1.24c-3.43,7.14-8.69,14-9.65,22.17-1.6,13.49,7.09,33.93,12.52,46.48,12.19,28.17,28.14,54.76,44.29,80.75-13.01,8.93-32.38,13.19-30.67,32.94.16,1.82,2.06,6.74,1.4,7.77-9.28,4.82-20.58,12.13-27.18,20.37-13.63,17-23.75,61.32-30.94,83.63-4.45,13.81-11.2,29.33-14.64,43.02-1.84,7.34-1.39,9,3.94,14.46,10.25,10.51,28.66,22.65,41.27,30.62,130.05,82.21,337.1,82.48,465.51-3.14,10.38-6.92,31.14-21.08,39.17-29.72,5.29-5.68,1.18-15.11-.39-22.13ZM215.87,264.53l-33.18-14.39c1.54-17.54,8.83-34.88,21.02-52.15l66.65,39.45-54.49,27.09ZM284.55,201.84l44.65-6.98,23.21,16.63c8.86,6.09,15.93,12.3,16.43,18.99l-18.04,36.18-65.09-16.52-1.16-48.3Z"/>
      <g>
        <path class="cls-2" d="M182.69,250.14l33.18,14.39,54.49-27.09-66.65-39.45c-12.18,17.28-19.48,34.61-21.02,52.15Z"/>
        <path class="cls-2" d="M368.85,230.47c-.5-6.68-7.57-12.9-16.43-18.99l-23.21-16.63-44.65,6.98,1.16,48.3,65.09,16.52,18.04-36.18Z"/>
      </g>
      <path class="cls-12" d="M295.39,549.78c-23.36,12.26-33.47,19.31-61.64,20.73-30.42,1.53-57.21-6.06-76.41-30.72-1.13,1.06-1.72,2.52-2.62,3.73-8.56,11.49-19.17,27.38-23.98,40.79-.64,1.77-3.87,12.6-3.66,13.38.48,1.69,15.21,6.1,17.9,6.86,21.69,6.1,43.63,7.39,66.07,8.48,4.38-.49,4.34-4.82,6.18-8.11,4.52-8.07,9.08-16.37,15.37-23.2,8.54-1.36,16.71-4.48,25.11-6.34,1.72-.38,4.91.09,7.27-.6,4.08-1.2,14.14-6.71,17.74-9.21,1.95-1.35,4.97-6.64,6.81-7.42,1.61-.68,3.53,0,4.93-1.06.37-.28,4.45-7.91,4.04-8.31-1.4-.34-2.07.48-3.1,1.01Z"/>
      <g>
        <path class="cls-19" d="M337.81,462.66c-5.76,3.01-23.76,3.66-28.06,7.13-2.31,1.87-8.13,11.33-10.88,14.58-12.28,14.5-27.38,26.19-42.34,37.78-4.46,8.91-7.28,19.03-11.82,27.87-2.21,4.3-4.91,10.62-10.24,10.78-3.96.12-17.53-3.99-20.22-6.81-3.03-3.17-1.47-6.21-.21-9.94,3.4-10.08,9.1-19.46,13.16-29.26-8.58-14.08-13.76-29.7-15.15-46.22l-19.89-5.2c-3.79,16.8-11.28,33.37-19.08,48.69-1.56,3.06-12.61,21.42-12.29,22.67,12.24,14.28,27.11,25.18,46.18,28.03,7.57,1.13,14.83.51,22.26,1.7l12.36-1.5c-.23.02-.41.03-.55.03.21-.02.41-.03.55-.03,17.26.21,41.36-11.97,55.41-21.72,1.8-1.25,4.57-2.65,6.02-4.09,3.29-3.27,12.05-27.22,15.06-33.62,6.29-13.39,13.62-26.32,20.54-39.39l-.79-1.5Z"/>
        <path class="cls-19" d="M231.03,471.32c2.44,1.98,6.36,6.37,8.31,8.91,1.09,1.42,1.36,2.12-.76,1.88-4.23-4.14-7.94-8.74-14.22-9.73-.85,1.13,3.29,15.6,4.14,17.94,1.73,4.77,7.83,17.18,12.32,19.13,6.66,2.89,9.11,1.83,14.77-1.71,14.22-8.87,26.53-22.63,37.64-34.99-9.44-.4-18.59,1.13-26.95,5.62l3.81-4.05c8.18-6.17,18.95-5.82,28.44-8.45,11.16-14.44,22.02-29.19,31.25-44.98.57-2.26-3.69-12.89-4.96-15.66-.82-1.79-2.32-6.51-4.64-5.94-1.43.36-7.33,4.14-9.07,5.22-12.06,7.53-23.95,18.48-36.37,25.04-3.84,2.03-6.47,3.82-11.13,3.18-2.63-.36-9.34-7.72-11.59-10.13-7.15-7.65-13.09-16.65-20.94-23.61,0,5.69-.05,11.88-.85,17.51-2.24,15.73-9.8,26.33-8.13,44.26.76,8.19,3.59,6.24,8.91,10.56Z"/>
        <path class="cls-19" d="M242.72,390.73c6.48,5.65,22,16.24,30.65,15.78,5.87-.31,24.27-13.64,29.21-18.03,3.29-2.92,4.41-3.49,3.39-8.21l-26.26,17.53c-1.89,1-4.14,2.64-6.32,2.73-11.63.5-24.87-13.02-34.44-18.77-2.08,4.46.61,6.21,3.77,8.96Z"/>
      </g>
      <g>
        <g>
          <path class="cls-17" d="M386.1,241.73c2.88,1.24,3.34,4.38,3.65,7.21,1.15,10.62-2.51,25.15-13.38,29.48-1.27-7.18,1.3-5.27,4.48-8.62,2.17-2.28,5.25-11.96,5.25-14.97v-13.1Z"/>
          <path class="cls-10" d="M376.37,270.18c2.84-8.11,3.49-16.93,4.11-25.45,3.4,6.9,3.79,17.85-1.56,23.9-.75.85-1.14,1.86-2.56,1.55Z"/>
        </g>
        <path class="cls-6" d="M368.12,227.5l-6.4,5.96-1.83,3.41,2.24.37-.75,2.24,2.99.37c-1.6,2.07-4.87,1.31-6.72,2.27-.44.23-7.52,8.14-4.15,7.09,1.14-.35,2.34-2.04,4.13-1.48.4,1.13-.68,2.3-.75,2.99-5.38.36-10.1,2.87-15.44,3.66-1.89.28-7.17.86-8.89.83-3.7-.06-7.96-1.87-12.06-1.71l10.93-1.28c-1.93-1.25-4.35-1.57-7.29-.96l-13.42-1.15-2.51,1.36c-1.61-1.3-3.43-1.71-5.44-1.22l-1.3-.28c-.23.26-2.16,1.61-2.24,1.5.65-9.76,6.71-19.75,14.97-24.71,12.48-7.5,31.49-10.28,45.67-8.24.12-.7.07-.94-.36-1.51-.56-.74-14.06-10.84-14.99-10.92-13.04,3.75-25.4,9.32-37.82,14.68-1.64.71-12.23,5.72-12.73,5.24,1.41-4.89,5-10.97,8.98-14.22,2.9-2.37,8.7-5.33,12.22-6.87,4.32-1.9,13.7-3.96,16.98-6.23,1.18-.82.45-1.18-.37-1.87-4.62-3.86-15.88-9.78-21.59-12.86-17.41-9.37-44.13-21.6-63.25-25.86-7.68-1.71-7.7-1.23-13.87,2.92-14.37,9.67-23.7,25.42-31.23,40.65-.03.82,10.78,2.91,12.33,3.44,4.77,1.65,17.22,8.43,20.64,11.93,1.22,1.25,6.92,10.02,5.98,11.23l-8.23-3.74c-4.39-3.11-10.64-5.22-15.76-7.08-2.52-.92-19.87-6.84-20.82-6.3-.3.18-3.12,5.92-3.1,6.27.1,1.77,8.08.98,9.99,1.21,16.23,2.02,16.37,5.78,28.18,13.38,4.45,5.93,9.02,13.31,8.98,20.97-.17.29-1.26-.77-1.49-.75l-2.82-1.24c-8.08,1.05-16.18,1.52-24.3,1.42l-2.83,1.32c4.54,1.72,10.18.29,14.97.76l-13.93,2.91c-6.96-1.17-15.37-.89-22.22-2.33-1.03-.22-2.5-.94-2.78-2.08l5.24.37c-2.11-1.94-5.05-2.97-6.36-5.62-2.68,7.33-3.99,12.47,1.53,18.68,2.8,3.15,21.13,14.84,24.74,15.03,2.6.13,30.45-19.62,35.75-22.6,6.87-3.87,19.15-10.61,26.91-9.42,10.33,1.58,31.61,17.58,41.98,23.16,2.64,1.42,13.08,6.93,15.2,7.15,1.71.18,10.32-2.84,12.46-3.71,8.2-3.34,18.23-9.5,23.02-17.05,6.52-10.27,5.98-20.06,2.99-31.45Z"/>
      </g>
      <path class="cls-24" d="M378.81,297.7c-.93-.99-.97-2.98-.94-4.3,1.72-.42,2.76,1.25,4.17,1.49,5.97,1,11.16-5.71,10.02-11.57-.37-1.9-3.09-3.59-1.84-5.64,8.8,5.31,4.29,19.54-4.83,21.39-1.98.4-5.14.15-6.57-1.37Z"/>
      <g>
        <path class="cls-20" d="M204.13,244.73c.7-.2.95.05.75.75l1.81-.34c4.94,4.2,12.34,5.87,18.21,2.67l1.7.67c1.15-.84,3.88-3.85,4.76-3.69l7.22,7.43c-9.81.86-19.82,2.34-29.95,1.5-4.89-.41-10.69-2.93-14.22-6.37-1.92-1.87-9.36-11.53-5.88-13.74.45-.29,9.74-.31,10.64,0,1.66.55,1.12,3.78,1.81,5.68.55,1.52,2.13,4.17,3.16,5.45Z"/>
        <path class="cls-20" d="M342.1,233.67c-.65.56-1.69,5.07-2.43,6.56l-1.75.09c-4.92,8-15.35,12.1-21.88,3.38-.62.53-1.22.64-1.83.28-2.05-2.15-.33-3.78-3.74-2.25-5.44,2.45-5.64,4.5-8.99,8.24-.73,2.54,4.35,1.38,6.74,1.5,7.63.39,15.57,1.38,23.21.75,9.1-.75,20.15-10.3,21.71-19.47-2.48.21-9.29-.6-11.05.92Z"/>
        <path class="cls-3" d="M339.67,240.23c-3.27,6.59-12.33,12.39-19.67,8.82-1.14-.56-4.72-3.95-5.79-5.07,3.16.51-.76-3.2,1.2-4.58,5.33-3.76,6.03.94,7.53,1.47,5.73,2.01,4.97-3.89,7.03-5.47.79-.61,6.28-1.79,7.27-1.75,3.13.12.56,5,2.44,6.59Z"/>
        <path class="cls-16" d="M223.29,239.51c-1.45.32-1.04,4.82-6.63,3.57-4.1-.92-2.67-4.14-3.71-5.66-.6-.88-3.89-1.42-5.07-1.67-.25-.05-.7-.91-1.8-.79-4.88.54-.44,6.96-1.94,9.77.22.27.5.5.75.75,5.32,5.5,15.53,7.54,21.72,3l2.08-4.23c.74-1.99-4.6-4.91-5.39-4.73Z"/>
      </g>
      <g>
        <path class="cls-14" d="M293.24,684.3v10.86c0,1.82,7.21-.31,8.99.37v-11.61c0-1.77-7.3.36-8.99.37Z"/>
        <path class="cls-14" d="M300.72,669.32l-8.23,1.5v11.23l8.99-.75c-.16-4.01.53-8.12-.77-11.99Z"/>
        <path class="cls-14" d="M112.73,559.55c-.39.3-3.28,9.04-2.96,9.42,1.76-.17,7.93,2.16,8.93,1.45.4-.29,2.63-9.04,2.24-9.61-.28-.4-7.88-1.51-8.21-1.26Z"/>
        <path class="cls-14" d="M300.41,655.14c1-1.39-.05-6.99.32-9.04-.31-.31-8.19.8-8.66,1.45-1,1.39.05,6.99-.32,9.04.31.31,8.19-.8,8.66-1.45Z"/>
        <path class="cls-14" d="M293.25,622.15c1.25-.6,7.94-.46,8.24-.75.35-.34.15-8.23.75-9.74-9.78-1.52-8.58,2.46-8.99,10.48Z"/>
        <path class="cls-14" d="M292.5,668.58l8.24-.75v-9.74c-.43-.42-8.01.63-8.67,1.47-.28.36,1.05,7.46.43,9.02Z"/>
        <path class="cls-14" d="M299.95,644.57l.79-9.7-8.24.76c-.09,9.25-3.54,10.07,7.45,8.95Z"/>
        <path class="cls-14" d="M301.48,623.65c-8.75-.35-9.87,1.05-8.99,9.73,10.84,1.16,7.17-1.63,8.99-9.73Z"/>
        <path class="cls-14" d="M138.6,464.89c-1.4-.59-1.09.89-1.32,1.64-.99,3.32-1.36,6.94-2.04,10.33,3.24-.48,11.62.59,9.34-4.46-.29-.64-5.54-7.32-5.98-7.51Z"/>
        <path class="cls-14" d="M115.77,548.01l-1.5,8.24c2.01-.48,6.65,1.61,8.14.65.36-.23,2.68-7.83,2.35-8.13l-8.99-.75Z"/>
        <path class="cls-14" d="M293.99,609.41c9.22.9,9.39-.2,9.73-8.98-1.49.3-7.38.4-8.12.85-.9.55-.87,6.62-1.61,8.13Z"/>
        <path class="cls-14" d="M299.95,581.3c-.78.51-2.52,7.6-2.21,7.89,1.98-.35,6.86.67,8.28-.33.54-.38,2.5-8.32,2.2-8.65-2.11,1.21-6.84.15-8.26,1.09Z"/>
        <path class="cls-14" d="M295.49,599.67c.34.29,8.59-.5,8.92-.81.31-.28.9-6.91,1.56-8.17-7.98-.22-9.69,1.06-10.48,8.98Z"/>
        <path class="cls-14" d="M299.99,578.71c8.27.81,9.66.06,10.48-8.23-8.78-.83-9.08-.02-10.48,8.23Z"/>
        <path class="cls-14" d="M332.19,491.84c8.12.99,9.61-5.43,12.73-11.22-8-.72-9.75,5.19-12.73,11.22Z"/>
        <path class="cls-14" d="M123.22,525.13c-.99.68-1.15,4.34-1.46,5.66-.09.38-1.26,1.04-.75,2.24,1.89-.37,8.27.87,8.98-.75.9-2.06.94-6.02,2.25-8.23-.41-.3-8.47.69-9.03,1.07Z"/>
        <path class="cls-14" d="M134.52,479.9c-.27.26-.84,6.32-1.53,7.45,7.91.76,10.22.12,10.47-8.23-1.6,1.53-8.37.23-8.95.78Z"/>
        <path class="cls-14" d="M124.77,519.94c.16,1.71,7.46.57,8.26.03.93-.63,1.6-6.38,2.2-7.9-1.44.28-7.47.42-8.13.84-.31.2-2.36,6.65-2.33,7.02Z"/>
        <path class="cls-14" d="M305.98,558.49c1.62-1.52,7.42-.18,8.15-.82.32-.28,1.76-6.99,2.32-8.16-7.45.81-10.44.29-10.47,8.98Z"/>
        <path class="cls-14" d="M302.98,568.22c1.94-.34,6.93.66,8.28-.32.74-.53,1.45-6.43,2.19-7.91-7.44.88-9.52-.22-10.48,8.23Z"/>
        <path class="cls-14" d="M321.65,528.83c-.94.02-6.29.4-6.57.58-.51.32-2.46,6.25-3.11,7.36,2.18-.34,6.49.7,8.24-.36,1.1-.66,4.22-7.65,1.44-7.58Z"/>
        <path class="cls-14" d="M132.34,491.19c-.39.26-1.98,6.95-1.59,7.39,7.04-1.27,10.05.81,9.73-8.23-1.45.52-7.62.49-8.14.84Z"/>
        <path class="cls-14" d="M319.57,518.18c-.37.23-3.44,7.77-3.11,8.11,7.19-1.08,9.76.38,10.48-8.23-1.69.35-6.27-.57-7.37.12Z"/>
        <path class="cls-14" d="M320.95,515.06c1.76-.87,7.25-.35,8.11-.87.37-.22,2.77-6.88,3.11-8.11-2.03,1.06-6.01.22-7.5,1.11-.6.35-4.1,7.52-3.73,7.87Z"/>
        <path class="cls-14" d="M127.75,509.06c.37.27,8.6-.5,8.93-.8.28-.26.91-6.29,1.55-7.42-2.19,1.08-6.91.26-8.53,1.42-.92.65-.82,5.45-1.95,6.81Z"/>
        <path class="cls-14" d="M326.97,501.99c-.6,2.06,6.19,1.19,7.27.14.6-.58,3.66-7.42,3.17-8.05-6.26,1.36-8.49,1.19-10.45,7.9Z"/>
        <path class="cls-14" d="M308.97,547.26c1.24.1,8.6-.5,8.93-.8.25-.23.88-5.62,1.55-6.68-6.6.31-9.64.1-10.48,7.48Z"/>
        <path class="cls-14" d="M96.71,615.69c-.14.19-.24.4-.33.64-.02.06-.07.1-.09.17l-.75-1.85c-1.05,4.42-3.15,9.4-3.71,13.9-.23,1.86.99.84,2.21,1.07,2.51.47,4.96,1.13,7.49,1.5.55-4.9,1.94-10.82,3-15.73-2.07-.85-6.37-1.74-7.83.29Z"/>
        <path class="cls-14" d="M91.8,631.13c-.79,1.17-2.69,12.96-2.25,13.48.72.11,1.6-.13,2.25,0,2.47.51,4.94.85,7.12,2.24l1.11-2.99c.23-2.44.61-5.1.75-7.49.05-.92.39-3.26-.43-3.83-1.28-.9-6.62-.98-8.55-1.41Z"/>
        <path class="cls-14" d="M101.51,593.29c-.91.61-3.49,10.36-2.96,10.88,1.59-.63,8.55.82,9.02.45.69-.55,3.51-10.38,2.96-10.93-2.43.1-6.95-1.78-9.02-.41Z"/>
        <path class="cls-14" d="M106.78,577.21c-1.59,4.45-3.28,8.9-4.5,13.47l9.73,1.51c.32-3.25,1.32-6.62,2.25-9.74-1.32-3.27-8.28-.79-7.49-5.24Z"/>
        <path class="cls-14" d="M97.12,605.75c-.53.44-1.23,7.47-1.57,8.91.42-.18.68-.2.88-.17,1.4-2.42,7.99-2.19,8.11.92.3-1.41,2.8-8.49,2.25-8.98-2.02.58-8.46-1.69-9.66-.67Z"/>
        <path class="cls-14" d="M108.3,571.98c-.43,1.63-.97,3.68-1.52,5.24l1.67,1.16c4.28.33,6.22,1.69,5.82,4.08,2.62-8.78,6.44-8.29-5.97-10.48Z"/>
        <path class="cls-14" d="M99.39,647.24s-.11-.08-.22-.13l-.07.27c-.23.1-2.75-.69-4.77-1.47-2.14-.35-4.26-.47-4.76.19-.51.87-1.81,9.24-1.43,9.67,3.68.46,6.56,3.44,10.41,3.06-.41-3.1.39-5.99.75-8.99.1-.99.14-1.5.07-1.78l.03-.83Z"/>
        <path class="cls-14" d="M120.26,536.03c-.4.13-3.07,7.43-2.99,7.84.22,1.15,7.92,1.82,8.28,1.57.86-.58,2.38-7.05,2.95-8.67.05-.14,1.16-.14.75-1.49-2.83.37-6.7-.9-8.98.74Z"/>
      </g>
      <g>
        <path class="cls-16" d="M161.44,227.5c2.52-10.4,5.25-20.67,9.61-30.46,7.01-15.74,17.08-30.3,26.27-44.7-.56-3.48-13.27-2.3-16.08.22-1.72,1.54-4.99,9.36-4.8,11.56.17,1.97,2.16,3.92.8,5.94-.93,1.38-7.84,3.91-9.1,5.34-5.07,5.8-8.99,22.45-11.49,29.85-1.09,3.22-5.79,11.65-5.65,14.41.1,2.2,9.96,8.28,10.44,7.83Z"/>
        <path class="cls-16" d="M224.35,152.62c-2.96-.14-6.49-1.57-9.36-1.56-7.82.02-19.13,14.72-22.84,21.03-1.47,2.49-8.6,15.24-7.4,17.13.37.58,7.1,2.19,7.4,4.58-2.22.49-7.03-3.15-8.51-2.88-1.9.35-3.33,6.91-4.89,8.52.15,1.95,8.89,2.04,9.65,4.85-1.96.1-9.21-2.03-10.34-1.35-.15.09-1.69,2.86-1.62,3.18.17.78,8.02,5.26,6.72,6.42-1.41,1.26-6.38-4.46-7.87-4.35-2.34.17-6.96,20.41-6.28,22.57.41,1.31,4.89,3.19,6.29,4.25,1.21.92,1.93,1.77-.37,1.5-.3-.28-4.81-2.58-5.21-2.68-1.92-.46-1.86,3.04-1.16,4.19.84,1.38,5.78,1.99,6.37,4.47-2.16.76-6.56-2.77-7.88-.76-.58.89-1.52,8.62-1.11,9.01.19.18,5.09-.61,4.49,1.86-.29,1.21-4.8,1.77-5.79,2.82-1.35,1.43-1.29,4.8-1.69,6.55-.46,1.99-3.53,3.77,1.29,5.08.71.19,5.75-.2,3.95,1.65-2.02,2.07-5.87-1.43-7.65,1.72-.57,1.01-3.74,12.15-3.63,12.81.21,1.28,5.94.54,5.29,3.45-9.15.56-10.14,13.18-11.97,20.22,2.24-1.89,11.25-5.44,12.33-7.51,1.2-2.3.82-6.59,1.33-9.15,1.75-8.7,4.31-17.57,6.55-26.03,1.71-6.44,5.48-14.26,5.99-20.97,3.47-10.22,6.04-20.79,9.92-30.89,2.5-6.51,7.82-14.99,9.55-20.78,5.36-7.45,9.72-15.95,15.4-23.17,1.4-1.78,14.16-14.54,13.05-15.77Z"/>
        <path class="cls-16" d="M156.13,246.15c.26-.22,1.13-5.59,1.58-6.66l-9.73-2.99c2.24-1.19,9.22,2.28,10.42,1.43.37-.26,2.33-8.25,1.98-8.93-.42-.82-9.53-7.21-10.14-6.74l-6.75,23.21c2.33-.84,11.43,1.72,12.65.68Z"/>
        <path class="cls-16" d="M103.3,258.84c4.72-2.37,8.76-5.95,12.47-9.62,6.45-6.39,10.49-13.38,14.23-21.72.84-1.88,6.13-15.21,5.93-16.04-.51-2.05-6.52-1.58-8.17-2.68.05-.71.05-1.53,0-2.25,2.05-1.56,7.82,3.85,8.97,2.99l5.25-14.97c-3.54-.13-11.65,1.94-12.65,5.76-.58,2.22,2.36,2.55,2.16,4.71-1.91.35-3.24-1.28-4.49,0-1.16,1.19-2.26,6.32-3,8.24-.44,1.14-1.03,2.52-1.5,3.74-5.72,14.89-12.13,29.44-21.71,42.31.54,1.08,1.83-.15,2.5-.49Z"/>
        <path class="cls-16" d="M127.74,256.71c-10.44,7.5-10.64,22.3-14.22,33.69l10.1-3.75,4.12-29.95Z"/>
        <path class="cls-16" d="M182.41,446.91l3-1.5-1.46-9.41c-.91-.67-7.94,1.36-8.2,2.36l7.42,27.28c1.27-.39,2.12-3.84,2.24-4.87.48-4.01,0-9.62,0-13.85,0-.15-2.49.12-3,0Z"/>
        <path class="cls-16" d="M178.68,411.36l-1.39-4.63c-3.47-4.64-4.53-10.78-10.55-12.66l-4.54-10.8,6.34,27.72c1.03,1.38,8.15.79,10.14.37Z"/>
        <path class="cls-16" d="M138.98,315.87c.06-.67,1.17-1.85.75-2.99h-5.98c1.29-.57,4.34-1.14,5.24-1.88,1.26-1.03.51-2.34.75-3.37.29-1.23,2.62-9.4,2.25-9.73-.18-.16-2.65-.38-4.5-1.5-1.06-.64-3.52-2.74-4.49-3.74,1.47.39,3.98.36,5.24.74,3.15.95,3.33,4.48,4.76-.86,1.18-4.42,2.4-7.75-2.51-9.63.8-2.16,4.23,1,4.49.75,1.1-4.88,1.62-5.86-2.24-8.99-1.67-1.36-4.13-1.88-5.24-3.74,1.76-.08,3.6.1,5.24.74.24.19.47.32.69.42,1.2.83,3.23,2.57,3.43,2.56,2.53-5.83,5.31-8.5-1.87-10.47-1.51-.42-2.81-1.1-4.5-.75.07-.46-.12-1.23,0-1.49l10.48.75c.5-4.44,3.19-8.51,3.03-13.11-.06-1.73-.01-.86-1.16-1.1-3.53-.75-6.7-.03-10.08-.78-.7,2.51-1.51,5-2.26,7.49-8.91,29.33-12.46,49.94-11.98,80.88.13,4.81-.12,9.55-.75,14.23-.77.97-1.04.51-1.63,2.48-.41,1.38-2.18,12.9-2.04,13.57.29,1.4,3.22.89,2.92,1.54-.5,1.19-2.81.71-3.04,1.59-.48,1.85-.72,7.82-.7,10.02,0,1.1-.35,2.95.37,3.74,1.06-1.56,2.53-3.63,3.37-5.24,6.59-12.56,8.79-26.52,10.48-40.44.93-7.64.81-14.45,1.5-21.72Z"/>
        <path class="cls-16" d="M110.53,305.38c1.56-2.39,10.45-4.07,11.06-4.66.52-.51,2.07-11.37,1.66-11.81-8.96,1.67-13.34,7.31-12.72,16.47Z"/>
        <path class="cls-16" d="M181.67,422.2c.48-.46-1.1-7.82-1.61-8.14-1.16-.74-9.04-.46-11.13-1.59l3,11.98c3.21-.93,6.25-2.58,9.73-2.25Z"/>
        <path class="cls-16" d="M144.22,410.22c-.24.11-1.8,1.35-1.89,1.51-.59,1.03,2.78,9.02,3.6,10.64.49.97,3.97,7.05,4.29,7.32.14.12,1.47.28,1.5-.38.09-2.58-1.66-10.02-2.26-13.09-.76-3.85.08-8.34-5.24-5.99Z"/>
        <path class="cls-16" d="M182.34,425.27c-.4-.34-7.9-.37-8.58.62-1.63,2.35,1.1,7.16,1.17,9.79,1.32-.25,8.69-1.91,8.96-2.28.24-.34-1.24-7.86-1.55-8.13Z"/>
        <path class="cls-16" d="M108.28,317.37c1.21.22,2.13.39,2.86.59-.89-.04-1.88.22-2.86.91-.68,4.43-.77,9.06-1.5,13.48-1.38,8.35-3.57,16.61-5.98,24.71,3.74-3.64,7.01-8.62,9.74-13.09,1.54-2.51,4.25-6.75,5.23-9.38.68-1.82,1.28-4.04,1.5-5.99l2.99-17.22c-4.63.53-11.19.55-11.98,5.99ZM113.97,321.06c.12.44.23.95.36,1.54-.73.23-1.5.64-2.36,1.39,1.27-.98,1.86-2.01,2-2.93Z"/>
        <path class="cls-16" d="M146.47,398.24c-1.57-.23-7.75.12-8.06,1.83-.08.44,2.18,8.31,2.44,8.67.71,1,1.81.53,2.63.72,6.77-1.82,3.65-5.91,3-11.23Z"/>
        <path class="cls-16" d="M137.48,369.79c1.5-.75,7.05,1.64,7.44-.42.38-2.04-2.18-12.1-3.32-14.56-1.5,4.94-4.7,9.63-4.12,14.98Z"/>
        <path class="cls-16" d="M110.52,306.5c-1.43,1.17-.54,3.99-.74,5.62l10.53-2.57,1.45-7.16c-.4-.44-10.62,3.61-11.23,4.11Z"/>
        <path class="cls-16" d="M144.22,396.74c.5-.03,1,.02,1.5,0-.27-2.04.24-10.91-.79-11.94-.26-.26-2.19.02-2.95-.04-.36-.64-.61-.67-.75,0-.5,0-1,0-1.5,0l.23-.75c5.21.81,6.88-1.69,5.01-7.49-.15-.65.2-1.62-.13-2.46-1.1-2.79-6.4-1.94-8.86-2.03.03,3.37-.05,6.76,0,10.14.02,1.1.71,2.08.75,2.59,0,.1-.86.84-.78,1.81.12,1.38,1.5,9.65,1.88,10.19.97,1.43,4.48.07,6.39-.02Z"/>
      </g>
      <g>
        <path class="cls-13" d="M230.43,515.91c.9-.56,3.59.08,3.64,1.02.06,1.08-3.61,5.09-1.42,8.17.97,1.37,6.81,3,8.39,2.58,2.69-.71,4.73-9.2,8.74-4.67l-14.68,31.67c-2.8-.49-17.68-5.2-18.13-7.12,2.01-3.75,12-30.75,13.47-31.65Z"/>
        <path class="cls-8" d="M223.6,424.45c-7.43,25.48-6.16,53.97,6.89,77.35.98,1.76,5.83,7.88,5.83,8.39,0,.13-1.57,1.73-1.97,1.81-3.22.6-10.15-14.76-11.31-17.72-6.54-16.71-8.83-38.04-5.94-55.74.68-4.2,1.73-12.89,6.5-14.09Z"/>
        <path class="cls-7" d="M248.32,517.3c-.65-.86.9-2.07,1.54-2.57,2.68-2.12,7.48-4.25,10.68-6.55,10.52-7.57,20.51-17.33,29.35-26.81,5.59-6,9.64-13.6,16.83-17.98.47.53-5.32,8.86-6.12,9.97-9.29,12.8-31.53,34.82-45.31,42.3-1.42.77-5.65,3.37-6.96,1.64Z"/>
        <path class="cls-11" d="M244.57,514.32c-2.6,4.48-3.15,11.38-9.73,8.22l3-9.73,6.73,1.51Z"/>
        <path class="cls-26" d="M243.83,530.04l-.35,3.03-9.45,19.39-13.37-4.51c.46-2.43,7.41-18.72,8.31-19.28,2.07-1.29,11.86,1.79,14.86,1.37Z"/>
      </g>
      <path class="cls-16" d="M464.73,568.23c-.64-5-.4-9.93.71-14.78,12.48-17.25,34.24-14.9,39.37,6.75,5.17-4.79,10.22-9.62,15.14-14.52l3.95.08c2.88.88,5.51.97,6.72,4.13,1.79,4.68-.02,7.38-2.97,10.84l-.37,2.68-8.63,8.53c5.01,1.8,10.95,4.94,13.49,9.76,1.69,1.35,3.99,3.22,4.87,5.24.62,1.41,3.23,11.03,3.35,12.45.1,1.25.1,1.91-.68,2.96-.28.38-6.98,5.83-7.45,5.93-2.2.5-6.61-2.52-9.82-.74-.42.23-5.87,7.05-5.97,7.51-.53,2.36,6.43,1.36.33,7.05-4.46,4.16-31.07,21.69-35.98,22.43-1.9.29-4.32.11-6.3.07-4.43,1.12-3.89-1.13-2.97-4.82,8.58-9.31,16.89-18.77,24.94-28.4-3.27-3.04-6.55-6.16-9.82-9.36l-15.73,14.8c-1.52,1.1-2.41,1.16-3.15-.68-.5-5.9-.54-12.04-.75-17.97l1.23-3.35,12.1-12.1c-5.33-.29-12.74-.69-14.08-7.02-.22-2.38-1.32-5.51-1.5-7.49Z"/>
      <g>
        <path class="cls-21" d="M416.8,537.53c2.67-1.18,7.23-13.15,10.11-15.72l-4.12,11.98c-1.91,2.47-4.05,9.74-5.26,13.09-6.55,18.22-10.87,36.51-14.05,55.61-.24,1.45.02.9,1.33.95.12-2.55.92-5.25,1.72-7.65,7.51-22.51,16.05-46.47,27.49-67.24,4.48-8.14,10.31-17.97,15.73-25.46,7.28-10.07,15.85-19.59,26.96-25.46l11.23-3.73c-3.79-1.18-6.65-3.54-10.51-4.85-5.4-1.82-25.07-5.48-30.31-4.91-4.43.48-6.36,3.63-9.34,6.01-16.18,12.88-30.8,29.17-42.17,46.57-3.16,18.16-4.73,36.57-7.34,54.81-2.35,16.43-6.68,34.75-8.05,51.11-.42,5.05.11,10.2-.09,15.25,1.33.29,1.48-.39,2.12-1.24,1.7-2.23,5.43-13.73,6.68-17.28,5.37-15.27,8.99-31.15,14.2-46.46,4.08-11.98,9.88-23.38,13.68-35.37Z"/>
        <path class="cls-21" d="M62.6,574.96l-10.48-43.43c1.99-.41,1.29.51,1.86,1.47,1.95,3.31,11.36,25.15,12.75,25.48,1.17.27,1.94-1.26,2.42-2.06,2.62-4.38,4.12-9.63,5.43-14.41,4.26-15.53,2.92-30.93,3.71-46.83.13-2.64.46-8.89.94-11.04.99-4.42,12.5-10.6,16.31-13.28.22-1.04.15-.95-.47-1.54-.69-.65-9.23-6.37-9.79-6.54-1.88-.56-3.68.15-5.45.61-7.35,1.89-20.3,11.29-25.09,17.21-10.32,12.74-15.58,39.54-20.59,55.42-5.56,17.63-11.79,35.3-17.01,53.01-1.27,4.3-4.59,13.47-2.82,17.37.32.71,2.55,2.63,3.34,3.39,6.44,6.14,15.12,11.23,22.11,16.82.81-.47.84-1.13,1.12-1.86,2.85-7.54,6.34-28.67,6.02-36.72-.48-12.13-6.52-20.35-8.26-31.79.46-.55,6.06,4.25,6.75,4.85,3.78,3.33,9.69,10.24,13.51,12.7,1.19.76,2.21,1.38,3.7,1.16Z"/>
        <path class="cls-21" d="M395.09,488.11c-12.72,4.83-26.33,9.24-38.7,14.83-5.15,2.33-16.48,7.55-19.71,11.75-4.08,5.3-11.07,27.51-13.1,34.82-1.29,4.63-4.5,15.75-4.83,19.95-.11,1.43.31,2.68.71,4.01-4.32,5.74-6.42,22.24-7.49,29.95-1.76,12.62-2.67,26.36-3.03,39.28-.47,17.09,0,34.32,1.56,51.3,6.18-.52,49.49-6.21,51.3-8.93l1.52-42.02c-1.37-1.9-22.22-2.59-24.41-4.8-1.22-1.22-.86-6.92-.65-8.93,2.23-21.17,8.32-45.61,11.9-67.1,1.58-9.46,2.96-18.99,4.49-28.46,1.05-6.48,1.53-17.15,3.18-22.66.34-1.14.81-2,1.64-2.85.74-.76,17.68-9.41,18.82-9.65,2.21-.46-.06,2.7,2.18,2.19,2.15-.49,12.6-10.36,14.62-12.71Z"/>
        <path class="cls-21" d="M392.1,679.8c4.47-.82,8.85-2.16,13.11-3.73,11.58-4.27,18.28-10.36,27.33-18.35,6.72-5.93,12.98-12.57,19.53-18.71l-1.57-27.35-58.4,68.14Z"/>
        <path class="cls-21" d="M164.72,443.98c-1.69-.51-12.06,5.37-13.49,6.95-2.33,2.57-1.12,4.53-2.51,7.22-12.83-22.92-23.78-48.02-37.44-70.39,4.28,1.32,6.88,6.74,9.28,10.56,2.81,4.46,5.95,10.02,8.55,14.66,6.7,11.94,12.24,24.6,18.84,36.6,1.75,1.15,6.67-4.73,8.48-5.82,2-1.2,7.93-2.31,8-4.66.04-1.41-5.5-14.48-6.59-16.66-.55-1.09-4.34-8.09-4.74-8.35-1.98-1.29-3.1.53-3.63,2.12l-1.2,1.6c4.56,17.81-2.57.96-4.48-5.38,1-.56,1.12-1.14.44-2.21-.29-.15-.57-.71-.75-.75-2.63-3.99-6.6-11.08,2.03-9.8l.96-1.43c-.05-.43-.69-1.06-.75-1.5-.68-1.35-1.27-1.43-1.5,0-1.13-1.19-2.84-1.47-5.12-.84-.53-4.02-1.32-7.74-2.37-11.15,1.62-3.06,1.24-9.1-.75-12.73l-.76,10.48-2.21-5.68-6.02,1.19c-1.56-.5-2.17.3-2.61,1.68l-1.14-.18-1.49,2.99c.65-2.5-1.65-3.89-2.1-5.76-1-4.12-1.47-13.23-1.68-17.79-.31-6.95.96-16.05.09-22.54-.22-1.65-1.39-.92-2.31-1.82l-1.67.12c-2.77,5.53-6.19,10.78-9.8,15.96,2.3-6.32,3.12-12.43,2.48-18.33-2.32,1.32-1.11.82-1.15-.75-.22-8.72-2.85-19.08-3.33-28.09-.5-9.36.47-18.77.4-28.11-.91-1.41-4.33.02-5.63.43-7.85,2.52-16.56,6.52-23.45,10.99-.66.43-2.3,2.23-2.77.6.11-.28,0-1.05,0-1.5,2.66-2.93,4.14-7.02,5.99-10.48,4.72-8.85,9.69-17.63,13.47-26.96-5.73,5.79-10.85,12.19-15.72,18.72-2.74,3.67-5.03,7.39-7.49,11.23-8.39,13.08-11.29,13.44-6.24,29.16.05.23.12.48.25.79,12.44,37.99,40.94,83.22,62.15,117.57,8.44,13.67,16.74,27.43,26.21,40.44.12,2.08.86,3.97.75,6.74-.3,7.56-2.74,15.99-4.71,23.38-7.26,27.24-17.45,53.8-24.45,81.15l.69,1.8c6.39-15.24,15.66-30.01,20.98-45.67,1.45-.86,2.32-2.57,3.12-3.99,8.25-14.6,26.7-48.03,27.54-63.88.25-4.79-2.4-6.76-3.84-10.25-.76-1.85-4.02-11.44-4.83-11.68Z"/>
        <path class="cls-21" d="M433.28,288.91c3.17,5.92,6.99,14.76,9.19,21.14,1.44,4.18,4.31,11.39,3.19,15.57-1.62,6.09-11.58,22.64-15.25,28.94-20.17,34.58-43.92,61.44-68.27,92.35-7.36,9.34-14.07,19.15-20.96,28.84-.7,1.74,4.27,1.27,5.23,1.11,1.07,3.9-1,8.03,1.12,11.98,16.49-16.34,32.09-33.57,48.3-50.17,8.09-8.28,17.98-16.34,25.46-24.34,6.96-7.45,15.48-20.01,21.58-28.59,14.39-20.22,39.98-57.93,41.32-82.61,1.36-.63.51-2.71.75-3.74.65-2.79,3.24-6.85,3.78-1.91.29,2.66.09,11.27-.35,13.94-.44,2.64-2.82,3.47-3.28,4.97-.87,2.83.64,4.74.61,6.54,0,.25-2.08.53-2.28,3.81-.44,7.27,4.12,1.92,5.08-.93,1.36-4.03,1.6-9.61,2.58-13.14.38-1.36,2.96-3.05,3.41-4.83,1.48-5.8,2.06-17.41-1.01-22.59-4.72-7.96-6.61-15.68-10.47-23.98-2.39-5.14-6.58-10.31-8.71-16-4.05-10.8-8.6-21.51-12.59-32.34-1.15-3.13-3.56-8.5-2.23-11.62-12.81-34.88-23.19-73.22-37.84-107.06-13.87-32.04-51.94-57.5-81.97-73.41-48.03-25.45-73.7-27.97-124.07-5.37-17.2,7.72-30.99,16.65-45.92,27.84-21.22,15.89-36.82,28.81-47.53,53.94-16.22,38.08-22.7,80.28-45.8,115.29-.7.95.41,1.31.48,1.51.52,1.68-.09,3.97-.75,5.99-4.35,13.38-13.93,30.35-20.22,43.43.89.77.47,2.35,1.82.7,9.45-11.51,17.92-24.82,27.4-36.25,14.26-17.18,31.52-36.44,46.77-52.83,14.84-15.95,31.3-34.58,54.69-34.49,39.54.14,77.86,13.25,112.69,30.76,48.25,24.26,108.25,69.42,134.04,117.57ZM370.79,58.97c13.16,8.74,24.31,19.25,33.45,31.52l2.08.72-.74,2.62c-1.63-1.78-14.8-8.6-15.73-7.86,3.17,4.13,4.94,12.92,7.45,16.68.61.91,2.18,1.28,3.03,2.03l.31,1.73c6.3,1.86,8.41,5.07,6.34,9.64l.84.61c-4.17,1.51-7.63,9.46-1.5,11.23,4.65,3.72,11.31,6.72,15.73,10.48l-.17,1.89c4.41,6.14,7.42,13.13,9,20.97.51,1.13,1.17,2.48,2.4,2.61-.08,1.21-1.23-.05-3.44-3.75-12.73-11.53-25.23-23.29-37.5-35.29l-4-2.15c-.23-3.08-1.29-1.34-2.25.75-2.46-.64-5.07,10.35-4.69,11.65,8.76,8.99,17.74,17.81,26.96,26.45.58,1.66-9.07,20.36-10.22,20.39l-25.02-37.01c-.75-.9-1.57-1.05-2.7-.76-1.92.49-12.4,18.68-13.54,21.97l.05-2.01c-3.56-3.74-7.19-7.43-10.86-11.05l-1.92.33c1.61-.73,3.04-1.73,4.28-2.99,9.4-12.71,18.65-25.57,27.64-38.56.47-.68.78-1.48,1.08-2.29.3-.83.51-1.7.7-2.58.72-5.18-7.53-9.71-11.89-12.01-10.36-4.51-20.97-8-31.84-10.46,6.61-3,12.97-6.29,19.09-9.89,6.76,4.09,13.3,8.48,19.62,13.17,1.81.7,2.81.03,2.02-1.78l.67-1.9c-2.81-8.26-7.52-14.48-13.29-20.68,1.79-2.52,4.64-4.41,7.64-5.15l.48-1.47.41,2.21Z"/>
        <path class="cls-21" d="M459.83,524.77c-6.5.61-8.48,3.8-8.65,10.14l4.63,51.96c.64.54,6.49-.32,6.71-1.13-.47-13.48-1.8-26.86-2.3-40.34-.05-1.46-.77-2.92-.8-4.5-.12-6.36,3.46-8.73,9.42-9.37,5.97-.64,16.32-.36,22.5-.03,12.89.7,25.75,3.73,38.53,5.27,1.94-1.91-6.51-5.99-8.07-6.53-14.07-4.85-47.1-6.87-61.98-5.48Z"/>
        <path class="cls-21" d="M475.21,483.61c-17.95,9.33-35,43.97-43.43,62.15-.33.71-6.97,11.41-3.37,11.22.67-.04,1.55-2.26,2.12-2.72,3.58-2.91,4.24-3.92,7.24-7,.25-.25.5-.5.75-.75,1.9-.03,2.6-.6,2.21,1.83-.47,2.97-7.67,11.1-10.07,13.91-3.81,4.46-10.52,8.2-10.86,14.96,7.59-1.14,13.14-6.95,19.1-11.22,1.85-.31,1.16,1.3.77,2.27-3.12,7.71-16.07,22.75-21.23,31.19-7.87,12.87-16.35,29.93-20.82,44.33-.36,1.16-.8,1.83.83,1.58,16.24-17.93,33.15-35.24,50.17-52.43.31-17.23-2.59-34.34-2.61-51.66,0-6.76-1.98-17.43,6.54-19.29,8.85-1.94,21.76-1.96,30.9-1.67,7.07.22,15.42.78,22.47,1.5,2.46.25,5.42,1.13,7.91,1.46,1.16.16,1.23.15,1.07-1.07-.7-5.2-4.02-13.66-5.78-18.94-1.48-4.43-6.4-19.86-9.24-22.23-1-.83-1.83-.85-2.95-1.15-5.61-1.53-16.35.95-21.72,3.74Z"/>
        <path class="cls-21" d="M495.02,608.72c-1.6-1.85-6.33-8.66-8.84-8.18-1.01.2-12.79,12.31-15.06,14.14-1.11.9-1.69,1.76-3.4,1.47.13,1.54,1.33,2.76,1.46,4.16.76,8.31.68,16.74,1.54,25.05l3.74-.75c-2.91-.06-3.81.69-2.61-2.98l25.11-28.05c2.31-3.77-.44-3.11-1.95-4.85Z"/>
        <path class="cls-21" d="M122.3,502.48c.26-1.13-.36-2.1-.55-3.15-.17-.95.16-1.68-.4-2.94-.67-1.51-10.62-14.24-11.59-14.68-2.88-1.31-5.45,4.66-6.73,7.14-12.34,23.96-22.17,52.98-30.7,78.63-3.14,9.44-6.19,18.9-8.99,28.46-3.37,11.49-7.43,23.34-9.37,35.18-.38,2.3-1.55,4.2.38,6.01,6.43,3.52,12.29,8.17,18.83,11.49,1.54.78,5.64,3.54,7,2.02,3.46-11.47,6.77-22.98,10.65-34.31,6.99-20.44,13.52-36.72,18.21-58.24.27-1.24.58-2.06-.04-3.33.29-.44.92-1.99,1.5-3,7.34-12.7,7.14-34.74,11.78-49.27Z"/>
        <path class="cls-21" d="M114.27,470.88c.2.86,1.9,2.31,2.64,2.98.81.73,8.07,6.58,8.59,6.01l5.79-22.23c0-1.6-9.26-14.03-11.05-16.31-1.49-1.91-3.62-2.87-5.22-4.89-1.85-2.34-4.31-9.3-5.61-10.49-.77-.72-1.13-.82-2.19-.75-1.54.09-20.64,9.95-21.74,11.29-1.61,1.96-.83,7.34-.08,9.73,2.54,8.15,22.99,17.76,28.87,24.68Z"/>
        <path class="cls-21" d="M460.62,432.64c-2.44.17-9.24,3.45-11.88,4.65-22.99,10.43-48.2,27.61-68.62,42.58-5.22,3.82-10.46,7.7-14.97,12.36-.12.57.72.48,1.1.36,10.42-3.24,24.96-11.2,35.58-15.71,13.1-5.56,26.48-11.28,39.71-16.83,5.9-2.47,25.1-8.11,27.72-12.71,2.1-3.68-.03-7.88-2.28-10.9-1.94-2.6-2.7-4.05-6.36-3.79Z"/>
        <path class="cls-21" d="M511.16,580.97c5.02-.57,3.7-9.05,8.95-7.11,1.45.53,10.42,6.57,12.01,7.85-2.22-6.88-.94-14.67-4.49-20.97-6.65,7.79-16.85,15.92-24.36,23.19-1.33,1.29-9.45,9.02-9.29,10.02l12.27,10.96c1.97-.48,8.49-15.95,8.47-18.51-.02-2.14-3.96-3.21-3.58-5.44Z"/>
        <path class="cls-21" d="M503.68,562.23c1.13.31,1.24-.3,1.87-.74,1.43-.99,5.32-4.58,6.77-5.96,3.37-3.2,6.8-9.76,11.56-9.77-12.23-3.74-32.84-4.47-45.27-4.46-5.13,0-10.27-.07-15.39-.04l1.28,22.95c-.16-6.51,1.28-10.6,7.36-15.44,15.43-12.31,27.62-3.54,31.82,13.46Z"/>
        <path class="cls-21" d="M464.51,564.22c.03,1.25.1,2.56.22,4.01l-.22-4.01Z"/>
        <path class="cls-21" d="M84.47,484.14l-.18,11.11,1.54,19.06,20.15-35.68c.3-1.72-5.87-5.66-7.17-6.95-4.72,4.19-10.19,7.71-14.34,12.45Z"/>
        <path class="cls-21" d="M466.23,575.72c.71,7.83.48,14.69.75,22.47l17.22-17.22c-7.24.33-12.93.57-17.97-5.25Z"/>
        <path class="cls-21" d="M464.66,617.91c.65-1.94-1.93-13.66-1.43-16.74-1.46.98-6.24,1.05-6.63,2.68,1.05,5.54,1.66,11.14,1.4,16.79,1.58-.43,6.19-1.33,6.66-2.73Z"/>
        <path class="cls-21" d="M459.44,636.08l1.55,17.52c.6.58,5.56-1.5,5.91-2.74l-1.43-17.48-6.03,2.7Z"/>
        <path class="cls-21" d="M463.16,599.61c.98-1.12-.75-9.79-.68-11.91-1.62,1.27-4.81.24-6.03,1.07-2.02,1.37.97,9.81.05,12.4,1.03-.11,6.43-1.31,6.66-1.57Z"/>
        <path class="cls-21" d="M459.95,634.08c.78.23,5.39-1.24,5.56-1.94.86-3.53-1.51-8.47-.79-12.24-.45-.51-6.32,2.21-6.61,3.43-.19.83.71,10.42,1.83,10.74Z"/>
        <path class="cls-21" d="M128.5,336.09c-1.27,4.2-.95,9.8-.75,14.23,2.9-3.64.83-9.16.75-14.23Z"/>
        <path class="cls-21" d="M139.73,384.76c.42,1.43,1.07,1.43,1.5,0,.25,0,.5-.02.75,0l.52-.6c4.26.65,3.59-2,3.26-5.82-.09-1.01-.7-1.48-.78-1.81v6.74s-7.48,0-7.48,0l2.24,1.49Z"/>
        <path class="cls-21" d="M484,556.43c-11.13,1.82-8.34,13.82,1.03,18.08,3.65,1.66,3.74,1.21,6.22-1.85,6.26-7.76,3.48-17.98-7.24-16.22Z"/>
        <path class="cls-21" d="M516.4,587.7c.19,3.71,4.31,4.79,6.73,6.74.84-.91-5.93-7.6-6.73-6.74Z"/>
      </g>
      <g>
        <path class="cls-16" d="M406.32,127.91l2.19-.21c1.86.95,12.6,7.63,13.18,8.5.43.65.44,1.45.35,2.2,6.31,5.38,8.55,17.63,11.23,25.46.16,2.46-.39,1.45-1.47.35-13.94-14.3-30.1-26.55-43.46-41.53-1.29-.26-.75-2.09.1-2.7,1.68-1.2,16.24,5.62,17.87,7.95Z"/>
        <g>
          <polygon class="cls-15" points="347.91 612.41 374.12 615.41 380.86 564.48 357.67 561.51 347.91 612.41"/>
          <path class="cls-15" d="M372.63,621.02c-.95-.67-20.5-3.9-22.96-4.06-1.08-.07-2.11-.37-2.9.68-1.42,1.89-1.45,10.05-2.61,12.74l26.96,4.5c.1-3.77,1.82-8.28,2.11-11.83.07-.91.34-1.37-.59-2.03Z"/>
          <path class="cls-15" d="M383.14,544.63l-21.68-2.53-2.32,13.4,23.22,3c-.84-2.4,1.93-13.2.78-13.87Z"/>
          <path class="cls-15" d="M386.85,517.31c-.08-.52,0-1.06-.33-1.52-1.27-1.5-17.81-.86-21-2.24-.78-.03-.25,1.06-.39,1.51-1.67,5.42-1.33,13.31-3.02,19.1-.36,1.96,1.9.87,3.02,1.12,5.34,1.17,10.26,1.89,15.73,2.25,1.13.07,3.08,1.44,3.62-.48-.38-5.69,3.17-14.49,2.37-19.74Z"/>
        </g>
        <g>
          <path class="cls-16" d="M370.37,56.77c11.2,8.64,29.67,21.85,35.94,34.45.78,2.84.23,4.03-1.67,3.56l-11.29-6.12c-.42.69,4.37,13.85,6.92,14.21l.05,1.83c2.6,2.28-1.82,2.49-3.55.95-2.93,6.44-6.49,12.36-10.68,17.77-.53,1.43-3.49,10.67-3.32,11.25,2.69,4.49,26.88,23.87,27.14,26.71.49,5.48-10.04,17.99-11.09,24.19l-27.32-40.42c-1.41.01-10.7,16.53-12.36,19.11-.62.97-.64,2.19-2.24,1.84-4.06-3.72-8.98-9.66-12.73-12.73,12.01-14.86,22.15-31.26,33.7-46.43l-.59-1.59c5.04-3.32,6.1-6.43,3.19-9.32l-6.32-8.44.74-1.62c-2.07-3.57-3.33-8.13-5.68-11.92-1.43-2.3-8.36-9.62-8.47-10.28-.41-2.41,7.02-7.46,9.65-7.01Z"/>
          <path class="cls-16" d="M400.33,104.69c1.62.47,7.9,4.1,8.61,5.25,1.13,1.83-.39,4.8-1.12,6.74-1.56,4.14-6,7.48-1.5,11.23-2.73-.27-16.65-7.72-17.84-6.61-.31.29-.03,1.28-.13,1.36-.12.1-1.56-1.49-2.25.75,2.54-6.81,6.52-12.56,9.7-19.15,1-.8,2.69.84,4.12,1.16.49.11.37-.75.41-.73Z"/>
          <path class="cls-16" d="M350.9,71.74l-24.7,10.12,19.17,25.03,18.02-10.33c4.92,1.54.56,4.61-1.62,6.66-1.8,1.7-12.01,9.19-12.27,10.23-.95,3.74,5.49,6.91,5.14,10.72-3.77.5-9.49-5.43-12.3-5.23-3.07.21-12.65,8.5-15.89,10.36-3.54-2.97-7.78-.25-10-2.86h2.99c.81-1.99-1.53-1.29-1.52-1.88.08-3.42,13.04-7.87,15.7-10.53.62-.62,1.06-.68.79-1.82l-21.51-13.34c-7.92.88-15.48,3.21-22.66,6.59-1.33-1.73,5.15-5.74,6.49-6.61,6.11-3.94,13.26-6.19,19.7-9.49-1.31-1.76-10.62-11.24-10.12-12.36l27.79-15.71c.65-.11,1.22.12,1.83.31.76.23,12.66,7.24,13.71,8.05.83.65,1.55.74,1.25,2.11Z"/>
          <path class="cls-16" d="M374.87,85.97c1.42,2.44,8.98,11.22,8.97,13.1-.02,3.27-4.57,6.02-5.97,7.87-6.29-10.46-21.37-14.4-32.55-18-2.37-.76-13.29-2.97-13.87-4.1-.36-1.53.63-1,1.47-1.47,3.48-1.93,7.6-3.41,11.27-5.24,2.52-1.26,6.89-4.98,9.36-4.95,6.41,3.31,12.52,7.98,18.53,12.21.63.44,2.36,2.18,2.79.58Z"/>
        </g>
      </g>
      <g>
        <path class="cls-16" d="M335.18,287.4c-.45-.64.18-1.35.78-1.82,1.38-1.06,8.88-3.09,11.46-4.26,6.04-2.75,11.91-6.03,17.68-9.31.46-.62,1.48.6,1.52.83.09.43-.74,7.79-.92,8.78-.48,2.57-2.53,5.77-4.4,7.58-2.22,2.15-13.19,8.51-15.87,7.83-1.71-.44-6.22-6.81-8-8.54-.83-.8-2.18-.99-2.26-1.09Z"/>
        <path class="cls-16" d="M206.37,287.43c.31,1.11-.32,1.25-.73,1.87-1.12,1.66-6.25,7.75-7.91,7.89-2.56.23-12.84-7.77-14.44-10.27-2.79-4.35-2.52-8.77-2.36-13.73l25.45,14.24Z"/>
        <path class="cls-16" d="M301.37,344.2l-4.41-.22c-.69-1.17-4.96-1.56-4.44-3.01.56-1.55,3.63-5.39,4.61-7.37,1.7-3.42,6.85-16.65,10.14-17.6,2.49-.72,7.95,1.95,7.59,4.56-.57,4.19-12.3,17.98-13.49,23.65Z"/>
        <path class="cls-16" d="M322.97,294.98c.71-.18,7.13,4.11,7.7,4.79.85,1.01.95,1.65.76,2.93-.28,1.87-10.2,13.94-11.61,13.94-1.22,0-7.87-6.74-7.87-7.87,0-1.23,9.98-13.52,11.02-13.79Z"/>
        <path class="cls-25" d="M310.26,276.76c-6.74-4.88-30.08-19.41-37.23-20.05-4.8-.43-7.74-.31-11.98,1.5-8.05,3.43-21.53,11.43-28.85,16.45-3.04,2.08-6.1,4.24-8.46,7.13,1.97,2.21,14.41,17.8,15.86,17.55.81-.14,4.5-4.58,5.71-5.57,4.2-3.46,16.95-12.83,21.72-13.84.62-.13,1.53.05,2.25,0,13.19-.98,21.06,12.33,31.08,18.75,1.84,0,8.44-9.57,10.13-11.61.95-1.14,5.04-4.65,5.17-5.36.23-1.29-4.26-4.11-5.4-4.94Z"/>
        <path class="cls-16" d="M214.4,295.01c1.34-.38,1.8-.03,2.87.61.69.41,9.55,10.54,9.77,11.25.94,3-4.46,8.83-7.21,7.96-1.76-.56-10.62-9.76-11.1-11.49-.68-2.47,3.76-7.8,5.66-8.33Z"/>
        <path class="cls-16" d="M334.42,301.64c-1.69-2.59-10.44-9.81-13.12-9.73-5.01.16-9.85,12.8-11.57,13.87-1.16.72-3.32.56-3.73-.85-.64-2.25,11.18-17.76,13.17-18.14,3.06-.59,12.52,9.09,14.15,11.83.59.99,1.47,1.53,1.09,3.03Z"/>
        <path class="cls-16" d="M232.4,305.19c-.33.35-1.54.95-2.07.62-.41-.26-4.33-6.53-5.59-7.92-7.87-8.69-9.92-7.23-16.43,1.6-.87,1.18.43,2.01-1.55,2.16-1.03.08-1.45.1-1.1-1.1.75-2.62,11.12-14.9,12.98-14.57,2.06,1.91,4.22,3.84,6.1,5.93,1.38,1.52,7.71,9.26,8.24,10.54.4.95.08,2.06-.58,2.76Z"/>
        <path class="cls-16" d="M290.99,376.52c-9.29-4.55-5.11-22.36,3.32-25.51,2-.75,5.28-1.68,5.67,1.16-9.8,6.19-14.68,12.72-8.99,24.35Z"/>
        <path class="cls-16" d="M251.32,375.03c2.76-6.62.3-10.87-3.77-16.08-.71-.91-4.46-4.19-4.46-4.51,0-.92,3.49-3.05,5.2-2.27,6.68,3.03,9.83,18.29,3.03,22.86Z"/>
        <path class="cls-16" d="M247.26,340.57c-4.95-7.01-8.36-17.57-13.3-24.21-.47-.63-.65-1.44-1.71-1.21-1.03.22-5,5.56-4.81,6.9.66,4.77,11.06,16.1,12.03,22.15.4.32.91.11,1.35.12,1.31.05,1.92-.39,3-.75,1.51-.5,4.32-.73,3.44-3.01Z"/>
        <path class="cls-16" d="M248.3,376.52c-3.18,2.45-2.99-7.76-3.14-8.46-.46-2.08-3.1-4.86-3.44-7.82-.61-5.38,5.94,1.54,6.96,4.29.9,2.43,1.57,10.47-.39,11.98Z"/>
        <path class="cls-16" d="M300.72,354.81c2.51,4.42-2.02,6.96-2.7,10.46-.2,1.01,1.35,12.27-2.85,5.96-3.29-4.95-.6-14.61,5.55-16.41Z"/>
        <path class="cls-1" d="M299.95,308.18c-5.7-6.46-17.1-18.92-25.28-21.58l-.21.04c-4.54-1.44-5.01-.94-8.93.77-5.03,2.19-11.09,6.93-15.33,10.5-2.22,1.87-8.68,6.8-8.69,9.33,0,2.08,5.12,11.97,6.41,14.64,5.6,11.52,12.21,23.22,19.27,33.9.67,1.01,1.18,2.32,1.36,3.52,1.61.44,1.6-.91,2.24-1.5,3.58-3.27,7.17-9.27,9.73-13.48l-.06-.18c7.02-11.41,13.22-24.11,19.5-35.96ZM270.03,354.81c-7.85-14.52-15.25-29.74-21.1-45.59-.53-1.43,14.83-12.71,17.35-14.14v-1.68c.75,1.89,5.37,1.31,5.25-.75.06.01.09-.01.15,0l.87,2.33c7.05,4.12,13.81,8.69,19.04,14.87-.18,1.56.12,2.56.89,3.03-1,.24-1.86.72-2.56,1.47-5.98,13.53-12.67,26.43-20.71,38.63l.83,1.83Z"/>
        <path class="cls-18" d="M271.53,292.65c4.8,3.27,10.16,5.94,14.62,9.72,1.01.85,6.43,6.12,6.73,6.78.97,2.09-.33,2.76-.39,3.72-4.62,7.63-7.43,16.1-11.59,23.98-2.97,5.61-8.66,12.52-10.87,17.96-1.78.08-1.94-1.06-2.65-2.22-3.3-5.38-7.47-13.91-10.22-19.74-3.59-7.62-6.51-15.54-9.67-23.35-.02-1.57.6-2.03,1.54-3.03,2.11-2.26,14.72-12.05,17.26-13.07.77-.31,4.49-.91,5.24-.75Z"/>
        <path class="cls-23" d="M267.78,340.58c-.76-.66-.55-1.21-.75-1.5-3.05-7.74-6.64-15.34-10.77-22.79-6.19-4.69,11.16-15.77,13.5-15.77,1,0,14.65,9.62,14.77,10.52.5,3.66-11.65,26.13-15.27,29.01-.39.31-.92.44-1.49.52Z"/>
        <path class="cls-5" d="M267.78,340.58c7.16-8.5,11.77-18.74,16.43-28.72l-14.55-9.98c-.77.04-12.35,8.08-12.73,8.75-.69,1.22-.56,2.64-.2,3.93,1.06,3.91,7.14,13.18,9.17,17.79.73,1.66,2.82,5.25,1.13,6.73-2.65-3.81-5.61-9.47-7.62-13.72-1.25-2.64-5-10.26-5.55-12.49-.23-.95-.42-1.2.04-2.22,1.02-2.26,14.06-12.07,16.39-11.85,1.6.15,14.97,10.71,15.39,12.35-1.62,5.49-12.12,27.78-16.4,29.83-.52.25-1.12-.07-1.5-.4Z"/>
      </g>
      <g>
        <path class="cls-16" d="M356.15,330.84c-15.49,12.82-28.58,35.97-21.72,56.91,1.58,4.83,4.07,9.21,9.53,10.31,21.86,4.43,43.58-21.75,50.19-40.08,12.46-34.59-9.84-50.46-38-27.14ZM380.18,373.98c-8.76,11.37-32.85,29.59-41.66,9.4l-1.84-.87c.64-.36.67-.61,0-.75.1-3.73-.07-7.5,0-11.23l1.82-1.77c2.56-13,9.16-25.26,19.24-33.96l.66-2.46,1.71.59c38.89-25.23,40.42,14.64,20.07,41.06Z"/>
        <path class="cls-9" d="M336.68,382.51c.01-.25,0-.5,0-.75-.61-3.7-.73-7.53,0-11.23,2.14-14.3,10.19-29.29,21.72-38.19,11.45-8.84,33.99-16.45,35.98,4.84,1.72,18.5-11.65,41.12-27.06,50.89-11,6.97-26.19,10.23-30.64-5.55Z"/>
        <ellipse class="cls-4" cx="366.19" cy="358.37" rx="34.56" ry="15.96" transform="translate(-136.38 458.12) rotate(-55.61)"/>
        <path class="cls-22" d="M361.8,300.12c-2.8.11-4.82,1.49-7.15,2.27-4.8,1.62-6.26,2.26-10.48,5.24-6.1,4.29-11.76,10.69-16.47,16.47-9.46,11.6-16.34,22.8-17.22,38.19-.01.25.01.5,0,.75-1.34,3.9-1.16,9.7,0,13.48.86,2.81,1.53,3.16,2.83,4.35.27.45.57.78.91.89,1.99,2.1,9.54,9.53,11.62,10.48,2.09.95-.1-5.27-.38-5.98-1.79-13.51,2.15-28.4,8.86-40.19,1.96-3.45,5.79-9.39,8.37-12.23,3.94-4.34,12.86-11.37,17.97-14.23,2.89-1.61,8.87-4.34,11.98-5.24,5.13-1.49,10.4-1.74,15.73-1.5,1.07.19,2.89,1.31,3.74.38-6.76-5.23-21.78-13.48-30.29-13.13Z"/>
      </g>
      <g>
        <path class="cls-16" d="M149.69,358.09c6.6,18.34,28.33,44.52,50.19,40.08,5.46-1.11,7.95-5.48,9.53-10.31,6.86-20.94-6.23-44.09-21.72-56.91-28.16-23.32-50.46-7.45-38,27.14ZM183.73,333.03l1.71-.59.66,2.46c10.08,8.71,16.69,20.96,19.24,33.96l1.82,1.77c.07,3.73-.1,7.5,0,11.23-.67.14-.64.39,0,.75l-1.84.87c-8.81,20.19-32.9,1.97-41.66-9.4-20.35-26.41-18.82-66.29,20.07-41.06Z"/>
        <path class="cls-9" d="M207.16,382.62c-.01-.25,0-.5,0-.75.61-3.7.73-7.53,0-11.23-2.14-14.3-10.19-29.29-21.72-38.19-11.45-8.84-33.99-16.45-35.98,4.84-1.72,18.5,11.65,41.12,27.06,50.89,11,6.97,26.19,10.23,30.64-5.55Z"/>
        <ellipse class="cls-4" cx="177.64" cy="358.48" rx="15.96" ry="34.56" transform="translate(-171.43 163) rotate(-34.39)"/>
        <path class="cls-22" d="M182.03,300.22c2.8.11,4.82,1.49,7.15,2.27,4.8,1.62,6.26,2.26,10.48,5.24,6.1,4.29,11.76,10.69,16.47,16.47,9.46,11.6,16.34,22.8,17.22,38.19.01.25-.01.5,0,.75,1.34,3.9,1.16,9.7,0,13.48-.86,2.81-1.53,3.16-2.83,4.35-.27.45-.57.78-.91.89-1.99,2.1-9.54,9.53-11.62,10.48-2.09.95.1-5.27.38-5.98,1.79-13.51-2.15-28.4-8.86-40.19-1.96-3.45-5.79-9.39-8.37-12.23-3.94-4.34-12.86-11.37-17.97-14.23-2.89-1.61-8.87-4.34-11.98-5.24-5.13-1.49-10.4-1.74-15.73-1.5-1.07.19-2.89,1.31-3.74.38,6.76-5.23,21.78-13.48,30.29-13.13Z"/>
      </g>
    </g>
  </g>
</svg>