<?xml version="1.0" encoding="UTF-8"?>
<svg id="Calque_2" data-name="Calque 2" xmlns="http://www.w3.org/2000/svg" viewBox="0 0 517.69 883.46">
  <defs>
    <style>
      .cls-1 {
        fill: #27b1c4;
      }

      .cls-2 {
        fill: #0d0304;
      }

      .cls-3 {
        fill: #863f4a;
      }

      .cls-4 {
        fill: #a76769;
      }

      .cls-5 {
        fill: #ffedc6;
      }

      .cls-6 {
        fill: #1f0f0f;
      }

      .cls-7 {
        fill: #010100;
      }

      .cls-8 {
        fill: #060607;
      }

      .cls-9 {
        fill: #421a25;
      }

      .cls-10 {
        fill: #30b3c7;
      }

      .cls-11 {
        fill: #040203;
      }

      .cls-12 {
        fill: #074868;
      }

      .cls-13 {
        fill: #020102;
      }

      .cls-14 {
        fill: none;
        stroke: #1d1d1b;
        stroke-miterlimit: 10;
        stroke-width: 6px;
      }

      .cls-15 {
        fill: #050203;
      }

      .cls-16 {
        fill: #07425e;
      }

      .cls-17 {
        fill: #089baf;
      }

      .cls-18 {
        fill: #033849;
      }

      .cls-19 {
        fill: #074667;
      }
    </style>
  </defs>
  <g id="random_V2" data-name="random V2">
    <g>
      <g>
        <path class="cls-7" d="M509.41,610.94c-5.87-32.51-12.39-66.32-19.49-98.56-3.59-16.31-8.06-35.7-14.89-50.83-3.27-7.23-8.06-10.87-14.93-14.27-15.69-7.78-33.86-13.4-50.1-20.48-20.41-8.9-40.1-19.48-60.57-28.25-2.57-.49-3.35-7.51-2.29-8.67.6-.66,10.58-5.38,12.73-6.74,21.08-13.33,34.82-34.45,38.38-59.28l11.34,7.82c9.39,4.3,21.31,6.05,30.63,1-9.26-.92-16.57-6.91-21.43-14.46-8.37-13.03-9.42-36.14-6.27-50.97,3.33-15.67,12.52-29.94,13.11-46.23,1.03.17,1.09,1.19,1.38,1.96,5.87,15.36,8.9,34.26,5.73,50.5-.86,4.41-2.4,8.52-4.07,12.65,8.67-6.91,11.55-20.06,12.19-30.71,1.48-24.69-4.95-47.38-14.63-69.7l11,8.77c9.82,6.03,19.33,6.78,30.23,2.96,1.06-.37,3.33-.91,3.79-1.99-21.23,1.15-33.81-18.47-40.31-36.05-8.25-22.31-9.18-46.24-15.64-68.95-.12-1.78.69-.5,1.1.12,1.91,2.85,4.37,7.41,5.9,10.53,5.75,11.66,10.02,24.71,10.62,37.75,1.59.14,1.01.08,1.19-.91,1.66-8.94-.05-22.41-2.1-31.34-6.89-30.03-38.13-67.54-64.78-82.46-6.04-3.38-12.84-6.26-19.48-8.21.16-1.1,3.15-.67,3.94-.59,8.14.77,15.89,5.14,23.43,7.9-20.51-24.59-55.22-28.29-84.1-17.49-19.15,7.16-35.89,21.38-39.4,42.45-.54.48-7.26-2.77-8.64-3.22-17.24-5.56-35.89-6.04-53.52-2.07-29.96,6.75-79.9,35.61-93.68,63.9-1.69,3.46-3.53,11.71-5.08,13.79-1.14,1.53-6.29,4.63-8.21,6.4-6.21,5.72-12.42,12.42-16.91,19.6-12.41,19.85-18.32,45.47-11.67,68.34l2.61-15.33c2.14-7.89,6.02-15.07,10.28-21.97l6.57-8.33c-8.32,30.79-9.68,75.44,19.27,96.04,4.18,2.98,9.08,4.7,13.25,7.44,5.9,25.6,17.29,48.28,33.19,69.02-14.16,7.3-28.46,14.37-42.39,22.12-9.96,5.54-21.22,11.83-30.8,17.87-5.61,3.53-12.76,6.58-11.22,14.65,1.11,5.84,19.56,23.68,24.5,29.65,2.22,2.68,4.41,5.64,6.38,8.52-10.39,4.67-22.04,8.54-32.05,13.89-10.69,5.71-15.33,11.25-20.37,22.22-14.87,32.3-12.67,69.49-15.72,104.16-2.76,31.4-9.9,62.02-17.42,92.5,2.46-.22,5.1.22,7.79,1.56,83.17,41.35,168.73,69.05,262.24,70.63,29.65.5,60.84-1.34,91.62-6.48,3.11-8.2,7.15-17.69,8.78-20.52.39-.67.83-1.51,1.66-1.68-1,2.07-.06,3.42,0,5.18.18,5.12.02,10.17,1.23,14.9,3.22-.63,6.44-1.31,9.64-2.02-.31-4.86-.2-10.03.33-14.86,1.44-13.06,4.89-25.86,8.48-38.82,10.02-33.01,18.84-62.76,15.27-97.69-.17-1.64-2.26-15.41-3.49-16.68-2.03-2.1-4.79-1.2-5.78,1.57-.8,2.24-1.7,11.02,1.69,8.47.71.79.87,1.59.96,2.61.63,6.7-1.33,22.07-3.09,28.69-.69,2.6-12.55,43.85-12.55,41.67l6.8-37.39c.36-4.96.48-9.94-.03-14.9l1.21-.94c-2.43-15.98-6.2-31.65-11.31-47.03l-1.46-.11c-1.3-.28-1.81.08-1.71,1.36l1.46,5.39c-1.85,1.5-3.25,3.74-4.17,6.7l-12.71,33.43c2.67-17.33,9.29-33.64,16.09-49.56l-.19-1.58c3.1-1.67,4.37-7.4,4.26-10.95l2.45-2.31c5.2-10.51,12.13-20.05,20.04-28.67l1.23-3.1c.6-.57,1.32-.72,2.15-.49,4.27-4.48,8.76-8.74,13.59-12.62l.68-2.1c2.73.16,6.03-2.21,6.69-4.87l1.44.47c6.19-6.49,27.45-11.45,33.75-4.67,6.89,7.41,13.18,39.77,15,49.43.47,5.43,1.58,10.64,3.34,15.62l-.72,1.27c.98,3.74,2.24,7.37,3.76,10.9l-.76,2.42c.75,3.97,1.41,7.83,1.98,11.58l-.64,1.45c2.15,8.37,3.75,16.88,4.79,25.52l1.32.42-.35,3.95c2.57,8.51,4.14,17.14,4.7,25.89l1.13,1.2c-.62,4.56.19,8.21,2.43,10.95.03,5.5.89,11.01,2.57,16.54,1.84,8.55,3.3,16.63,3.01,24.88.34-.28.69-.55,1.03-.83,3.17-2.67,6.67-3.68,10.02-3.52-.68-18.39-5.3-40.21-8.28-56.68ZM333.61,307.57c-.74,2.11-4.01,9.88-5.29,11.14-1.86,1.82-6.05-.83-8.42-1.37-4.36-1.01-9.05-1.9-13.51-2.01-.72-.66,6.6-15.34,7.59-17.05,4.81-8.27,7.7-8.72,14.02-14.58,3.33-3.09,5.37-6.3,8.19-9.75,1.15,11.08,1.15,23-2.58,33.62ZM348.71,334.16c-.44-2.12-3.98-6.91-3.89-7.46.08-.55,5.04-7.74,5.88-9.35.8-1.52,1.16-3.38,1.88-4.8.33-.65-.31-1.15,1.27-.86l1.25,16.71c.04,13.38-1.58,26.78-6.42,39.27l-3.94,7.92,4.28-33.13c-.16-2.76.27-5.54-.3-8.28Z"/>
        <path class="cls-7" d="M494.98,647.59c-.34-1.68-4.11-1.87-4.26,0-1.94.59-3,2.14-3.18,4.65l-1.42,7.51c-3.19,6.39-4.48,11.67-3.61,18.24l-14.51-12.95c-1.51-.4-2.5.73-2.02,2.2,2.87,3.78,5.74,7.63,7.99,11.79l-7.93-5.53c-1.57-1.05-7.92-4.99-9.18-3.19-.47.67,4.55,7.98,5.48,9.06,4.28,4.98,9.54,9.19,14.93,12.61.15.16.3.32.45.48,6-3.62,11.85-7.46,17.5-11.57.93-3.32,1.91-6.64,2.8-9.97-1.07-7.27-1.59-14.67-1.57-22.23l-1.47-1.1Z"/>
        <path class="cls-7" d="M261.21,883.46c.07,0,.15-.02.22-.03.04,0-.1-.07-.22.03Z"/>
      </g>
      <g>
        <path class="cls-18" d="M363.58,534.41h0c9.39-18.6,22.74-44.39,38.32-58.12,2-1.76,13.81-9.5,13.99-10.35.21-.97-.81-1.25-1.39-1.63-4.37-2.87-12.47-5.53-17.46-7.79-3.21-1.46-9.61-5.67-12.78-6.09-.19-.02-.42-.01-.61,0-4.15-2.77-9-5.44-13.58-7.41-2.5-1.08-10.01-4.22-12.25-4.17-4.05.09-12.4,3.82-16.37,5.58-2.57,1.14-20.8,11.07-21.68,10.25.87-4.82,4.39-8.66,7.31-12.45,2.95-3.83,6.74-8.34,10.01-11.89,1.02-1.1,3.21-2.28,3.35-2.44,1.19-1.41-1.68-1.47-3.01-.88-2.06.91-9.49,7.22-11.59,9.09-18.59,16.52-34.06,36.27-50.76,54.5-.8.87-1.96,1.24-2.75,2.1,6.51,5.75,12.6,12.24,18.25,18.86,1.81,2.12.34,3.46,4.86,2.75l-.33,3.02c-1.08,2.18-7.1,9.23-7.51,10.8-.38,1.46,1.51,2.41,1.64,3.61.21,2.03-6.9,8.31-8.72,9.93-20.09,17.88-43.98,32.62-63.56,51.13-2.04,2.49-4.08,5.16-4.11,8.26-.89-2.06-2.85-.09-4.22,1.84.31-.68.52-1.31.42-1.58-1.46,1.02-2.77,2.33-3.96,3.64-1.3,1.44-8.72,9.62-9.09,10.38-1.45,3.05-2.95,13.91-3.38,17.62h0c-1.42,12.21-1.38,26.8-1.23,39.26.01,1.03-.39,2.7.62,3.34h0c-.13,3.53.52,6.49.61,9.74.41,15.62.65,31.34,1.27,47.08,14.42,2.44,29,4.31,43.78,5.52,1.44-3.12,2.87-6.24,4.22-9.4,2.45-2.14,2.84-5.82,4.61-8.6.29-.39.57-.79.86-1.13.37-.07,1.1.1,1.22,0l3.04,3.04c2.17,4.92,5.96,9.83,8.52,14.6,2.97-.26,3.55-4.75,1.85-6.99.34-2.05,1.61-3.86,3.82-5.42l-.19-1.58c-.78-1.24-1.66-2.42-2.43-3.65l-7.91-13.39c-.41-.75-.79-1.63-1.22-2.43-1.22-4.23-3.6-8.92-5.77-12.79-1.57-2.81-8.85-12.92-8.88-14.88-.01-.75.28-1.31.52-1.98.75-2.16,8.19-11.05,10.15-12.96,1.17-1.14,2.96-2.51,4.43-1.04.78.78,5.38,9,6.15,10.57,9.92,20.03,18.99,40.6,29.79,60.27,1.64,2.99,3.4,6.14,5.27,9.22,1.19-.04,2.37-.07,3.56-.11-7.16-14.06-15.34-27.67-22.43-41.76-4.34-8.63-11.01-21.12-12.8-30.41-.12-.63-.8-2,.33-1.85,6.9,14.3,14.03,28.53,21.8,42.39,5.64,10.07,11.87,20.9,18.1,30.57.08.12.26.42.51.81,1.27-.06,2.55-.11,3.82-.18-.14-.49-.3-.98-.49-1.44-6.97-17-19.71-35.45-28.26-52.06-3.75-7.29-13.89-26.93-15.35-33.94-.63-3.01-.6-6.65,2.09-8.6,1.27-.92,7.67-4.1,7.42-1.12-.18,2.13-5.24,7.65-3.56,11.36,1.43.12,2.37-1.02,3.36-1.81,8.56-6.85,24.05-28.67,30.35-38.4,3.89-6.01,8.92-18.73,15.63-21.48,10.91-4.48,14.87,2.93,19.73,11.18.43.1,7.36-4.17,7.63-4.52,1.03-1.37-.2-3.03-.08-4.87,1.14-18.64,8.05-42.12,16.45-58.75Z"/>
        <path class="cls-18" d="M507.75,664.95c-1.13-11.3-4.01-23.47-6.68-34.39-.89-3.63-1.4-7.36-2.43-10.95.9-8.3-3.79-22.55-5.48-31.04-1.17-5.89-3.1-23.57-5.47-27.38,2.05.24.93-.61.8-1.71-.45-4.01-1.22-8.33-2.02-12.29-.73-3.63-1.27-9.01-3.04-12.17-1.2-11.75-3.35-23.93-6.26-35.43-1.8-7.11-6.77-26.35-11.66-30.93-6.02-5.64-22.09-2.48-28.94.93-2.81,1.39-4.3,2.95-6.67,4.58-2.33,1.6-4.47,3.12-6.69,4.87-6.43,5.07-10.81,9.29-16.42,15.21-9.7,10.22-17.76,21.11-23.73,34.08h0c-1.52,3.29-2.73,7.45-4.26,10.95-2.55,5.83-5.52,11.51-7.77,17.49-5.12,13.58-9.53,28.9-10.48,43.36l16.12-42.59c.99-1.2,1.91-4.86,2.68-5.72.65-.72,1.71-.25,1.88-.38.27-.21-1.65-5.48-1.72-6.58-.06-.92.5-1.25.5-1.32.56.87.89,1.79,1.15,2.8,2.72,10.63,10.56,35.81,10.41,45.28-.27,16.88-4.38,30.51-7.12,46.73-.76,4.5-1.53,9.36-1.93,13.9-.06.68-.56,2.18.53,2.05,4.49-16.76,11.18-33.28,14.43-50.38,1.3-6.85,4.28-25.35,3.21-31.47-.24-1.36-.92-1.14-1.21-1.51h0c-.15-.2-.87-.2-1.1-1-.4-1.38.41-8.04,1.17-8.67.23-.2,2.68-.2,2.91,0,.28.23,1.61,5.99,1.81,7.01,10.33,50.94-11.7,86.47-19.84,133.97-.8,4.67-2.92,21.14-1.79,26.79.56-.12,1.13-.25,1.69-.38h0c18.92-4.27,37.49-9.9,55.24-17.15.02,0,.03,0,.05,0,.36-.15.71-.31,1.07-.45.36-.15.72-.29,1.08-.43-.02,0-.03,0-.05,0,1.64-.68,3.28-1.38,4.9-2.09,0,0,.02,0,.03,0,.18-.08.35-.17.53-.24.38-.17.76-.32,1.14-.48-.02,0-.04,0-.05-.01,4.67-2.09,9.27-4.32,13.81-6.65.02,0,.05,0,.07.02,0-.01-.02-.02-.03-.04.91-.47,1.83-.92,2.74-1.4,0,0,.01,0,.02.01.29-.15.58-.32.88-.47.07-.04.14-.07.21-.11,0,0,0,0,0,0,.83-.44,1.65-.88,2.47-1.33,0,0,0,0,.01.01.15-.08.3-.18.46-.26.22-.12.45-.24.67-.36,0,0-.01-.01-.02-.02,2.25-1.25,4.48-2.54,6.69-3.85,0,0,.02.02.03.03.6-.36,1.19-.73,1.78-1.09-1.15-1.12-2.3-2.22-3.42-3.31-3.25-3.13-7.37-5.5-10.37-9.1-2.63-3.16-3.69-6.45-6.99-9.13,7.26,1.75,12.32,7.61,18.85,10.95,1.12-1.37-6.93-12.16-8.21-14-.34-.49-1.63-1.18-.61-1.82l16.12,14.6c1.54-3.39-.38-6.94.02-9.99.37-2.76,3.09-7.63,3.95-10.69,1.15-4.08.86-8.88,3.33-12.19,1.36-.13,2.97.2,4.26,0,1.26,5.22.33,10.77.62,16.12.12,2.16,1.28,4.52,1.23,6.68-.09,3.48-1.76,7.53-3.27,11.67,4.84-3.46,9.56-7.08,14.12-10.92.11-.09.22-.16.32-.25.01-1.87-.04-3.81-.25-5.95Z"/>
        <path class="cls-18" d="M397.64,448.6c2.44,2.46,13.32,7.36,17.03,9.13,2.15,1.03,3.95,2.73,6.47,3.03,1.91-.35,3.89-1.15,5.7-1.81,2.42-.89,4.63-2.03,6.98-3.06l14.91-4.24c-11.06-4.9-22.66-8.63-33.87-13.29-13.12-5.45-26.07-11.52-39.13-17.15-10.69-4.61-21.37-9.22-31.99-13.98-2.89-1.11-11.31,5.93-9.7,8.5l63.6,32.87Z"/>
        <path class="cls-18" d="M389.13,510.06c3.01-4.79,6.19-9.58,9.73-14,4.4-5.49,9.87-11.23,15.21-15.82,5.38-4.62,12.53-10.21,18.86-13.39,7.42-3.72,17.58-6.07,25.88-5.5,2.92.2,8.17,3.22,3.34-2.12-6.7-7.42-21.87-1.44-29.45,2.25-.56.27-.84,1.04-.99,1.12-2.33,1.17-4.97,1.96-7.31,3.33-6.27,3.67-12.19,8.28-17.63,13.1-6.43,4.01-10.18,10.94-14.6,17.04-3.51,3.89-6.45,9.43-9.13,14-10.37,17.69-22.34,43.13-26.6,63.15-1.22,5.74-1.62,11.41-.47,17.18,4.69-16.09,9.86-32.61,16.44-48.06,4.7-11.02,10.35-22.14,16.71-32.27Z"/>
      </g>
      <g>
        <path class="cls-4" d="M186.86,181.46c1.03-.01,2.7.39,3.34-.62,3.7-.04,8.04-.61,11.25-.61h20.08c3.71,0,9.02-.44,13.08-.61,11.14-.46,22.31-1.44,33.46-1.83l-9.12-8.82c2.14-1.13,4.47.51,6.4.9,1.28.26,1.04-.22.29-.91-5.23-4.78-8.72-5.89-14.81-8.94-.5-.25-4.64-1.28-1.34-1.7,2.97-.38,5.76.27,8.6.54.68.06,2.19.56,2.05-.53-8.12-3.33-16.95-4.48-25.54-5.49l6.08-2.13,6.09-.91c.18-1.59-.03-.96-.89-1.23-7.17-2.22-13.45.93-20.09,3.07-1.37-1.02,1.71-4.12,1.51-4.26-3.98-1.94-9.87,4.7-12.39,4.3-.36-.06-2.98-5.39-4.64-5.53l1.82,6.69c-1.43-.54-2.85-1.21-4.25-1.82-3.01-1.31-2.94-1.9-6.09.91l-28.58,29.22c4.5.5,9.15.36,13.69.31Z"/>
        <path class="cls-4" d="M168.61,172.94l15.8-18.27c-12.42,6.98-23.77,15.48-34.37,24.96h10.65c1.52,0,6.6-5.3,7.92-6.69Z"/>
        <path class="cls-4" d="M347.33,219.3c-3.88-13.43-13.47-15-23.59-6.19-8.63,7.51-9.37,18.76-14.32,28.58-1,.16-.56-.82-.6-1.51-.09-1.67.55-4.88-1.21-5.79-3.19,14.39-11.99,26.02-20.39,37.72l3.27-14.99c.37-5.56,1.51-11.07,1.3-16.65.16-.77,1.21-2.15-.3-1.82-5.26,5.32-11.95,8.11-16.74,13.99-1.86,2.28-3.33,5.53-5.45,7.63-3.59,3.56-15.1,7.74-20.24,9.57-6.29,2.24-12.7,4.31-19.33,5.31-4.45.75-9.58,2.48-13.99,3.04-5.43.69-13.78,1.27-19.16,1.27-12.23,0-23.06-15.07-36.12-13.36-1.07,2.64-.96,5.62-1.73,8.32-1.11,3.93-6.62,14.74-6.26,17.42.85,6.26,10.89,10.5,12.16,16.78-.43.45-.73.61-1.16.64l-.66-.03c-8.41-3.95-17.99-11.21-15.4-21.8,1.56-6.4,8.49-11.39,7.8-18.36-1.23.65-2.24,1.66-3.35,2.43-2.98,2.08-5.86,3.88-9.13,5.48-10.2,1-19.44-2.07-29.2-4.26,3.89,17.96,11.65,34.7,21.28,50.21,5.71,9.19,12.37,17.65,18.51,26.51,10.48,15.13,13.18,29.63,35.33,27.93,16.96-1.3,47.27-20.89,61.59-30.89,10.87-7.59,23.74-17.44,31.08-28.55,8.44-12.77,12.53-27.69,19.89-40.96,12.3,19.56,26.01,1.05,34.26-10.77,9.35-13.41,16.69-30.2,11.85-46.93ZM177.77,303.41l-.96.97c.66-1.65-.8-2.16-2.22-2.56-3.33.12-5.23-.86-5.69-2.92.68,1.37,2.32,1.59,4.91.66l1.29.07c3.35,2.86,6,4.39,8.98-.07.25,3.43-3.5,4.79-6.31,3.85Z"/>
        <path class="cls-4" d="M295.44,307.42c-18.16,29.26-43.25,61.17-71.23,81.8-8.53,6.29-18.33,12.39-29.14,7.66,1.01,4.16,4.58,6.32,8.51,7.3,11.21,2.8,30.77-.9,41.68-4.86,1.75-.63,9.37-3.43,10.24-4.22,1.87-1.69.9-12.52,4.64-14.37l39.01-25.51c1.12-1.47-.95-6.99-1.21-9.23-1.74-15.49.32-31.05,1.75-46.48-1.71,2.16-3.71,5.2-4.25,7.91Z"/>
        <path class="cls-4" d="M208.45,435.21c-.55,3.73-2.51,7.95-5.47,10.35.08-3.38.03-6.99-1.03-10.24-.34-1.04-1.61-2.99-2.63-1.93-.34.36-1,8.17-1.4,9.86-.89,3.78-1.41,5.62-3.68,8.79-.34.48-1.39.64-1.86,1.4-.37.6.26,2.5-.97,2.46-.18-3.02,1.26-5.83,1.27-8.82,0-4.24-2.3-8.65-1.52-12.8l-3.09-3.93-25.25,23.44c-.19.86.46,1.03,1.04,1.38,3.49,2.09,10.61,3.48,13.51,5.95,1.73,1.47,2.3,5.55,4.31,7.56l1.21,6.08c-4.72.99-4.51-3.89-6.41-6.66-2.62-3.83-7.79-5.06-11.84-6.72-1.61-.66-3.59-2.48-5.65-2.36-3.16.81-15.9,20.4-18.34,24.3-4.9,7.84-9.34,16.33-14.33,24.31h0c-5.16,8.23-11.34,16.07-14.3,25.55-1.41,4.5-.42,6.87,2.43,10.36,6,7.34,17.44,9.7,26.47,10.34.58.04,1.5.6,3.04.61,18.77,1.26,37.18-3.87,52.34-14.89,12.84-24.07,28.13-46.62,42.56-69.7.74-1.18,7.81-11.68,7.3-12.17-3.64.82-7.32,2.21-10.95,3.04-8.91,2.04-21.06,3.09-28.8,8.01-3.21,2.04-5.19,5.79-10.13,4.77-.17-1.54,2-2.13,3.04-3.04,9.99-8.69,11.31-7.31,23.25-11.13,8.1-2.59,16.32-5.38,24.26-8.16.31-.64.39-1.34.55-2.01,1.17-4.74,2.57-13.74,2.96-18.64.1-1.3.13-2.58.07-3.88-5.27,2.16-10.35,4.99-15.81,6.69-8.4,2.62-17.54,3.28-26.15,1.82Z"/>
      </g>
      <g>
        <path class="cls-5" d="M216.36,197.28c18.89-1.06,37.72-2.5,56.32-6.03,3.93.22,4.92,10.73,5.12,13.64.53,8.09,1.04,25.83-.03,33.42-.48,3.38-9,12-12.13,13.73l-.61,1.68c-6.57,2.04-13.13,4.08-19.68,6.14l-1.61-.51c-4.7.8-.66-3.4,2.73-4.06l10.11-3.62c17.4-5.39,16.84-21.7,15.21-36.66l1.15-1.3-1.27-1.45c.34-5.2-.08-10.21-1.28-15.04-4.33.27-8.6.82-12.86,1.65l-1.02-.98-.44,1.26c-11.14,1.04-22.29,2.09-33.46,3.14-.91-1.04-2.59-1.29-5.03-.75-.89.3-1.79.58-2.71.78s-1.8.37-2.7.39c-19.69.5-39.41.77-59.11.79-1.88-.19-3.69-.64-5.44-1.36-.11.54-.32.52-.61,0-5.96,1.65-13.76,1.78-19.47-.61-1.9,1.77-6.99.85-8.52-1.22-.67-1.81.21-2.24,1.22-.61,2.14-.74,4.67-.72,7.6.06l22.6.58c-.38-.2-.11-.42.83-.64,22.01-.12,43.36-.79,64.05-1.99l1.04-.44Z"/>
        <path class="cls-5" d="M97.12,194.23c.35,1.23-.01,1.94-1.22,2.43-.73,1.57-2.74.71-3.93.03l-1.17.79.24,21.7c.49,10.34,1.62,20.86,3.04,31.04l1.46.46c2.42,4.34,6.47,7.14,12.15,8.41l.39,1.48c1.35-.17,2.71.15,4.1.97.49-1.06.94-.78,1.37.86,1.57-1.31,4.75.53,4.87,2.43,3.74,2.29,11.02,3.56,16.43,3.65l.65-1.16,8.59.58c2.92-2.16,4.3-2.17,4.15-.02-8.56,6.24-14.52,4.39-24.46,2.25-12.03-2.59-32.31-9.17-36.34-22.06-3.24-10.34-4.29-40.78-3.01-51.63,1.32-11.15,7.27-3.83,12.71-2.2Z"/>
        <path class="cls-5" d="M228.52,266.65l.59-1.37c3.41-.6,6.75-1.22,9.56-3.39l1.41.51c2.49-.49,2.4,3.62,0,3.65-1.58,2.31-12.48,4.06-15.7,4.68-8.07,1.55-21.09,4.03-29,3.23-12.17-1.24-23.14-19.17-39.25-12.16-2.39.22-.62-.81-.61-1.22.71-3.17,6.63-3.23,9.58-3.17,4.1.08,8.26,1.13,11.97,2.88,12.06,8.51,22.51,11.72,37.15,8.02,4.95-1.08,9.45-1.75,14.3-1.64Z"/>
        <path class="cls-5" d="M240.08,266.04c.59-.87.81-2.82,0-3.65-.79-1.82,2.02-3.85,3.65-3.04,6.07-3.56,15.48-3.75,21.9-7.3,1.49,2.05-.35,4.44-1.81,5.8-2,1.88-16.75,7.18-20.08,7.92-1.23.27-2.41.4-3.67.28Z"/>
        <path class="cls-5" d="M120.24,197.28c2.59.46,3.05,3.16,0,2.43-.88-.13-.82.05-1.22.61-1.03,1.42-6.33,2.69-7.3.61l-.97,1.11c-3.38-.52-6.74-1.32-10.05-2.15l-.54-1.4c-1.97.9-3.39-.51-4.26-1.83-.25-1.26.11-1.88,1.22-2.43,5.9,1.77,16.75,2.64,23.12,3.04Z"/>
        <path class="cls-5" d="M216.36,197.28c.34,1.84-.93,1.17-2.1,1.22-20.94.83-42.11,1.68-62.99,1.22-3.28.87-8.91,1.06-11.86-.61-.01.3-.05.58-.18.81-.26.45-9.29,0-10.36-.09-.15-.01-.28-.33-.4-.72-.04.9-5.98.39-6.23.17-1.31-1.15.75-2.42,2.28-1.38,30.62,2.11,61.31,1.1,91.86-.61Z"/>
        <path class="cls-5" d="M124.5,197.88h-1.82s0,.6,0,.6c1.8-.66,4.64.61,5.78.61h10.95c3.64,0,8,.52,11.86.61.34,1.84-.93,1.17-2.1,1.22-9.01.36-18.34-.46-27.45-.59-.81-.01-1.3-.6-1.47-.63,1.88-.78.86-1.14,0-2.43,1.35.09,3.41-.5,4.26.61Z"/>
      </g>
      <g>
        <path class="cls-5" d="M406.16,121.82c7.28,15.92,12.16,34.06,20.58,49.09,2.26,4.03,5.32,7.62,7.4,11.76l-8.8-6.7c-12.65-12.07-17.91-26.94-22.83-43.19-.47-1.56-1.38-3.37-1.83-4.87-3.48-11.79-5.52-23.89-10.34-35.3.46-1.35,1.38.9,1.54,1.2,4.82,9.34,9.91,18.45,14.28,28.01Z"/>
        <path class="cls-5" d="M310.64,82.26l-9.72-10.65c-6.93-5.27-14.53-9.66-22.3-13.6l-16.03-6.77c3.14.31,6.56-1.68,9.52-1.79,10.03-.37,35.33,14.66,37.77,24.76.57,2.34.67,5.61.76,8.06Z"/>
        <path class="cls-5" d="M403.73,252.04c1-10.22,1.53-20.49,2.43-30.73,1.11-12.71,3.07-23.38,2.42-36.51-.25-5.08-1.3-10.25-1.75-15.3-.06-.68-.56-2.18.53-2.05.88,3.79,2.98,6.89,4.28,10.63,7.51,21.65,6.19,44.26-2.95,65.23-1.23,2.83-2.92,6.5-4.97,8.72Z"/>
        <path class="cls-5" d="M341.65,170.47c-.15.16-3.44.17-4.22,1.24,1.61-12.1,1.2-24.31,1.22-36.51l2.25,5.95c1.81,3.41,1.87,28.13.76,29.31Z"/>
      </g>
      <g>
        <path class="cls-5" d="M58.19,626.9c-.44,1.97-.49,12.05-1.28,12.71-.44.37-2.73-.09-3.59.07.07-1.55.16-12.33.61-12.79.19-.2,3.44.14,4.26,0Z"/>
        <path class="cls-5" d="M72.17,494.85c1.39,1.04,1.68,8.85.65,10.53-.33.54-2.19,1.09-1.86,1.62l1.82,1.84-3.69-1.56c.82-.87.12-14.64,3.07-12.44Z"/>
        <path class="cls-5" d="M178.49,716.51c1.21,1.18.59,7.67.76,9.59h-3.66c.8-2.6-1.17-7.26-.53-9.34.42-1.37,2.83-.82,3.42-.25Z"/>
        <path class="cls-5" d="M59.4,617.17c-1.53,4.65,1.66,9.05-5.47,7.9.83-2.57.63-5.24.6-7.91h4.87Z"/>
        <path class="cls-5" d="M176.81,668.89c-.71-.44-3.65-.77-3.65-1.52v-8.82c.72-.1,3.65.99,3.65,1.52v8.82Z"/>
        <path class="cls-5" d="M177.42,679.84c-.8-.14-3.32.26-3.62-.03-.46-.45-1.4-9.37.29-9.7,3.76-.75,2.54,7.45,3.33,9.73Z"/>
        <path class="cls-5" d="M66.71,555.1l-1.82,1.22c-.21,1.25,1.74.1,1.83.92s-.96,6.05-1.24,7.3c-.17.75.45,1.1-.82.84-.64-.13-2.52-.77-2.65-1.41-.31-1.62,1.81-7.29,1.66-9.48l3.04.62Z"/>
        <path class="cls-5" d="M176.81,657.94c-5.11,2.4-4.25-8.57-2.67-9.09,4.8-1.57,2.1,6.62,2.67,9.09Z"/>
        <path class="cls-5" d="M178.57,704.25c.29.35-.48,7.76.07,9.07-5.69,1.31-3.1-6.19-3.65-9.74.13-.13,3.46.53,3.58.67Z"/>
        <path class="cls-5" d="M63.05,592.83c-1.38.86-.16,3.88-.61,4.87h-.6c-.11-.56.13-1.37,0-1.82-.55-1.76-3.17-.78-3.61-2.2-.27-.88,1.23-4.76.57-6.32,4.81-.07,4.16,1.73,4.26,5.48Z"/>
        <path class="cls-5" d="M59.4,607.43c.84,2.64-.41,5.04,0,7.91-.72.17-4.23-.48-4.3-.96.74-1.22.4-6.71.65-6.95.2-.2,2.91.14,3.65,0Z"/>
        <path class="cls-5" d="M62.99,584.85c-.44.37-2.73-.1-3.58.06.43-1.24.93-8.19,1.24-8.49.36-.34,3.26-.18,3.58.96.1.36-.95,7.22-1.24,7.46Z"/>
        <path class="cls-5" d="M177.43,682.28c.17,2.63-.54,5.45.6,7.91-6.55,1.82-3.71-3.43-4.26-7.91h3.66Z"/>
        <path class="cls-5" d="M178.03,701.75c-.68-.32-3.48-.51-3.61-.64-.79-.81.96-6.92.57-8.49,5.03-.84,2.46,5.86,3.04,9.13Z"/>
        <path class="cls-5" d="M54.46,680.54c.56.9-.24,5.71.08,7.22h-3.66c.32-1.52-.48-6.32.08-7.22.37-.59,3.12-.6,3.5,0Z"/>
        <path class="cls-5" d="M52.72,650.63c4.3-1.89,3.62,7.95,2.07,8.47-4.21,1.41-1.28-6.15-2.07-8.47Z"/>
        <path class="cls-5" d="M55.67,648.73c-.61.37-2.12-.04-2.95.08.27-2.82,1.14-5.09,0-7.9,4.94-2.31,4.08,7.13,2.95,7.82Z"/>
        <path class="cls-5" d="M58.8,605.61c-.49-.26-1.97.32-2.39-1-.31-.97.79-5.04,1.17-6.31,2.98.4,4.9,6.59,1.22,7.3Z"/>
        <path class="cls-5" d="M64.18,573.88c-.61.37-2.12-.03-2.96.09l.61-7.31c4.65-1.53,3.29,6.65,2.34,7.22Z"/>
        <path class="cls-5" d="M69.07,534.95c-.41.34-2.22-.06-2.98.07-.33-2.74.58-5.31,1.23-7.91,3.82-.31,2.53,7.2,1.75,7.84Z"/>
        <path class="cls-5" d="M54.51,670.75c.33.32-.17,6.09.03,7.28h-3.05s0-7.91,0-7.91c.68.63,2.87.5,3.01.64Z"/>
        <path class="cls-5" d="M70.87,519.28c.56.9-.04,7.2-2.55,6.53-2.64-.71-.34-5.29-.4-7.23.24-.21,2.76.39,2.95.7Z"/>
        <path class="cls-5" d="M67.92,516.15l1.51-7.29c3.06,1.45,3.08,3.83,2.03,6.89-.56,1.63-2.12.13-3.54.4Z"/>
        <rect class="cls-5" x="52.1" y="660.98" width="3.05" height="7.31"/>
        <path class="cls-5" d="M67.92,546.58c-1.27,3.27.96,8.26-4.26,6.06.98-2.89-.17-7.65,4.26-6.06Z"/>
        <path class="cls-5" d="M68.53,536.84l-.28,6.12c-.41.83-3.23.06-3.34-.06-.2-.23.36-5.84.58-6.05.16-.17,2.37.11,3.05,0Z"/>
      </g>
      <g>
        <path class="cls-3" d="M197.5,334.81l-.32.61,3.35.3c-2.27,2.54-4.09,5.48-7.3,7-5.54,4.45-16.62,4.06-23.43,2.95-4.42-.72-7.14-1.27-9.42-5.38-1.53-2.14-3.63-3.83-4.2-6.46-.36-1.68,1.61-.37,2.34-.9.25-.18-.07-.98.03-1.16-.22-.24-.41-.48-.49-.76-1.26-4.64,10.37-1.05,12.33-.42,8.32-1.56,14.75-1.08,22.74,2.21,2.21.11,3.66.78,4.35,2.01Z"/>
        <path class="cls-9" d="M193.85,326.89c4.36,2.99-.08,3.9-3.3,2.93l-6.26-1.71c-8.46.62-16.86.38-25.2-.72l-1.13-1.1c-3.7-1.44-.62-6.8,1.84-7.56,5.02-1.56,5.76,2.42,10.01,2.12,2.76-.2,4.99-3.04,6.7-3.04.75,0,7.48,2.91,8.63,3.5,2.8,1.46,5.75,3.96,8.71,5.58Z"/>
        <path class="cls-11" d="M157.96,326.29c6.04-.76,8.33.88,13.66,1.24,4.22.28,8.36-1.07,12.79-.62,3.67.37,7.12,2.88,10.65,1.81l-1.21-1.82c1.6.87,9.77,4.19,10.08,4.85,1.11,2.36-4.85,3.12-6.43,3.06-5.15-.21-13.13-4.15-17.34-4.13-3.27.02-6.2,1.47-10.34,1.08-4.5-.42-8.64-4.58-11.26,0-4.09,2.4-9.64-3.39-4.23-5.13,1.51-.48,2.36-.19,3.62-.35Z"/>
        <path class="cls-2" d="M160.39,340.28c1.28.32,1.46,1.94,2.27,2.49.33.23,6.93,1.66,7.77,1.76,6.18.71,17.22.83,22.81-1.82-5.81,9.02-24.15,8.55-30.73,1.23-1.18-1.31-1.43-2.7-2.12-3.66Z"/>
      </g>
      <path class="cls-15" d="M176.81,304.38c-.39-.15-1.06-.93-2.07-1.26-1.69-.54-4.78-.44-5.86-1.47-1.26-1.21-.04-1.96.02-2.75,2.1.43,4.24-.91,6.24-.51,2.45.49,3.69,4.5,6.58,2.08,1.14-.96,4.53-6.88,3.58-.09-.58,4.17-4.89,5.33-8.49,4Z"/>
      <g>
        <path class="cls-5" d="M335.6,390.49c-13.83,15.9-35.51,40.75-54.15,50.81,1.21.08-.86,1.07-1.85,1.42l-1.8.4c-.49-.16-1.66.8-1.82.61-.29-.82.52-1.4.6-1.82.67-.73.87-1.31.68-1.54.15-.25.2-.56-.07-.89,2.77-3.54,6.06-7.84,8.52-11.56,3.9-5.9,5.51-11.18,8.6-17.26,3.64-7.17,8.41-14.65,11.58-21.88,3.09-7.05,4.8-15.11,8.4-22.02-.49-.93-1.05-.05-1.52.31-3.6,2.71-7.59,6.02-11.25,8.52-2.61,1.78-5.75,3.04-7.91,5.48l-19.98,10.44-1.92,26.68c-2.81,14.93-5.12,30.21-9.75,44.71-.29.9-.87,1.36-1.2,2.14,1.05.27,1.22-.42,1.83-.9,7.66-6.04,15.01-12.89,22.5-19.17,13.94-11.68,28.16-23.15,41.03-35.93,6.35-6.31,13.88-10.73,11.89-21.27-1.68-.37-1.41,1.57-2.43,2.74Z"/>
        <path class="cls-5" d="M265.32,490.6c-4.04-4.7-7.78-9.68-11.55-14.6-.41,0-4.54,6.02-4.86,6.7-1.37,2.98,1.14,2.7,2.51,3.86,6.77,5.74,21.9,21.19,26.38,28.38.13,1.29.12,2.22-.57,3.38-.7,1.17-4.88,5.9-6.1,7.29-13.36,15.14-30.86,29.8-46.25,42.89h0s0,0,0,0c-14.07,11.96-26.69,22.56-37.72,37.73,0,0,0,0,0,0-9.23,12.69-14.49,25.24-13.39,41.38h3.66c-.53-9.28,3.42-17.01,7.3-24.95,10.5-17.29,25.06-32.28,40.15-45.64,0,0,0,0,0,0,6.03-5.34,12.28-10.47,18.25-15.82,7.8-6.99,15.54-14.04,23.12-21.3,6.7-6.41,15.89-14.16,20.68-21.91.17-.27,1.11-.14.97-1.24-.15-1.11-1.29-2.6-1.93-3.57-4.67-7.02-14.73-15.68-20.64-22.56Z"/>
        <path class="cls-5" d="M340.12,333.02c-3.01-4.24-20.17-9.41-25.52-9.77-2.89-.2-8.72-.96-9.42,2.42,6.01.89,28.58,5.03,30.33,11.4,1.45,5.28-12.36,13.35-16.34,15.99-4.06,2.69-8.51,5.94-12.83,8.16-3.5,1.8-8.78,2.17-11.5,5.84-3.13,1.72-6.93,3.91-9.13,6.69l-20.08,10.95c-1.04.44-1.37,1.27-1.67,2.28-1.63,5.49-1.72,14.78-2.59,20.84h0c-.02.12-.48.47-.55.98-2.5,17.41-3.76,35.14-9.18,51.96-.82,0-5.6,12.84-6.7,14.9-2.56,4.79-5.8,9.25-8.62,13.89-14.68,24.14-29.83,48.2-42.58,73.64-8.82,17.59-17.29,35.98-19.35,55.79,4.2-5.52,7.19-12.02,11.3-17.6,15.83-21.51,42.81-39.83,62.29-58.79,8.42-8.2,16.98-16.44,24.51-25.43l-27.55-29.61c-1.87-.58-.6,1.2-1.81,1.2.98-5.06,5.64-9.01,8.4-13.19,2.05-3.09,4.19-6.55,5.58-9.93h0s0,0,0,0c3.99-9.68,10.83-43.11,10.95-53.55h0s0,0,0,0c-.38-5.96,2.29-12.38,1.82-18.26-.11-1.23-.03-2.34.46-3.49,1.32-3.09,12-7.94,15.36-9.9,3.83-2.23,6.96-3.89,10.34-6.69,4.55-2.04,10.41-5.6,13.99-9.13,9.56-3.31,17.16-10.06,24.98-16.09,2.1-1.61,5.76-2.25,6.53-5.64.6-2.64.16-7.63-1.43-9.87Z"/>
        <path class="cls-5" d="M338.66,350.4c-.83.76-1.58.2-2.71,1.45-9.92,10.93-6.05,29.81-12.52,42.59l8.8-6.1c.87-.8,3.59-3.19,3.85-4.06.91-3.08-.18-10.5.2-14.41.67-6.94,3.4-14.64,4.18-21.67-.96.1-.97,1.45-1.8,2.21Z"/>
      </g>
      <g>
        <path class="cls-5" d="M130.59,448.6c7.83-21.4,12.6-44.07,12.76-66.94l-6.84,19.01c-1.24,6.18-2.75,12.14-4.71,18.11-.92-.09-.94-.91-1.18-1.55-1.72-4.61-2.99-19.3-2.4-24.24,1.11-9.34,8.3-19.01,11.49-27.75-3.4-1.32-5.61-.5-8.73.69-12.55,4.79-30.51,16.67-41.76,24.25-2.83,1.9-5.83,3.74-8.71,5.59-1.43.92-3.48.69-2.75,2.53,3.95,4.73,8.39,9.11,12.39,13.79,5.31,6.21,14.76,19.93,20.37,24.35,5.65,8.98,13.87,16.59,16.12,27.38,8.34-10.69,17.36-20.9,23.42-33.17-.54-.95-1.37.2-1.89.54-7.01,4.61-12.4,10.91-17.57,17.41Z"/>
        <path class="cls-5" d="M102.6,487.55c-2.26,1.55-5.23,2.55-7.3,4.26-1.22-.08-2,.35-3,.95-5.1,3.05-9.85,7-15.17,9.79-3.01,22.97-5.92,45.97-8.6,68.98-.32,2.74-1.1,5.51-1.22,8.52.36,1.63.56,3.25.61,4.87,3.24-3.23,7.22-15.64,10.03-20.7,1.04-1.87,2.3-3.59,3.36-5.47,11.1-19.76,22.91-39.84,33.18-60.22,4.83-9.58,9.15-19.57,13.05-29.55l-27.95,18.3c-1.55,2.33,1.75-.94,3.01.27Z"/>
        <path class="cls-5" d="M93.47,430.35c2.16,2.75,3.99,5.74,6.08,8.52h0s0,0,0,0c4.44,5.91,14.88,18.26,17.16,24.52.7,1.92.37,3.46-1.34,4.69-3.26,2.33-9.06,5.63-12.78,7.91h0c-7.33,4.5-15.52,8.94-23.1,13.1-1.06.58-7.06,2.54-6.08,3.9.06.09,1.09.16,1.5.62,1.05,1.19,1.72,2.7,3.04,3.67l33.15-22.5s0,0,0,0c2.27-1.4,5.13-2.43,6.69-4.87,1.39-.7,4.28-2.51,4.75-4.09,2.03-6.83-13.22-24.01-17.53-29.38h0c-2.96-3.69-6.06-7.34-9.13-10.95-4.02-4.74-8.05-9.34-12.17-14-2.09-2.36-11.49-12.01-12.05-13.84-.13-.43-.3-.86-.03-1.29,9.93-7.5,20.11-13.51,30.94-19.55,2.36-1.32,4.94-2.33,7.3-3.65,6.34-3.57,12.7-7.36,18.86-10.95,1.85-1.08,3.65-1.67,5.09-2.52,3.53-2.09,6.79-5.8,11.31-6.03-.11-9.56-10.67-.29-14.58,1.85-7.33,4.01-14.6,8.11-21.9,12.17-3.25,1.81-6.49,3.66-9.73,5.48-9.88,5.54-20.56,10.58-30.22,16.33-3.61,2.15-7.73,3.84-4.73,8.6,7.04,8.24,14.99,15.68,22.18,23.76,2.49,2.8,4.97,5.56,7.3,8.52Z"/>
      </g>
      <g>
        <path class="cls-5" d="M288.14,185.71c-16.51-.49-32.65,3.93-48.98,5.48-13.68,1.3-29.44,2.07-43.16,2.47-13.67.39-27.42-.34-41.09-.03,3.1-2.51,9.75-6.84,13.69-7.3,7.12-.82,16.3.24,23.75.03,20.55-.59,41.47-1.23,62.02-2.47,8.53-.51,17.69-2.2,26.13-2.45,4.21-.13,5.79.2,7.64,4.28Z"/>
        <path class="cls-5" d="M291.18,189.36c1.15,13.39,1.79,26.87,1.83,40.34-3.57,3.62-6.8,7.41-11.56,9.56-.44-16.01,1.07-32.2-1.23-48.07l10.95-1.83Z"/>
        <path class="cls-5" d="M337.42,175.98c.09.09.28,2.27-.39,2.45-10.98,1.13-21.83,3.5-32.78,4.83-1.78.22-13.21,1.74-13.68,1.24-.38-.41.97-3.55-1.21-3.06l8.28-1.75c11.63-1.1,22.97-2.69,34.63-3.09.97-.03,4.76-1.03,5.15-.63Z"/>
        <path class="cls-5" d="M343.98,175.5c.27.15,1.21,2.14,1.31,2.64,1.01,5.04,1.77,15.02,1.25,20.05-.31,3.02-1.61,4.97-4.86,5.17-.1-5.62.83-11.11.63-16.76-.08-2.29-.37-6.24-.67-8.46-.15-1.11-.75-1.82-1.18-2.77,1.03.14,2.68-.35,3.52.13Z"/>
        <path class="cls-5" d="M337.41,197.28c.1.81-.07,1.56-.45,2.28-1.61,3.07-16.74,6.65-20.22,9.28.5-2.2-2.01-6.98.6-8.22,1.98-.95,8.11-.58,10.59-.97,3.21-.51,6.31-1.75,9.49-2.37Z"/>
        <path class="cls-5" d="M154.91,183.89c-1.81,1.95-6.66,7.72-8.95,8.38-2.45.71-7.35.1-9.9-.49l8.33-7.17c3.56-.58,7.08.08,10.52-.73Z"/>
        <path class="cls-5" d="M307.61,205.19c.24,6.5-5.62,5.5-10.34,6.08-1.55-6.06,6.33-4.34,10.34-6.08Z"/>
        <path class="cls-5" d="M136.66,183.29c-1.55,1.33-3.53,6.96-4.86,7.6-1.81.87-5.24,0-7.3.29.72-2.32,10.66-9.05,12.17-7.9Z"/>
        <path class="cls-5" d="M288.75,196.67l1.7,27.69c-.29,2.37-.51,4.36-2.61,5.77l-2.13-31.31c.27-1.57,1.5-2.36,3.04-2.14Z"/>
      </g>
      <g>
        <path class="cls-18" d="M95.9,464.73c-6.58-.55-13.13,3.62-20.07,2.74-1.47-4.56,2.66-8.11,3.64-11.27.27-.85-.03-1.06-.86-.87-2.78.64-8.98,3.76-11.43,5.44-1,.68-9.12,7.56-9.45,8.09-.38.6-.04,1.49-.15,1.65-.32.48-1.23.58-1.87,2.08-3.02,7.1-4.24,18.26-3.61,25.91.81,9.78,4.25,20.38,5.48,30.13.1.83.43,1.93,1.21.9-.37-13.15,3.61-25.71,5.4-38.59,2.91.03,2.4-1.59,3.73-2.46,4.62-3.03,9.89-5.23,14.27-8.86,5.21-4.3,8.65-10.43,13.7-14.89Z"/>
        <path class="cls-18" d="M15,656.72c-.75,4.7-2.69,9.1-4.37,13.58,2.36,1.17,4.73,2.31,7.1,3.45-.27-3.77-.61-7.34-.91-10.03-.22-2-.28-5.92-1.82-7Z"/>
        <path class="cls-18" d="M55.75,561.18l2.97-14.37c-.24-1.9.46-3.75.61-5.48.06-.68.56-2.19-.53-2.05-1.31,6.09-6.23,9.81-9.29,15.41-5.38,9.83-13.78,19.29-18.7,29.62h0c-11.82,24.77-7.76,62.49-4.41,93.59,2.4,1.13,4.8,2.23,7.21,3.33-1.36-9.33-3.23-19-4.01-27.86-1.69-19.26-.35-38.21,0-57.5l3.65-1.82c-1.88,5.45,4.73,9.55,5.41,15.03.14,1.15-1.18.69-1.15,1.06.23,2.72,3.01,11.71,3.96,14.93,1.38,4.72,3.6,9.15,4.57,13.99l1.84-14.88c.94-3.26-.87-6.48-1.24-8.85-.12-.76.12-1.67,0-2.43l1.21-.61c.76-12.51,6.16-26.03,6.7-38.33l-.16-1.42c1.32-3.95.77-5.71-1.66-5.27,1.49-.48,1.5-1.67.49-1.9,1.64-.48,2.98-2.63,2.55-4.19Z"/>
        <path class="cls-18" d="M28.96,571.85c.1.91.13,1.88,1.23,2.11.55-4.02,1.76-7.93,2.36-11.94.34-2.29-.1-4.67.24-7.06,1.03-7.24,2.39-7.55,2.27-16.29-.08-6.35.76-11.83-1.22-17.65.35-11.96,5.27-22.01,9.13-32.86l-.02,19.19c1.47,11.2,1.07,24.23,7.93,33.75-.35-3.54-1.89-7.25-2.36-10.71-2.12-15.5-1.65-33.09-.68-48.63.15-2.32-.08-4.67,0-6.99,1.03-2.82,1.49-5.89,3.04-8.52h0s0,0,0,0c2.93-4.98,3.66-1.48,5.44-2.1,3.3-1.14,8.97-6.32,12.39-8.37,7.18-4.31,15.4-7.06,22.33-11.13.73-.43,3.37-1.51,3.03-2.44-.14-.38-1.2-1.33-1.64-1.44-1.29-.31-11.85,4.33-13.98,5.27-6.14,2.72-25.44,11.89-28.79,16.54h0c-13.71,19.04-18.36,45.25-19.47,68.16,0,.08-.58.16-.63,1.48-.26,6.34-.14,13.45.02,19.82-1.01.63-.61,2.31-.62,3.34-.06,4.92-.53,11.8-.01,16.46Z"/>
      </g>
      <g>
        <path class="cls-13" d="M334.38,552.05l1.21.78c-2.82,8.42-5.71,17.04-9.3,25.18l-1.64.2c.09-2.14-.3-.99-1.2-.29-11.13,8.6-30.87,13.07-44.4,18.27-4.63,1.78-9.21,3.72-13.75,5.72-4.89,8.67-7.4,18.97-11.71,27.84-.51,1.06-1.51,3.03-2.29,3.79-3.43,3.35-14.72,5.41-18.93,9.36-2.7,2.52-3.48,11.18-6.88,14.72-1.44,1.5-6.63,4.85-8.67,4.48-1.48-.27-10.37-8.81-12.02-10.54-.91-.96-5.13-5.45-5.5-6.08-1.09-1.85-.14-2.95,1.3-4.24,4.26-3.84,19.36-10.76,21.51-14.39,5.33-11.44,7.81-27.26,13.63-38.09,4.07-7.58,19.62-10.12,27.64-13.12,7.25-2.71,15.06-5.78,21.74-9.59.53-.53,1.07-1.03,1.66-1.48s1.16-.84,1.79-1.12c10.13-4.41,20.7-8.24,31.22-11.4,2.16-.81,11.05-4.41,12.46-4.3s2.07,3.03,2.14,4.3Z"/>
        <path class="cls-5" d="M230.96,633.6c4.13-2.17,8.59-3.91,12.19-6.97,4.42-9,7.35-20.86,11.83-29.55.45-.87.97-1.91,1.81-2.45,2.22-1.45,11.17-3.73,14.47-5,17-6.52,33.94-13.18,50.53-20.66.49-.22,1.28-1.04,1.64-.19-1.83,2.32-1.78,6.74-4.29,8.49l-50.62,18.74c-6.9,2.9-6.55,3.9-9.68,10.4-3.78,7.84-6.2,16.33-10.4,23.98l-19.64,9.87c-2.06,3.45-5.49,16.38-9.84,17-1.27.18-3.37-1.79-4.43-2.66-1.55-1.27-9.58-8.6-10.35-9.73-.35-.51-.84-.63-.59-1.52,7.01-3.63,13.33-8.49,20.72-11.39l14.09-39.91c1.64-4.67,6.63-6.34,10.83-8.04,10.34-4.18,21.8-7.37,32.38-11.42,16.09-6.16,31.79-13.36,47.9-19.32.55.72-3.37,9.28-5.44,9.46-25.73,10.4-51.45,20.8-77.62,30.07-6.6,12.94-10.33,27.23-15.49,40.79Z"/>
      </g>
      <g>
        <path class="cls-8" d="M318.41,268.59c5.58-.5,7.23,9.32,1.4,11.18-8.2,2.61-8.09-10.58-1.4-11.18Z"/>
        <path class="cls-6" d="M331.33,263c-1.88,2.98-4.32,5.42-7.29,7.3-1.29-1.64,6.35-8.07,7.29-7.3Z"/>
        <path class="cls-5" d="M316.88,272.26c1.27-1.28,4.86-.76,4.73,1.94-.28,5.61-8.83,2.2-4.73-1.94Z"/>
      </g>
      <g>
        <path class="cls-13" d="M178.08,479.05c3.38.54,14,1.7,14.57,5.8.2,1.42-4.54,11.78-5.58,13.87-.89,1.79-3.97,8.42-5.76,8.76-1.02.2-9.54-1.6-11.05-2.12-2.93-1.02-4.02-1.5-2.84-5,1.42-4.2,6.3-10.8,8.5-15.23.92-1.86,1.78-4.04,2.16-6.08Z"/>
        <path class="cls-5" d="M179.1,500.78c-1.17,1.14-5.66.76-5.26-.68,1.25-4.48,4.84-8.59,6.59-12.89,5.41-2.32,6.13-.84,4,4-.47,1.06-4.93,9.19-5.32,9.57Z"/>
      </g>
      <g>
        <path class="cls-5" d="M487.68,561.18c-1.45-2.33-5.11-6.97-6.99-9.14-.79-.91-4.11-4.47-4.84-4.89-2.97-1.73-12.3,2.05-16.12,2.19l-14.66,11.65c-1.22,1.98.44,5.69,1.09,7.95,2.71,9.57,7.31,18.83,9.87,28.51.47,4.69-3.62,3.9-2.85,10.12.45,3.68,2.43,13.79,3.52,17.16.35,1.09.47,2.02,1.55,2.71,3.13,2.01,22.2.1,27.01.37.87-.64,1.41-1.54,1.69-2.57,2.21-8.17,2.59-19.66,3.96-28.3.42-2.64.94-6.06,2.27-8.38-1.17-5.89-3.1-23.57-5.47-27.38ZM482.78,623.83l-23.12-.23-2.84-17c.29-2.61,4.54-3.2,4.07-7.92-1.82-10.63-9.46-23.16-11.27-33.21-.15-.84-.58-1.63.03-2.45,3.74-2.04,7.27-6.75,10.84-8.65,1.69-.9,9.88-3.16,11.85-3.42.8-.1,1.16-.18,1.95.19,2.4,1.11,10,14.11,12.46,16.77.92,4.76-.46,9.07,1.19,13.74.06.18,1.25.28,1.01,1.1l-6.16,41.08Z"/>
        <path class="cls-5" d="M468.82,595.86c1.6-3.85,15.04-23.24,7.47-25.46-.49-.14-8.95.45-10.14.59-1.1.13-3.59.49-3.95,1.53.86,5.01-1.53,22.28.22,25.79,1.13,2.26,10.56,2.36,13.08,3.04.02.89-1.09.77-1.75,1.59-3.37,4.16-3.43,8.46-3.72,13.62,1.61.33,1.05-.4,1.51-1.2,1.23-2.11,9.63-15.79,9.43-16.73-.32-1.47-10.33-2.18-12.16-2.77ZM466.39,575.18c1.07-.03,7.85-1.33,7.92-.3l-2.94,8.01-4.97,9.32v-17.04Z"/>
      </g>
      <g>
        <path class="cls-10" d="M272.93,213.71c-.48-2.03-2.3-2.88-5.47-2.56-4.01-4.11-7.62-8.84-10.96-13.26l-35.82,3.36c-.79-.02-73.44.85-73.68.9-6.48-.23-27.98-1.83-27.98-1.83-3.82-.42-4.2.89-7.3.61-1.23-.03-1.99.84-2.28,2.61-2.79-.89-2.94,5.24-1.68,6.51l3.97,1.35c16.14,3.34,33,10.25,42.54,24.54.44,3.43,1.46,5.56,3.07,6.37-.19.2-.37.47-.61.61-4.29-1.67-7.85-5.59-12.17-6.69,4.16,2.63,6.44,5.07,9.13,9.13h0s0,0,0,0c-.64.92-.26,2.03,1.13,3.33l.18,1.53c-1.21-4.73-4.43-3.66-8.97,1.26-6.72.64-10.48-7.7-12.29-13.08-1.21-1.5-10.54-2-11.23-.71-1.66,3.09,5.99,16.86,10.18,18.21-2.89-1.01-5.49-2.72-7.63-4.92l-1.79-.14.5-1.29c-1.69-1.71-9.35-13.87-8.96-15.29,1.58-.94,2.57-1.91,2.99-2.9h0c7.04-1.09,18.64,2.79,25.55,4.87-9-5.25-18.64-9.44-27.98-13.99,0,0,0,0,0,0-.8-.39-5.51-3.68-6.08-3.04l4.26,43.2c1.43.54,3.47,1.98,4.87,2.43,4.09,2,15.13,3.92,16.43,3.65,1.8.17,8.09.71,9.41.6,1.34-.11,9-6.04,11.88-7.29-.28-.3,10.52-3.51,15.82-2.13,7.52,1.96,13.45,8,20.7,10.33,8.53,2.75,26.78-1.29,35.88-3.33,5.7-1.28,6.64-.81,11.56-4.26,1-.7,3.43-2.91,3.65-3.04,0,0,13.01-5.49,19.42-9.48,13.5-8.41,10.41-22.59,9.78-36.16ZM132.4,231.36s0,.01,0,.02c-.06-.03-.12-.07-.18-.1.06.02.12.06.19.08ZM222.44,201.54l-.19.05s-.06-.03-.08-.05c.09,0,.18,0,.27,0ZM254.79,230.22c-3.72,5.34-8.32,10.19-12.97,14.72.38.28.22.22-.52-.21-1.69.01-2.26,1.24-.61,1.83-.53,1.2-.88,2.46-1.06,3.77l-7.72,3.91-.34,1.44-1.44-.78c-7.08,1.73-14.3,2.6-21.68,2.6.1-1.28-.81-2.26-2.72-2.95.71-3.47-4.29-3.27-6.4-2.52-.89-.85-1.54-.52-2.35.12,2.99-7.22,6.46-13.34,13.96-16.27,2.14-4.69-6.2-1.97-8.25.03-7.48,7.36-1.31-.16,3.1-2.19,12.61-4.15,25.87-5.55,39.8-4.18l1.2-1.23c1.76.94,3.48.93,5.47.61,1.03.72,2.39.49,3.13-.35-.2.55-.43,1.06-.59,1.66ZM255.29,214.92l-1.99-1.21-11.74-.36-2.09.96c-4.99.49-9.08,2.5-13.71,4.78-10.63,5.25-21.15,10.83-30.94,16.9-3.53.2-6.87-1.71-9.46-3.99-2.85-.49-3.02,2.1-.81,3.58.49.41-.06.83-1.66,1.25l.15-1.45c-2.2-1.83-4.19-3.85-5.95-6.05,3.08-.17,4.81-.92,5.19-2.23,13.33-5.66,49.42-17.76,49.42-17.76,8.06,1.14,16.07,2.69,24.06,4.62l-.48.97Z"/>
        <path class="cls-10" d="M241.82,244.95s0,0,0,0c-.05-.04-.08-.06-.16-.12,0,0,.15.13.16.12Z"/>
        <path class="cls-19" d="M110.68,220.92l-.79-15.13,1.83-4.86c-2.53-.23-19.62-4.93-21.29-6.09l.6,24.34c.21,9.08.33,22.49,3.04,31.04,2.06,6.5,8.19,7.84,13.99,10.35,1.79.78,3.68,1.15,5.48,1.83l1.14-.85-4-40.62Z"/>
        <g>
          <path class="cls-5" d="M408.6,173.55l1.26,24.64-1.86,19.78c1.23-.86,2.68-.35,3.83-.63.53-.13.53-1.15.72-1.21,2.48-.79.75,1.61,2.13,1.84,2.48-12.84.76-25.94-3.48-38.19l-2.59-6.22Z"/>
          <path class="cls-16" d="M256.51,197.88c-.25,1.32.22,2.07.81,3.14.75,1.36,8.56,10.49,9.56,11.16.62.41,4.87-.02,6.05,1.52-.27-5.96.31-11.69-1.25-17.61-.55-.53-13.35,1.1-15.18,1.79Z"/>
        </g>
        <path class="cls-10" d="M239.78,236.83c-1.86,1.92-1.51,4.61-2.63,7.1-4.48,9.91-20.15,8.21-21.39-1.99-.19-1.59.78-2.64.3-3.89-1.33,2.19-3.48,1.64-5.52,2.39-5.45,2.03-7.43,8.28-11.22,11.6h0c1.43,1.76,4.79,2.69,5.44,3.34.15.15,3.28,1.97,3.69,2.14,8.61.2,28.86-2.04,32.59-10.24.07-.15-.1-.42-.35-.71.05-.08.59-1.72.61-1.82,0,0,0,0,0,0,.39-2.86-.78-5.25-1.52-7.91Z"/>
      </g>
      <g>
        <g>
          <path class="cls-12" d="M159.17,245.35l-1.22,9.73,2.4.6c-.13-.54.62-1.06.65-1.2.76-3.8-.63-6-1.83-9.13Z"/>
          <path class="cls-12" d="M155.39,235.44c-3.52-7.74-19.35-17.82-27.25-20.82-2.83-1.08-19.47-4.95-20.06-5.81l2.6,12.11c1.97,1.57,23.15,11.13,32.67,15.3h0s-10.45-4.28-10.45-4.28l-.83.49c-4.98-1.54-9.74-1.9-14.27-1.08-1.84.29-4.77,1.43-4.14,3.8.32,1.2,5.07,9.43,6.08,11,.9,1.4,2.44,3.43,3.54,4.67,5.03,5.69,10.71,7.38,18.25,7.9l-5.27-2.32c-7.84-3.38-10.99-10.48-12.97-18.36l9.38.57c1.16,5.47,7.2,15.97,13.91,13.91l5.59-4.74c.88.33,3.09,5.34,3.36,6.69.23-1.36.76-4.93.45-6.31-.15-.67-1.66-1.89-2.27-2.82-.26-1.69-1.05-3.1-2.14-4.32,1.6.99,3.32,1.63,5.18,1.88,1.08.61,1.45.23.61-.61-.43-.68-1.26-5.32-1.96-6.86ZM144.57,236.22h0s0,0,0,0c0,0,0,0,0,0h0Z"/>
        </g>
        <g>
          <path class="cls-12" d="M241.04,247.28c-3.73,8.2-23.98,10.44-32.59,10.24,3.45,1.42,4.32-.05,7.02-.02,7.07.08,8.91.85,16.09-1.8,2.05-.76,8.41-3.72,9.75-5.15.35-.37.77-.62.6-1.23,0,0,2.04-2.45-1.22-2.74.24.3.42.56.35.71Z"/>
          <path class="cls-12" d="M246.77,228.31c-14.22.26-38.43-2.44-48.05,9.45-1.43,1.77-4.87,8.33-5.44,10.39-.31,1.14.29.9,1.15.85,3.59-6.36,7.97-14.73,16.44-14.59-2.07,1.7-4.9,2.35-7,4.25-4.62,4.21-6.57,10.45-9.43,15.81.52.44,4.2-1.84,4.87-2.43h0c3.79-3.33,5.77-9.57,11.22-11.6,2.03-.76,4.18-.2,5.52-2.39.48,1.25-.5,2.3-.3,3.89,1.25,10.2,16.91,11.91,21.39,1.99,1.13-2.49.77-5.18,2.63-7.1.74,2.66,1.91,5.05,1.52,7.91,0,0,0,0,0,0-.19,1.73.37,1.5,1.53.62,2.71-2.06,12.77-12.83,13.57-15.7.46-1.66-.48-2.22-.49-2.57-1.06.68-6.87,1.18-9.12,1.22Z"/>
          <path class="cls-12" d="M184.42,232.57c1.77,2.44,7.83,5.3,10.67,4.6,1.7-.42,7.98-4.95,10.29-6.15,7.92-4.11,16.08-8.64,24.15-12.36,3.34-1.54,6.73-3.28,10.55-3.14,0,0,9.94-.6,15.21-.6h5.47s-5.34-2.26-5.34-2.26c-8.42-.54-16.63-5.48-25.07-4.44-2.12.26-5.65,1.72-7.91,2.43-13.8,4.37-26.89,10.73-40.15,16.43-.99.19-6.72.94-6.71,1.54.11.97.7,1.66,1.24,2.4.49.67,5.55,5.47,6.08,5.79,2.04,1.24,4.07.98,2.73-1.81-.33-.7-2.25-1.48-1.21-2.44Z"/>
        </g>
      </g>
      <g>
        <path class="cls-1" d="M145.7,244.65c-1.33,2.09-3.57-.58-3.62-2.65-.11-4.75,5.25.08,3.62,2.65Z"/>
        <path class="cls-17" d="M232.63,240.94c-2.25,2.39-4.42-1.66-1.93-3.44,3.34-2.38,3.77,1.49,1.93,3.44Z"/>
      </g>
      <path class="cls-14" d="M5.19,660.18c134.66,70.56,312.19,137.48,509.4,0"/>
    </g>
  </g>
</svg>