<?xml version="1.0" encoding="UTF-8"?>
<svg id="Calque_2" data-name="Calque 2" xmlns="http://www.w3.org/2000/svg" viewBox="0 0 541.27 753.57">
  <defs>
    <style>
      .cls-1, .cls-2 {
        fill: none;
      }

      .cls-3 {
        fill: #e8318a;
      }

      .cls-4 {
        fill: #a1595a;
      }

      .cls-5 {
        fill: #323e50;
      }

      .cls-6 {
        fill: #323e4f;
      }

      .cls-7 {
        fill: #e5e240;
      }

      .cls-8 {
        fill: #60c4e3;
      }

      .cls-9 {
        fill: #05080d;
      }

      .cls-2 {
        stroke: #d1a902;
        stroke-miterlimit: 10;
      }

      .cls-10 {
        fill: #c9c6cc;
      }

      .cls-11 {
        fill: #313445;
      }

      .cls-12 {
        fill: #283444;
      }
    </style>
  </defs>
  <g id="garcon">
    <g>
      <path class="cls-9" d="M425.99,371.08c13.34,7.24,26.72,14.52,39.77,22.27,16.35,9.71,33.67,17.35,41.84,35.34,13.4,29.51,18.9,75.53,24,108.08,3.32,21.2,7.49,44.41,9.24,65.66.25,3.02,1.05,7.25-.57,9.72-3,4.57-22.42,16.89-28.07,20.53-53.67,34.59-114.39,64.36-172.81,90.2-20.93,9.26-44.31,20.03-65.84,27.35-15.45,5.26-17.64,4.11-32.13-2.2-28.53-12.42-58.19-27.85-85.96-42.11-40.12-20.6-82.22-42.7-119.44-68.1-8.25-5.63-31.49-21.63-35.25-29.93-2.06-4.56.49-12.9,1.63-17.88,3.27-14.28,8.48-29.13,12.83-43.2,10.01-32.37,20.5-69.74,33.79-100.58,11.43-26.53,19.03-33.21,43.74-47.17,10.38-5.86,21.12-11.29,31.83-16.49-14.81-23.25-24.95-49.83-34.32-75.74-11.51-31.84-25.28-71.03-30.68-104.25-2.58-15.86-1.35-21.03,4.86-35.37,15.81-36.51,54.17-91.06,84.45-116.81C180.73,23.35,228.57,1.52,270.68.07c75.47-2.61,125.39,73.55,139.63,139.41,6.95,32.13,12.39,68.39,16.11,101.1,1.8,15.79,4.56,34.43.83,49.86-3.53,14.6-12.56,28.99-19.62,42.13.04,1.17,16.39,10.37,18.86,13.72,4.73,6.44-1.27,23.75-.5,24.8Z"/>
      <path class="cls-3" d="M286.84,199.6c-2.38-15.01-42.95-54.62-54.43-58.82-11.57-4.23-47.15-14.54-67.29-6.24-11.29,4.66-32.05,18.66-34.08,29.5.06,18.1,108.14,13.13,114.79-.61l41,36.18Z"/>
      <g>
        <path class="cls-9" d="M178.35,226.49c-.68-2.56-1.99-4.94-2.86-7.43-1.87-5.35-4.06-10.59-5.72-16.01-.75.28-1,3.04-1.07,3.78-.18,2.16.21,4.4-.35,6.5-6-2.83-12.53-4.82-18.4-7.9-6.21-3.25-12.56-9.62-20.08-8.37l4.19,19.59,4.84,9.55c1.6.61,3.12,2.47,4.3,3.73.42.45,1.33.46,1.42.55l6.29-1.72c.66,6.9,8.36,14.61,14.87,8.58,0,0,0,0,0,0,1.53-2.07,3.45-4.06,3.44-6.86.8-.12,1.09,1.6,1.11,2.07.09,2.14-1.53,11.69-2.85,13.06-.14.05-.35.15-.56.25l10.87-3.38c1.11-5.49,2.03-10.51.57-16.01Z"/>
        <path class="cls-10" d="M145.95,230.68c1.87,7.95,14.14,13.52,19.82,6.68-6.51,6.02-14.2-1.68-14.87-8.58l-6.29,1.72h0l1.34.18Z"/>
        <path class="cls-9" d="M266.89,219.89c1.62-2.02,3.25-3.08,4.87-3.23-5.49-8.35-17.94-6.61-26.61-5.26l-12.41,2.4c-1.03-.44-.97-1.26-.76-2.3l23.38-13.54c6.14-1.83,12.6-3.09,18.99-2.04-9.46-6.52-22.72-13.57-33.57-6.12-11.1,6.98-22.36,13.57-33.78,19.79-7.38,4.25-13.14,5.75-18.91-1.7-.26,3.36,1.07,6.66,2.85,9.45l-.59,1.13h0c1.44,0,2.85.84,4.23,2.51,1.78.83,2.85,1.9,3.2,3.21,4.83,1.59,11.95,0,17.15.58-.6.77-1.5,3.89-2.29,4,.89-.13,1.35.39,1.37,1.56,1.84-1.68,3.67-2.58,5.49-2.71h0c1.41-1.28,2.36-3.95,4.43-4.42,2.7-.61,5.76.41,8.47-.57.63.12,3.1,8.09,8.58,8.95,6.36,1,10.3-1.38,12.94-7,.56-1.19.91-3.96,1.15-4.28.31-.42,5.14-1.43,6.18-1.82-2.45,5.35-4.84,10.16-9.72,13.72h0s0,0,0,0c6.6-2.56,11-6.87,15.36-12.32Z"/>
        <path class="cls-10" d="M255.07,220.32c-.23.32-.58,3.09-1.15,4.28-2.64,5.62-6.58,8-12.94,7-5.47-.86-7.95-8.83-8.58-8.95-2.71.98-5.77-.05-8.47.57-2.07.47-3.02,3.14-4.43,4.42.95-.33,1.94-1.22,2.97-2.67.13.14.24.25.37.39,7.56,8.04,11.83,9.57,22.03,7.57.56-.11,1.12-.22,1.71-.35.8-.42,1.52-.65,2.2-.77,1.05-.19,1.98-.09,2.74.41,4.88-3.56,7.27-8.37,9.72-13.72-1.04.39-5.87,1.4-6.18,1.82Z"/>
        <g>
          <path class="cls-4" d="M268.42,177.87c-4.01-3.78-17.59-16.52-21.62-18.4-12.16-5.67-51.16,3.86-66.42,4.72-16,.9-28.96-3.1-44.06-4.02-4-.24-4.29.06-5.27,3.87-.68,2.66-2.21,17.24-2.64,26.22h0,0c-.18,3.82-.17,6.64.19,7.07.42-.12.84-.2,1.26-.27,7.52-1.25,13.87,5.13,20.08,8.37,5.88,3.08,12.41,5.07,18.4,7.9.56-2.1.17-4.33.35-6.5.06-.74.32-3.51,1.07-3.78,1.67,5.42,3.86,10.66,5.72,16.01.87,2.49,2.18,4.87,2.86,7.43,1.46,5.5.54,10.51-.57,16.01l6.88.24c2.13.27,4.24.68,6.38,1.09,23.27,4.47,61.05,21.16,83.36,12.68,9.18-3.49,17.93-10.33,25.17-16.86,1.5-1.35,9.05-8.07,9.04-9.32-9.57-19.79-24.26-37.43-40.18-52.45ZM248.79,231.79c-.68.13-1.4.35-2.2.77-.59.13-1.16.24-1.71.35-10.2,2-14.46.47-22.03-7.57-.12-.13-.24-.25-.37-.39-1.02,1.45-2.01,2.35-2.97,2.67h0c-1.82.13-3.65,1.03-5.49,2.71-.03-1.17-.48-1.69-1.37-1.56.78-.1,1.68-3.22,2.29-4-5.2-.57-12.33,1.01-17.15-.58-.36-1.31-1.42-2.38-3.2-3.21-1.38-1.67-2.79-2.5-4.23-2.51h0s.59-1.13.59-1.13c-1.79-2.78-3.12-6.09-2.85-9.45,5.77,7.45,11.53,5.94,18.91,1.7,11.42-6.22,22.67-12.81,33.78-19.79,10.85-7.46,24.11-.4,33.57,6.12-6.39-1.05-12.85.2-18.99,2.04l-23.38,13.54c-.21,1.04-.27,1.86.76,2.3l12.41-2.4c8.67-1.35,21.12-3.09,26.61,5.26-1.63.15-3.25,1.21-4.87,3.23-4.36,5.45-8.76,9.76-15.36,12.32-.77-.5-1.69-.61-2.74-.41Z"/>
          <path class="cls-4" d="M169.21,230.5c.01,2.79-1.91,4.78-3.44,6.86,0,0,0,0,0,0-5.67,6.84-17.94,1.27-19.82-6.68l-1.34-.18c-.09-.1-1.01-.11-1.42-.55-1.18-1.26-2.7-3.12-4.3-3.73-.03,7.28.13,14.95,1.3,22.14.33,2.03,2,10.24,4.21,10.65,1.33.25,18.21-11.1,22.5-13.12.21-.1.42-.2.56-.25,1.32-1.37,2.94-10.92,2.85-13.06-.02-.47-.31-2.19-1.11-2.07Z"/>
        </g>
        <path class="cls-4" d="M226.68,401.48c-4.54.56-8.31-2.56-12.31-4.03.89,2.81-9.62,3.98-10.58,4.01-7.19,8.28,2.17,19.87,11.48,21.1,17.24,2.26,38.91-8.02,53.14-17.09,9.54-6.09,11.27-7.48,16.95-17.35,9.53-16.57,15.27-17.99,19.95-36.56-19.72,19.37-37.75,21.26-60.13,37.55-2.92,2.12-16.26,12.11-18.5,12.38Z"/>
        <polygon class="cls-4" points="151.91 221.19 130.89 212.2 137.18 221.06 153.76 222.48 151.91 221.19"/>
      </g>
      <path class="cls-4" d="M284.82,390.23c-11.57,19.74-44.18,67.57-93.29,137.41l2.26-99.89,7.45-19.66c.46-2.04,23.79,19.86,67.17-2.63l16.4-15.24Z"/>
      <g>
        <path class="cls-2" d="M257.33,436.96c-22.89,10.86-53.25,5.99-69.03-12.91"/>
        <polygon class="cls-9" points="247.47 447.25 257.78 432.38 260.28 441.82 247.47 447.25"/>
        <polygon class="cls-9" points="194.01 416.07 193.57 435.22 183.86 422.5 177.43 406.43 191.22 400.24 194.01 416.07"/>
      </g>
      <path class="cls-9" d="M306.99,247.65c.76.78-8.1,12.11-9.16,13.42-12.86,15.81-30.03,30.4-47.44,40.9.16,1.16,2.79.51,3.55.41,4.81-.63,10.39-2.35,15.04-3.82,13.74-4.35,26.85-10.79,39.71-17.17.55.66-3.92,6.57-4.67,7.61-11.27,15.78-27.54,33.48-41.05,47.58-13.82,14.42-34.13,33.71-52.23,42.11-3.08,1.43-9.85,4.45-12.97,3.65-4.29-1.1-12.57-14.51-15.1-18.66-11.82-19.42-20.79-41.04-27.2-62.85,11.37,10.62,21.16,22.95,33.46,32.57,2.54,1.99,8.81,6.9,11.43,8.01.26.11.94.15.85-.28l-12.57-27.16,28.58-.86c-8.91-5.02-18.12-9.53-26.82-14.92-3.71-2.3-20.13-12.83-21.34-15.82-1.66-4.09.25-12.96.14-17.58-.99-.26-1.14.41-1.72.85-1.89,1.45-5.53,5.26-7.15,7.14-2.16,2.51-9.06,13.96-11.43,14.11-4.28.27-5.53-13.9-3.17-16.7,6.8-4.45,13.58-9.17,20.8-12.94,7.47-3.89,9.88-5.96,18.7-4.21,9.7,1.93,20.23,6.31,30.05,8.83,26.02,6.69,54.64,12.13,77.95-4.86l13.77-9.38Z"/>
      <g>
        <path class="cls-11" d="M115.46,110.71c25.45-21.06,48.53-15.77,76.6-3.99,47.52,19.96,90.5,56.42,119.98,98.43,14.88,21.2,32.55,52.53,33.86,78.77,1.37,27.28-14.66,52.59-25.75,76.35-17.02,25.18-31.46,51.59-49.74,76.62-24.21,33.13-51.28,64.39-71.36,100.45-6.53,11.73-9.53,22.67-10.12,36.19l33.48-35.13c1.06-1.52.25-3.36.68-5.04.78-3.05,21.17-27.47,24.73-31.3,6.66-7.17,10.28-8.15,17.64-13.24,5.35-3.7,17.1-20.67,22.39-26.79,23.5-27.19,49.75-53.75,78.67-75.13,7.02-5.19,15.72-9.96,22.26-15.48,1.45-1.22,15.86-16.61,14.86-17.44-13.68,3.37-25.75,10.88-37.69,18.05-14.21,8.54-27.66,17.5-40.08,28.53l-55.74,49.46,3.15-5.71c18.85-24.81,36.41-50.77,52.03-77.76,33.2-57.37,59.37-122.25,62.9-189.25l1.86,4.7,6.54,22.61,12.16,48.72c-2.58-34.3-6.45-69.21-12.75-103.02-8.44-45.25-27.83-89.81-65.96-117.57-27.81-20.25-52.33-21.51-85.38-14.12-53.33,11.92-101.23,47.31-130.93,92.64.58.94,1.26-.2,1.72-.57Z"/>
        <path class="cls-11" d="M483.1,424.32c-7.5-5.61-15.45-10.85-23.49-15.67-2.72-1.63-7.81-5.2-10.41-6.19-2.69-1.02-8.9,2.14-11.66,3.46-40.17,19.34-84.31,66.84-112.81,101.03-3.97,4.77-12.57,14.17-15.26,19.05-1.28,2.33-1.9,5.69-3.13,8.3-2.49,5.25-7.68,11.43-11.37,16.08-4.83,6.08-20.21,25.44-25.9,28.42-5.41,2.84-8.58.85-13.55,5.32-13.85,12.47-27.99,30.23-41.14,44.05-10.49,11.02-21.3,21.79-32.07,32.54l-.53,1.19c-.58,11.91-2.81,23.7-2.78,35.63,18.04,8.99,35.71,19,54.02,27.45,3.89,1.8,15.04,7.3,18.49,7.87,2.64.43,10.42-4.48,13.45-5.49,25.7-26.79,51.47-53.47,75.18-82.05.53-.64,1.39-.93,1.14-2l-93.19,43.74c16.02-17.64,34.58-32.5,52.04-48.6,21.12-19.47,41.81-39.4,63.17-58.61,2-27.4,5.43-54.65,12.57-81.2l.86-.56c1.35,15.19,2.91,30.47,5.73,45.45.16.83,0,1.77,1.13,2.01,4.37-28.98,18.54-57.87,37.18-80.32,15.29-18.42,37.7-38.17,62.31-40.9Z"/>
        <path class="cls-11" d="M136.02,623c-1.95-56.38,8.03-112.04,23.31-165.92-7.92-11.78-15.23-24-21.12-36.95-3.39-7.45-5.93-15.24-9.37-22.67-13.44,7.19-27.03,14.32-40.09,22.18-10.24,6.17-14.33,8.36-19.94,19.51-11.67,23.23-11.64,54.07-1.84,77.94l5.01,9.57c-.18-17.13,2.16-34.15,5.43-50.89l5.43-22.86c2.56,31.34,4.52,62.86,9.25,93.96,4.8,31.54,12.45,63.31,30.22,90.15,4.71-4.45,9.82-8.94,13.7-14.02Z"/>
        <path class="cls-11" d="M416.2,575.54l.57.3c1.17.27,1.67-.07,1.72-1.23l-.07-12.46c-.48-7.3,4.42-9.76,10.35-12.45,11.55-5.25,27.78-9.22,40.18-11.72,14.13-2.85,26.46-3.64,40.71-4.48,1.31-.08,2.54-.59,3.73-1.11-4.07-26.45-7.78-55.56-15.15-81.19-3.34-11.62-3.97-19.73-18.61-17.47-26.9,4.16-58.62,46.69-69.65,69.87-17.86,37.56-17.09,65.66-14.97,106.29l1.75,21.41,13.8-31.65c5.88-7.83,6.33-14.47,5.64-24.11Z"/>
        <path class="cls-11" d="M516.26,552.4c-12.31-.27-26.52.72-39.68,3.31-6.73,1.32-41.37,10-45.86,15.15-4.51,11.1-8.75,22.38-12.71,33.82l-.59,3.96c.01-.52-.19-.61-.65-.21-.36,9.84-1.34,20.58-2.29,30.59-.93,9.83-2.74,19.59-3.42,29.45,19.16-9.06,37.95-19.17,56.41-29.63,16.2-9.18,35.81-19.73,50.8-30.39,3.09-2.19,5-2.43,4.85-6.58-.56-15.14-4.69-34.26-6.86-49.47Z"/>
        <path class="cls-11" d="M207.23,617.59c14.58-15.15,28.11-31.38,43.69-45.54l-23.61-21.89c-37.68,38.22-76.5,75.25-114.16,113.44l-.29,1.46,31.39,15.9c13.1-13,26.33-25.89,39.26-39.06,7.89-8.03,15.89-16.17,23.72-24.31Z"/>
        <path class="cls-11" d="M379.88,392.29c-23.76,15.19-44.69,35.09-63.73,55.76l26.49,19.09c26.64-28.83,55.78-58.5,92.99-73.13-1.84-1.7-4.62-3.08-6.85-4.29-3.67-2-18.12-9.84-21.16-10.34-5.05-.83-22.8,9.75-27.75,12.91Z"/>
        <path class="cls-11" d="M177.89,466.8c-1.34-2.31-4.52-4.69-6.12-7.03-11,37.73-19.44,76.4-22,115.79l-.57,36.87,26.87-26.58c6.06-19.59,3.41-40.41,3.97-60.64.45-16.34,5.89-44.49-2.15-58.41Z"/>
        <path class="cls-11" d="M296.41,469.48c-6.56,7.15-16.53,17.35-22,24.88-.44.6-1.21,1.43-1.06,2.2l26.77,22.09,37.17-45.16-25.93-19.41c-5.14,4.95-10.13,10.14-14.95,15.39Z"/>
        <path class="cls-11" d="M114.78,332.65l5.81,11.05c-13.77-44.37-30.66-88.44-40.77-133.89-3.48-15.62-5.3-20.49,1.23-35.73,7.03-16.43,16.85-31.32,25.02-47.02.25-.49,1.47-1.21.52-1.76-13.33,15.64-27.47,34.67-34.45,54.17-3.97,11.1-2.87,14.71-.54,25.98,8.88,42.87,27.79,86.34,43.18,127.21Z"/>
        <path class="cls-11" d="M22.67,581.69c-1.06,5.83-6.47,17.12-4.12,22.72.43,1.03,4.71,3.96,5.41,3.44,2.86-8.26,8.49-15,12.56-22.62.55-14.6-1.19-29.13-1.12-43.71l-12.73,40.15Z"/>
        <path class="cls-11" d="M148.62,387.73c3.27,10.1,7.69,19.73,12.08,29.36l18.78,35.81c-.28-25.23-17.23-45.52-30.86-65.18Z"/>
      </g>
      <g>
        <g>
          <path class="cls-1" d="M240.78,189.66c-11.1,6.98-22.36,13.57-33.78,19.79-7.38,4.25-13.14,5.75-18.91-1.7-.26,3.36,1.07,6.66,2.85,9.45l-.59,1.13c1.44,0,2.85.84,4.23,2.51,1.78.83,2.84,1.9,3.2,3.21,4.4,1.45,10.68.28,15.7.49l19-11.06c-.72-.46-.69-1.2-.51-2.12l23.38-13.54c6.14-1.83,12.6-3.09,18.99-2.04-9.46-6.52-22.72-13.57-33.57-6.12Z"/>
          <polygon class="cls-1" points="137.18 220.92 153.76 222.34 151.91 221.04 146.14 218.57 130.89 212.05 137.18 220.92"/>
          <path class="cls-1" d="M128.61,197.18c.3-.08.6-.13.9-.19l-.92-9.98c-.35,5.34-.44,9.62.02,10.17Z"/>
          <path class="cls-1" d="M255.36,197.82l-23.38,13.54c-.19.93-.21,1.66.51,2.12l-19,11.06c-5.02-.21-11.31.96-15.7-.49-.36-1.31-1.42-2.38-3.2-3.21-1.38-1.67-2.79-2.5-4.23-2.51l.59-1.13c-1.79-2.78-3.12-6.09-2.85-9.45,5.77,7.45,11.53,5.94,18.91,1.7,11.41-6.22,22.67-12.81,33.78-19.79,10.84-7.46,24.11-.4,33.57,6.12-6.39-1.05-12.85.2-18.99,2.04Z"/>
          <path class="cls-9" d="M175.49,218.91c-1.87-5.35-4.06-10.59-5.72-16.01-.75.28-1,3.04-1.07,3.78-.18,2.16.21,4.4-.35,6.5-6-2.83-12.53-4.82-18.41-7.9-6.3-3.3-12.76-9.81-20.44-8.3l1.39,15.06,15.25,6.52,32.86,11.51c-.11-1.23-.31-2.47-.65-3.74-.68-2.56-1.99-4.94-2.86-7.43Z"/>
        </g>
        <path class="cls-3" d="M232.41,222.65c1.26,5.61,6.41,9.76,11.46,9.76,5.54,0,10.4-5.58,11.2-12.09-8.75-.65-16.42.71-22.66,2.33Z"/>
        <path class="cls-8" d="M150.9,228.77c.7,6.04,4.74,10.81,9.42,10.83,4.73.03,8.82-5.12,8.89-9.11-7.09-4.12-13.17-3.62-18.31-1.72Z"/>
        <ellipse class="cls-9" cx="160.56" cy="228.89" rx="2.74" ry="4.02"/>
        <ellipse class="cls-9" cx="244.21" cy="220.32" rx="2.74" ry="4.02" transform="translate(-26.19 33.06) rotate(-7.35)"/>
        <g>
          <polygon class="cls-7" points="136.16 533.56 111.74 525.28 127.02 477.46 148.75 484.51 136.16 533.56"/>
          <path class="cls-7" d="M110.72,530.85c1.12-.2,19.74,5.11,21.98,5.99.99.39,2.02.56,2.28,1.81.47,2.26-2.91,9.49-3.01,12.34l-25.7-7.26c1.48-3.38,1.85-8.08,3.07-11.33.32-.84.27-1.35,1.37-1.55Z"/>
          <path class="cls-7" d="M133.29,458.97l20.21,6.81-3.53,12.81-21.77-7.03c1.74-1.77,3.8-12.47,5.09-12.58Z"/>
          <path class="cls-7" d="M141.41,433.28c.28-.42.44-.94.92-1.21,1.75-.8,16.1,6.66,19.49,6.78.7.3-.22,1.04-.29,1.5-.78,5.48-4.37,12.32-5.29,18.14-.5,1.88-2.04-.02-3.14-.27-5.2-1.2-9.85-2.61-14.83-4.57-1.03-.41-3.32-.02-3-1.93,2.71-4.87,3.24-14.13,6.14-18.43Z"/>
        </g>
        <polygon class="cls-9" points="140.85 425.68 159.34 457.08 169.15 445.66 156.26 423.24 140.85 425.68"/>
      </g>
      <g>
        <path class="cls-3" d="M513.4,532.39c1.03,6.67,1.9,13.33,2.86,20.01.33,1.67-.91,1.17-1.99,1.16-20.34-.22-36.03,2.04-55.62,7.83-6.03,1.78-20.94,6.15-25.7,9.18-1.02.65-1.78,1.18-2.17,2.4l-13.44,36.88-.57-1.42c.39-10.83-.33-21.76,0-32.59,0-.08.57-.65.59-1.38.18-5.04-.87-14.1.98-18.48,2.7-6.39,22.07-11.81,28.61-13.7,21.43-6.2,44.05-10.32,66.45-9.88Z"/>
        <path class="cls-3" d="M262.19,500.45l33.95,29.35c-.02,2.06-22.08,28.97-25.18,32.59-1.38,1.61-6.05,7.5-7.81,7.65l-32.21-29.38c.38-3.92,2.91-6.69,5.17-9.69,6.38-8.45,15.37-19.48,22.56-27.18.61-.65,3-3.23,3.52-3.33Z"/>
        <path class="cls-3" d="M339.02,105.85l36.32,29.75c1.35,3-8.26,10.14-11.38,7.34-9.19-7.37-18.23-14.98-27.54-22.2-2.66-2.06-12.12-10.03-14.33-10.83-1.04-.38-.68.25-.92.67-2.23,3.9-5.98,15.42-8.73,17.58-4.43,3.48-16.07-.75-15.04-7.58.78-5.18,7.74-14.3,9.36-19.87l-.02-1.71-32.03-23.47c-5.79-3.18,5.07-9.67,8.09-11.88,6.76-4.95,14.17-9.11,21.18-13.7,3.11-2.04,9.69-8.03,13.04-8.17,1.73-.07,2.85.75,4.28,1.46,11.12,5.53,33.19,26.64,41.14,36.62,2.48,3.12,7.35,8.74,6.06,12.87-2.06,6.62-23.49,10.63-29.49,13.13Z"/>
        <path class="cls-9" d="M261.05,513.6c3.42,1.89,25.89,20.21,25.92,21.91.04,1.91-5.4,8.44-6.86,10.3-1.78,2.25-10.96,13.2-12.89,13.47-2.14.3-5.64-3.19-7.38-4.61-4.66-3.81-10.25-8.7-14.6-12.84-.9-.85-3.33-2.94-3.44-4.03-.22-2.16,4.27-7.24,5.75-9.11,1.49-1.89,12.51-14.88,13.5-15.08Z"/>
        <path class="cls-5" d="M318.29,59.62c2.37-.34,2.68,2.14,2.3,4.06-.8,4.08-6.71,18.52-8.73,22.73-.31.64-.53,1.28-1.15,1.7l-16.86-12.28c5.76-3.83,10.94-8.69,16.84-12.31,1.75-1.07,5.77-3.64,7.59-3.9Z"/>
        <path class="cls-6" d="M349.88,87.54c-.68,1.01-21.17,4.56-24.01,4.58.78-3.04,5.87-16.44,8.41-17.07,1.89-.47,9.07,4.79,10.73,6.23,1.07.92,5.72,5.02,4.88,6.27Z"/>
        <polygon class="cls-12" points="261.62 524.42 278.36 538.47 268.32 550.07 252.16 536 252.38 534.68 261.62 524.42"/>
      </g>
    </g>
  </g>
</svg>