<?xml version="1.0" encoding="UTF-8"?>
<svg id="Calque_2" data-name="Calque 2" xmlns="http://www.w3.org/2000/svg" viewBox="0 0 555.2 769.73">
  <defs>
    <style>
      .cls-1 {
        fill: #ffedc6;
      }

      .cls-2 {
        fill: #1d0809;
      }

      .cls-3 {
        fill: #0d1725;
      }

      .cls-4 {
        fill: #05080d;
      }

      .cls-5 {
        fill: #030507;
      }

      .cls-6 {
        fill: #7c4024;
      }

      .cls-7 {
        fill: #f6ab91;
      }

      .cls-8 {
        fill: #131d30;
      }

      .cls-9 {
        fill: #835337;
      }

      .cls-10 {
        fill: #c9c6cc;
      }

      .cls-11 {
        fill: #1d2949;
      }

      .cls-12 {
        fill: #981915;
      }
    </style>
  </defs>
  <g id="police">
    <g>
      <path class="cls-5" d="M364.58,245.23l1.19-2.65c-.47.53-.86,1.49-1.19,2.65Z"/>
      <path class="cls-5" d="M555.2,572v-110.25c-8.6-16.98-12.49-38.42-28.12-50.74-4.48-3.54-10.2-6.52-15.17-9.39-30.37-17.48-62-32.88-92.06-50.94-.81-1.05-1.47-1.86-1.66-3.25-.57-4.22-.21-9.84-.53-14.21-1.08-15.09-2.39-30.17-3.31-45.27-8.24-19.23-33.63-18.2-51.24-20.53.11-3.88-.25-7.83-.02-11.7.13-2.23.57-7.21,1.5-10.48l-8.57,19.13c-1.03,15.59-1.23,31.17-.58,46.75-1.05.42-1.09.96,0,1.09-.35,1.22-.84,2.38-1.45,3.47-2.44,1.7-4.5,3.64-6.19,5.81-4.48,1.8-8.44,5.13-10.92,9.28h0l-2.46,1.06c-12.69,8.99-25,18.46-36.92,28.4l-1.55,2.2c-.6-.34-1.72,1.1-1.64,1.09-1.12-.82-1.6-.2-2.22.86-1.54,10.5-2.33,21.12-2.36,31.87l.76,1.11c-.64,3.09-.08,6.09,1.66,9h0c-.83-1.88-1.74-2.18-2.75-.82-.68.38-1.37.73-2.05,1.1l-4.5.26-17.54,5.19,7.66,1.37c-8.34,3.41-16.89,6.03-25.66,7.8l-1.58,1.2h0l-.9-1.05-11.13.36c-5.93.68-9.9-1.96-14.22-5.47-.52.35-1.05.4-1.59.16l.02-1.36-6.03-5.19c-6.18-2.15,3.53-16.46,4.37-16.06,1.94,5.97,3.78,11.99,5.53,18.05.86,2.83,2.11,3.8,3.75,2.93.3.01.59,0,.86-.08,2.07-.61-.08-16.97-.4-19.26-.51-6.2-1.76-12.13-3.73-17.78l.43-.64,15.67,5-14.09-31.36,1.99-47.84-23.75-.61-8.63-19.22-24.14,18.46-6.37,5.7c-20.03,16.17-41.89,30.31-61.66,46.84-1.57,2.39.18,4.62,1.34,6.71l22.6,30.34c-18.23,11.73-38.1,20.99-55.38,34.12-11.6,24.83-20.69,50.58-29.75,76.4h0s0,0,0,0c-11.17,31.81-21.7,63.86-33.71,95.37-1.16,10.15,4.98,19.19,7.4,28.73-2.73,4.28-5.92,8.37-8.52,12.73-1.32,2.22-4.75,7.83-5.31,9.98-.41,1.6-.58,7.94.03,9.28.27.59,1.87,1.9,2.49,2.42,5.29,4.41,12.82,9.05,18.66,13,51.48,34.76,110.37,65.22,168.37,87.61,7.36,2.84,16.2,6.54,23.74,8.47,7.83,2,24.09-2,32.72-3.59,30.71-5.64,61.59-13.1,91.71-21.27,74.92-20.33,148.65-46.15,217.11-82.81v-72.05c-19.49,1.41-38.91,4.48-57.86,9.28l-1.42-.84c-1.74.59-12.66,2.91-13.66,1.76-.3-1.1-.56-1.96-1.85-2.01-.2-.9-.35-2.21-.55-3.27,1.01-4.33.02-11.26-2.73-14.74-1.29-6.96-1.67-14.43-3.27-21.29,1.34-1.18.69-3.09-1.09-3.27l-1.09-6,.99-1.5c-2.28-12.96-4.41-25.98-6.37-39.04l72.36-10.08c5.37,24.36,10.5,48.83,15.38,73.4l1.15.15ZM410.89,394.05c3.98-.34,15.12,4.58,18.65,6.88,12.85,8.41,25.29,17.41,37.54,26.69,4.31,1.24,4.75,3.11,1.3,5.62-18.26,16.65-31.57,39.09-41.94,61.75l.5,1.68h0c-1.62-.08-3.05,2.22-1.64,3.28h0s0,0,0,0c-3.46,4.12-5,9.73-6.96,14.63-.33.83.32,1.48-1.23,1.2-.35-10.49.03-20.42,2.34-30.67,2.87-12.73,8.29-24.73,12.39-37-1.99,1.66-3.99,3.53-5.73,5.45-2.87,3.17-7.09,8.08-9.54,11.47l-.48,2.58c-6.52,9.56-10.48,20.52-13.18,31.71-2.01,9.9-4.3,19.61-6.74,29.22-.09.26-.16.54-.22.86-.52,2.05-1,4.12-1.54,6.16-.02.08-.05.14-.08.22-.66,1.11-1.43,1.38-2.33.76-.36-1.11-1.5-1.47-3.42-1.09-12.11-2.07-24.25-3.16-36.42-3.28h0s0,0,0,0c-22.92-4.26-47.26-6.34-69.88-7.54l-3.06-.59c1.34-14.33,6.42-29.54,11.44-43.27l-.72-1c6-15.32,16-29.57,26.92-41.66,12.44-9.01,25.36-17.47,38.78-25.39,10.47-6.7,20.59-14.16,29.14-22.87,3.43-3.88,7.19-5.38,11.29-4.5,2.5-.85,3.03-.24,1.6,1.84l-39.71,38.55c-1.21,1.61-3.85,5.64.13,4.79,10.86-6.47,21.02-13.95,30.51-22.42,3.11-2.36,18.34-13.72,22.3-14.06ZM171.7,616.97c-4.6-16.05-9.7-34.1-7.16-50.65,1.53-9.98,3.37-20.3,5.54-30.34,6.68-30.91,14.03-61.99,21.38-92.5.73-3.05,2.02-6.91,4.56-8.84-.87,26.66-1.2,54.5,6.67,79.54.75,3.95.65,8.13-.5,11.91-3.31-.73-8.51.05-9.22,4.02-2.84,15.96-5.61,32.77-7.77,48.33.58,3.42,6.88,11.28,10.04,12.72,7.01,1.37,14.23,2.09,21.65,2.16,4.78,1.89,8.11,1.26,9.99-1.88,3.02-15.98,6.02-32.03,9.01-48.16.54-3.34,1.65-11.15-.68-13.78-5.34-2.55-4.01-4.55-1.31-8.57,1.27-1.88,2.94-3.85,4.47-5.53,6.46-7.1,13.38-14.67,20.22-21.72.49-.51-1.97,12.27-2.58,13.79-7.31,25.05-12.66,50.64-15.66,76.87-2.8,22.52-5.6,45.03-8.5,67.53-.48,3.75-.99,7.49-1.59,11.05-.23,1.34-.56,2.68-1.11,3.91-11.8-16.21-23.18-32.82-34.16-49.84-2.18-.24-2.5,1.24-1.62,3.98,3.32,18.7,6.7,37.4,10.24,56.07.22,1.17.58,2.3.96,3.44.38,1.15.83,2.27,1.3,3.39h0c-1.34.59-1.49.89,0,1.09h0s0,0,0,0c.89,5.44,1.89,10.94,2.73,16.37-1.15,1.53-1,2.68.55,3.82h0c-.93,1.55-1.09,3.44-.49,5.66-14.84-29.93-27.71-61.55-36.97-93.87ZM274.11,454.66h0s0,0,0,0h0ZM295.94,529.43c.63,1.38,1.02,1.38,1.64,0,2.32.96,5.58.88,8.19,1.09.59.33,1.19.64,1.82.88.62.24,1.23.46,1.86.54,14.58,1.83,29.22,3.44,43.84,4.88,1.31-.05,2.57-.33,3.78-.84.42,1.05.97,1.1,1.09,0,1.96.96,4.84.88,7.1,1.09,1.53,1.76,4.72,1.95,6.55.55h0c1.71.22,3.92.81,6,1.09h0s0,0,0,0c.62,1.39,1.04,1.39,1.64,0,1.05.15,2.16.39,3.27.55h0s0,0,0,0c.47,1.36.89,1.45,1.09,0,2.18.3,5.29.7,7.35,1.11,1.04.2,1.51.69,1.93,1.62,0,0,0,0,0,0-1.99,2.2-2.69,5.96-1.64,8.73h0c-.34,1.49-2.13,9.95-2.43,10.39-.82,1.17-3.33.1-4.66-.02-2.07-.72-4.18-1.44-6.37-1.72-12.93-1.63-25.92-3.2-38.88-4.63-1.08-.12-2.18-.07-3.28-.01-1.11.06-2.22.2-3.32.36-.6-.07-1.61-.42-2.73-.55h0c-5.45-2.29-12.21-2.76-18.01-1.64h0s0,0,0,0c-4.53-.46-9.08-1.23-13.64-1.64-.27-1.62-2.4-1.53-2.73,0h0s0,0,0,0c-.96-.08-2.37-.44-3.82-.55h0s0,0,0,0h0c-.33-.56-6.26-1.41-7.46-1.42-2.61-.03-5.45,1.72-7.56-.21-2.73-2.49-.51-6-.27-9.02.19-2.37.02-4.69.19-7.01.16-1.04.32-2.08.48-3.12.12-.45.25-.9.42-1.36.06-.07.12-.13.19-.19,1.75-.08,3.53-.1,5.27-.05,1.86,1.7,5.61,2.08,7.64.55,1.26,1,3.75.54,5.46.55ZM351.07,564.91c.83.3,1.69.57,2.57.82-.33,0-.62-.04-1,0l-1.57-.81c1,2.52,2.99,1.03,4.91,1.64-.27,1.09-2.38.34-3.43.65-1.3.38-1.8,2.1-1.49,3.32.03.13,1.6,1.91,1.7,1.99.65.46,1.71-1.21,2.39-1.05.57.13.84,1.81,1.74,2.1,1.9.61,4.18-.84,4.84,2.77.32,1.76-1.5,2.52-3.01,2.23-.37.9,1.67,2.11,1.09,2.72-.11.12-2.57.1-2.73,1.64l-4.55-1.2c-24.07-2.56-47.22-5.65-69.48-9.27l1.15-10.9-.81-2.09h0c.03-.18.88-.86.55-1.64h0c22.16,3.87,44.65,6.27,67.13,7.1ZM371.26,567.09c.28.78,1.16,1.29,2.66,1.52-.78,4.68-1.47,9.38-2.08,14.09-4.29-.1-8.56-.18-12.82-.26,1.73-.62,2.19-1.57,1.35-2.86,4.97-2.23,1.79-7.83-3.05-7-1.13-1.87-2.14-3.02-4.19-1.26-1.08-.95-1.64-2.08-.34-3.07,3.44.21,4.55-1.01,3.57-1.84,3.84.81,7.87,1.03,11.61.13h0c.87.1,2.27.38,3.27.55ZM407.28,616.76h0s0,0,0,0ZM269.74,644.6h0s0,0,0,0h0s0,0,0,0ZM274.11,609.12h0s0,0,0,0h0ZM276.84,587.29h0s0,0,0,0h0ZM288.3,550.72h0s0,0,0,0h0ZM275.99,664.43c.09-1.65-.36-2.62-1.34-2.91l1.12-1.1c2.97-25.44,6.19-50.89,9.66-76.34,12.01,1.13,24,2.37,35.95,3.72l1.85-.52h0c.95.11,2.06.41,3.27.55,11.06,2.99,23.48,3.82,34.93,3.27.85.09,2.08.41,3.27.55h0c.75,1.58,1.95,1.49,2.73,0,2.08,2.13,2.02,2.92,1.24,6.11-1.1,4.45-4.42,10.92-6.54,14.96-10,19.04-20.23,38.04-30.54,56.91-1.48,2.71-10.44,17.67-12.79,19.08-1.74,1.04-10.05,1-12.18.49-13.24-3.15-22.92-14.38-30.63-24.77ZM425.35,503.8c-.03-.09-.08-.18-.06-.28.03-.13.16-.24.32-.35-.09.21-.18.41-.26.62ZM297.48,406.04c.18-.4.39-.76.64-1.05,2.82-10.75,3.83-22.2,3.27-33.29.53-.77,1.26-1.32,2.18-1.64l2.73-.94c9.84-7.31,19.3-15,28.38-23.07,3.93-.95,8-4.55,9.82-8.19h0c.74-.22,1.47-.47,2.16-.78.69-.31,1.37-.63,1.95-1.07,17.9-13.55,36.06-27.41,52.74-42.13.86-1.43,5.32-.76,4.49-.61,1.2,4.63-2.12,8.18-5.23,11.28-7.74,7.71-17.36,15.39-26.23,22.19-21.72,15.9-42.99,32.36-63.81,49.38-2.73,21.62-5.52,43.03-8.39,64.24l-1.35,4.49c-.48.18-.95.38-1.37.65-.42.26-.82.51-1.06.86-10.33,14.65-16.77,29-21.66,46.12-12.26,42.96-17.89,90-22.97,134.88-3.94,39.87-8.18,79.81-13.13,119.46-.08.65-.34,2.34-.78,2.59-1.05.58-4.5.3-3.43-1.82l-1.1-1.46s0,0,0,0c0,0,0,0,0,0l1.07-2.45c3.38-43.65,7.27-87.65,11.69-131.99,4.49-38.93,9.91-78.79,19.66-116.16,4.1-15.74,10.54-30.34,20.04-43.7l.49-2.61h0c1.52-2.15,2.91-4.33,4.37-6.55,2.38-5.61,2.46-11.98,3.27-18.01,1.6-1.81,2.14-4.45,1.53-6.79l4.41.79,4.15-13.1-8.55.5ZM52.49,505.22c6.67-19.97,14.2-40.31,21.61-59.32,1.02-2.63,2.11-5.25,3.35-7.78,1.59-3.26,2.56-5.18,5.56-7.2,3.77-2.53,7.86-5.11,11.97-7.5,9.68-5.63,19.45-11.07,29.24-16.5,1.19-.84,2.22-1.85,3.08-3.03,1.51.27,3.04-.5,4.57-2.31,2.68,1.71,4.03,3.47.11,4.99l.23,1.14c-.72,1.22-1.82,2.04-3.11,2.61l-.16,1.21-1.64-1.09c-9.74,5.84-18.49,11.58-27.84,18.01-4.08,2.81-8.05,4.95-12.01,8.19-1.73-1.03-3.92,1.73-4.78,3.28-4.07,7.35-9.26,22.25-11.18,30.54-.5,1.17-.69,2.22.13,3.3-2.9,5.05-5.35,10.49-7.64,15.83.84-.53,1.54-1.2,2.07-2.03l3.11-7.71c-2.87,8.54-3.49,17.64-3.55,26.66.03-.83-.61-3.42-.57-5.21.07-2.63.98-6.15,1.1-8.77.05-1.21-.9-.81-1.62-1.3-.75,4.27-.57,8.41-.57,12.85l1.11,11.71c-1.54.65-2.26,4.02-.55,4.64l-1.09.66c-.25,20.5-.09,40.94.46,61.32-2.86-7.08-5.17-14.52-6.89-22.36l-5.14-14.7c-1.02-2.21-3.17-1.52-3.39.78l-.95,11.2c-2.92,12.56-4.18,23.61-2.83,36.51,2.33,12.06,3.8,24.17,4.42,36.32-9.24-8.29-18.25-17.88-24.25-28.81-.44.31-.87.4-1.28.14,1.26.27,1.18-.62,1.55-1.42,1.18-2.56,1.82-5.27,2.82-7.85-.76,1.23-1.43,2.51-2.03,3.83-.56,1.16-1.05,2.32-1.53,3.49-.48.14-.97,0-1.37-.29-.13-.17-.27-.33-.43-.47-.93-2.43,2.28-13.95,2.94-16.31.18-.63.38-1.25.56-1.88,2.96-9.47,6.11-18.88,9.51-28.21,1.21-2.09,2.42-4.21,3.22-6.51,3.13-9.05,6.21-18.17,9.15-27.28.75-2.31,1.01-4.75,1.28-7.15h0c1.22-1.98,2.46-3.99,3.25-6.2ZM489.61,613.69c2.51,2.69,6.76,7.03,10.74,9.7l1.91-.08c-.87,1.52.4,2.32,1.64,1.09,0,0,0,0,0,0,4.59,5.62,10.42,8.35,2.99,14.72-11.02,9.46-23.93,18.41-35.74,26.76-6.86,4.85-14.29,9.19-21.24,13.97-2,1.38-13,10.75-14.78,8.95.73-4.97,3.83-9.33,5.45-14.19,0,0,0,0,0,0,1.58-.02,1.8-.66.55-1.64h0s0,0,0,0c1.45-.84,1.2-2.85,1.64-3.82h0c1.46.21,1.58-.04.55-1.09h0s0,0,0,0c4.78-10.43,9.54-21.78,13.52-32.6,2.55-6.96.36-4.78-3.7-1.52-5.73,4.6-17.86,19.36-22.6,21.61-1.68.79-1.77.86-2.49-.86-.59-1.41-1.69-8.86-2.04-11.06-1.17-7.34-2.13-15.64-2.88-23.05,1.48-1.66,1.22-6.26-.55-7.64h0s1.01-1.05,1.01-1.05c-1.54-8.26-.71-11.61,3.22-18.48,1.67-2.92,3.52-5.82,5.41-8.62,8.93-13.21,18.58-26.54,28.53-39.42.46.73.84,1.03,1.67.42.28,1.1-.14,3.12.07,4.57,1.52,10.68,3.33,21.32,4.84,32l-.86,1.84c.18,4.84,1.83,24.16,3.97,27.15,1.08,1.51,3.29,2.02,5.04,2.19,4.7-.01,9.41.03,14.13.14ZM525.19,440.09c-5.89-3.9-6.7-3.94-13.93-2.91-12.77,1.82-21.58,4.11-28.45,15.9-4.19,7.18-8.41,14.78-12.18,22.38-15.46,31.2-30.79,62.5-44.65,94.24-1.98,6.27-3.73,12.51-5.25,18.71-.31-.22-.63-.34-.98-.26,1-.49.93-1.25-.45-1.42h0c-.2-3.25-2.7-8.47-3.27-12.01l.88-1.54c-.64-5.33-.58-10.73-.39-16.09l-1.03-1.48h0c.56-13.1,4.18-21.68,7.64-33.84.46-.22.47-.4,0-.55l1.38-1.25c15.86-33.97,32.73-69.4,67.8-86.69,9.76-4.81,27.28-9.03,36.23-1.01,4.36,3.91,8.46,19.46,9.27,25.52-2.11-8.7-5.37-12.94-12.6-17.73Z"/>
      <path class="cls-5" d="M419.58,455.76c-1.11-1.8-5.17-1.43-6.66-3.18-1.35.76-4.42,1.1-5.66.2-.73-.53-.26-2.05-1.06-2.75-1.24-1.09-4.5-1.17-6.03-1.61-.83-.24-1.46-1.31-2.46-1.4-1.34-.13-2.29,1.13-3.24,1.09-.72-.04-1.21-.88-2.06-.93-3.37-.2-10.09,1.18-13.78,1.01-1.13-.05-6.02-1.79-6.5-1.68-.61.14-.67,2.27-3.32,2.18-1.93-.06-5.57-2.39-7.09-2.25-.97.09-2.57,2.92-3.9,3.2-.7.15-2.69-1.01-4.26-.99-3.14.03-5.26,2.02-6.6,2.22-1.77.26-3.87-1.48-5.34-1.15-.54.12-.52,1.15-.9,1.41-.9.6-8.01-1.47-10.08-1.35-2.09.13-3.91,2.31-5.63,3.11-.81.37-2.31.13-3.06.64-.6.41-.25,1.88-1.23,2.21-.74.25-1.91-.43-2.97-.29-3.7.5-3.2.97-7.86.84-4.59-.13-6.24.99-9.31,4.38-4.21,4.65-7.63,13.4-10.64,19.11l1.51-.55c3.01-6.49,5.83-12.46,10.22-18.14,1.44-1.86,3.65-3.5,6.03-3.66,4.79-.12,9.48-.49,14.06-1.11l1.06-1.99c2.68-.72,5.31-1.88,7.92-3.47l8.87,1.45c1.3.18,2.04-.42,2.64-1.53,3.27,1.38,6.83,1.05,10.7-1,3.9,1.5,6.9.75,9.02-2.25,4.65,2.63,8.19,2.68,10.62.15,5.95,1.78,12.22,1.97,18.81.56,2.25.94,4.32.89,6.21-.16,2.37,1.25,4.98,2.16,7.85,2.71.38,2.7,1.65,3.8,4.52,3.61,2.23-.42,10.44.36,8.41,3.89l-2.67,5.67.86,1.08c.28-2.31,4.3-7.17,3.01-9.27Z"/>
      <path class="cls-5" d="M292.67,442.65c3.39-5.14,4.55,1.04,8.19,2.18-1.64-3.34-6.19-8.34-8.19-2.18Z"/>
      <path class="cls-5" d="M43.23,552.35c.11-.23.35-1.11.55-1.09-1.54-.46-2.01.5-.55,1.09Z"/>
      <path class="cls-5" d="M64.52,491.22c1.87-.62,1.19-2.65-.55-1.64.66.08.63,1.15.55,1.64Z"/>
      <path class="cls-5" d="M534.12,506.47l-50.97,7.68c-3.08.27-6.14,1.3-9.28,1.09.59,7.39,2.55,14.58,3.82,21.83,2.19,12.55,4.29,25.12,6.55,37.66,1.01,5.61,2.11,11.24,2.74,16.91,2.99.55,5.87-.7,8.73-1.08,18.24-2.48,36.34-5.78,54.58-8.19-.53-4.61-1.79-9.11-2.73-13.65-3.58-17.28-6.99-34.65-10.92-51.85-.34-1.49-1.64-10.27-2.52-10.41ZM541.44,569.62l1.2.2c-.64.44-1.15,1-1.55,1.67-3.5-.28-6.94-.01-10.3.9l-1.05-5.72c-4.03-3.61-8.15-7.08-12.35-10.42-.31-.03-.61-.04-.88.04-.86.26-10.27,11.98-11.16,13.92l.27,3.05c-1.86.91-2.49,2.52-3.12,4.36-2.37.6-4.8.91-7.28.91l-.61,1.12c-.38-1.01-1.26-1.08-2.18-1.09.66-2.69.71-8.33,1.77-10.53.37-.77,1.16-.85,1.51-1.35,1.8-2.63,10.95-14.17,10.91-16.24-.02-1.05-4.31-4.48-5.44-5.45-2.41-2.06-4.96-4.03-7.65-5.72.44.04.75,0,.98-.07,1.46-.51-.84-3.17-1.98-4.29-1.6-1.02-8.51-9.13-8.18-10.29.15-.54,10.69-1.32,11.21-1.1l3.32,5.02c.42.18.81.1,1.19-.18l-.51,1.14c1.56,2.25,12.47,12.45,14.62,11.88.62-.16,5.91-8.06,6.62-9.36,2.3-4.19,2.43-6.09,1.79-10.79l5.74-2.04c.27-.37.29-.77.11-1.21.85.78,1.39.53,2.08-.14.68.59,3.93,15.97-.08,16.91l-8.06,10.49c-1.5,1.94-.57,3.14,1.24,4.58,5.12,4.03,9.51,7.87,13.69,12.7,2.13,1.34,3.5,3.71,4.11,7.11Z"/>
      <path class="cls-5" d="M401.02,462.85c-1.6,1.97-4.42,3.5-5.19,6,.8-.83,2.68-2.62,3.54-3.28,1.04-.79,1.54-1,1.37.55.63-.71,2.46-2.81.28-3.27Z"/>
      <path class="cls-5" d="M49.51,537.07c1.94-7.08,3.73-14.24,5.73-21.29-3.63,7.28-4.91,15.67-7.1,23.47.59,1.45,1.33-2.06,1.37-2.18Z"/>
      <path class="cls-5" d="M30.68,595.48c-1.43-.26-.96.27-1.34,1.09-.51,1.1-2.17,5.85-1.98,6.75.04.21,3.67,2.19,3.86,1.98-.81-3.59-1.18-6.13-.55-9.82Z"/>
      <path class="cls-5" d="M46.51,543.62c-1.35,2.32-2.35,4.97-2.73,7.64,1.56.13,2.25-5.96,2.73-7.64Z"/>
      <path class="cls-5" d="M42.27,557.68c.16-1.54,2.2-3.88.96-5.32-.76,1.58-1.03,3.3-1.64,4.91l.67.41Z"/>
      <polygon class="cls-5" points="543.35 575.13 490.65 583.35 479.04 519.69 533.44 516.43 543.35 575.13"/>
    </g>
    <path class="cls-5" d="M365.77,242.58c4.53-5.1,12.9-7.43,16.28-13.74,4.22-7.87,9.57-34.76,8.79-43.47-.9-10.07-6.83-23.49-14.54-30.15,1.09-7.93,1.71-15.93,2.68-23.88,1.3-10.7,5.25-26.32,3.04-36.48-1.12-5.16-4.01-9.74-5.84-14.63,4.31,1.35,8.26,3.49,12,6-2.7-11.02-15.78-26.19-26.2-30.3-.63-.25-2-.17-2.14-.3-.16-.16-.4-3.34-.75-4.44-2.62-8.37-9.9-19.79-16.76-25.27-1.49-1.19-4.06-3.29-6-2.73,1.74,4.76,3.42,9.93,3.54,15.01-12.61-19.62-34.96-31.11-57.58-34.92,3.13,3.16,8.04,6.22,10.65,9.82,1.09,1.5-1.84-.54-2.08-.65-5.49-2.48-13.23-4.62-19.22-5.35-21.02-2.56-44.44,6.36-63.03-7.1.54,5.24,1.23,10.85,3.91,15.46.65,1.13,2.99,2.24,1.53,3.35-20.72,5.82-41.29,14.98-63.3,13.39-.18,1.07.71,1.55,1.38,2.16,2.25,2.07,5.37,4,7.94,5.7.8.53,4.57,1.88,3.77,3.04-15.06,7.06-29.42,17.5-36.02,33.3,5.27-1.52,10.25-4.49,15.45-6.1.54-.17,1.63-.92,2.01-.17-9.07,7.32-16.7,16.64-21,27.57-1.48,3.77-3.18,8.65-3.29,12.54,1.58-1.82,16.43-10.45,17.2-9.82-6.25,14.41-9.42,36.01,1.91,48.57,1.6-3.79,2.91-15.82,5.75-18.25.93-.8,2.68-1.43,3.17.06.43,1.32.4,6.4.72,8.56.97,6.55,4.09,16,4.29,21.95.16,4.79-2.94,11.35-2.71,15.72.11,2.14,2.02,6.95,2.82,9.22,1.08,3.04,5.54,11.57,5.73,13.86.26,3.09-5.63,11.49-6.27,15.33-2.76,16.39,6.02,44.7,10.2,61.04,2.12,8.29,6.98,16.73,8.89,25.07l51.05,61.05c6.96,4.84,14.18,9.42,21.93,12.76,2.39.83,4.24,1.16,6.72.66,3.88-.78,14.63-8.25,17.61-10.36,19.81-14.08,37.78-28.62,55.48-45.3,5.22-4.93,17.61-16.68,19.02-23.25.09-.41.06-.85,0-1.29l1.66-.83c4.22-10.1,7.5-20.42,9.85-30.98,0,.12-.01.23-.02.35l8.57-19.13c.33-1.17.72-2.13,1.19-2.65Z"/>
    <path class="cls-3" d="M166.07,84.91c2.09-1.47,4.55-1.72,6.47-2.81,3.13-1.77,7.31-6.27,10.47-8.64,13.24-9.92,28.9-17.92,45.24-21.07.66.56-2.3,3.15-2.76,3.51-3.52,2.71-8.68,4.64-12.48,7.17-20.06,13.34-37.05,37.79-36.06,62.74.03.66-.41,2.03.54,1.9,2.24-10.36,7.5-19.51,14.21-27.54,12.94-15.48,30.17-24.71,50.19-27.58.31,1.39-.37.95-1.02,1.41-4.66,3.28-9.58,6.2-13.44,10.59-.74.84-4.04,4.94-1.1,4.92.93,0,4.33-2.98,5.58-3.72,10.19-6.05,29.72-13.6,41.44-14.78,2.19-.22,11.77.44,12.51-.59.6-.82.15-1.28-.27-1.96-1.15-1.88-9.58-9.78-11.75-11.72-5.7-5.11-12.28-9.33-17.75-14.72,4.39.16,8.93-.25,13.29.08,7.42.57,23.73,4.84,29.95,8.79,2.57,1.64,4.62,4.71,6.96,6.68.6.5,4.38,3.47,4.66,3.53.48.11,1.25-.47,1.35-.81.38-1.34,0-6.31,0-8.19,0-1.6-2.04-5.28-2.06-6.66-.01-.73.89-1.2.75-1.84-1.19-5.4-20.77-18.76-26.14-21.36-18.3-8.87-40.78-5.2-60.56-7.95-.56.28-4.12.84-3.13,2.04.21.25,4.9,3.03,5.62,3.39,5.01,2.44,11.13,3.1,16.13,5.7,7.66,3.98.54,4.75-4.03,5.11-13.14,1.03-26.59,1.54-39.47,4.74-2.8.7-10.74,3.54-12.65,5.36-3.87,3.68,10.36,2.85,7.94,6.31-.62.89-17.35,6.93-20.15,8.23-14.32,6.65-31.04,18.37-39.54,31.96-.48.77-3.41,5.1-.92,5.1,3.35,0,10.25-3.8,14.43-4.69,2.83-.6,6.15-.33,9.05-1.35,2.95.74-.3,2.98-.28,4.92,1.65,1.49,7.37-5.26,8.76-6.24Z"/>
    <g>
      <path class="cls-1" d="M331.99,122.01c8.35-4.48,16.27-11.08,23.44-17.22l-34.93,16.92c-.2.84.13.87.58,1.32,2.42,2.42,13.5,12.49,14.04,14.89.75,14.07,2.03,28.09,2.3,42.18l3.26-18.83c-.83-6.62,1.14-16.1-.02-22.35-.53-2.85-8.72-12.76-11.08-14.99-1.37-1.29,1.16-1.26,2.4-1.93Z"/>
      <path class="cls-1" d="M342,88.91c1.67-.99.62-3.26-.2-4.6l-38.77,18.31c1.41.12,3.85,1.73,3.27,3.27l35.69-16.98Z"/>
      <path class="cls-1" d="M344.52,199.76c-8.61,7.98-18.55,14.09-27.01,21.84-.71.64-1.35,1.09-1.37,2.18.95,1.33,1.78,2.68,3,3.81,3.09-3.08,6.28-6.12,9.54-9,4.71-4.17,10.26-8.28,14.75-12.54,1.55-1.47,2.43-1.9,2.72-4.1l.38-3.9c-.22-.09-.43-.1-.63-.06-.53.12-.99.7-1.38,1.77Z"/>
      <path class="cls-1" d="M352.7,169.75v2.73s2.18-.54,2.18-.54c-.67-1.08-1.4-1.81-2.18-2.18Z"/>
    </g>
    <g>
      <path class="cls-7" d="M357.06,255.99l-7.48,27.72c-1.42,3.91-3.1,8.49-5.07,12.13-4.46,8.25-10.7,15.17-17.46,21.57-19.48,18.43-44.25,39.68-67.18,53.44-5.15,3.09-7.68,5.81-13.81,3.53-4.92-1.83-14.24-7.59-18.85-10.63-2.15-1.42-4.15-2.85-6.05-4.59.52,3.1-.13,6.3,0,9.55.12,2.94.75,6.22,1.09,9.01,1.22,10.24,3.57,20.46,3.85,30.81.05,1.68.29,5.01-.57,6.3-1.36.05-1.41-.76-1.9-1.65-3.63-6.56-3.34-14.69-7.11-21.26-3.03,3.15-8.23,10.61-7.96,15.01.15,2.46,7.18,7.9,9.33,9.54,1.87,1.43,7.13,5.46,9.13,5.88,4.57.97,13.69.33,18.71.12,8.64-.36,17.21-4.02,25.25-7.22,6.11-2.44,14.57-5.74,20.61-8.34.69-.38.66-4.72-1.11-9.55-.35-8.92,1.25-18.16,2.18-27.02.34-3.23-1.14-4.52,1.64-6.82.66-.55.33-.74,1.64-1.09,13.35-10.92,27.57-20.76,40.94-31.66,3.69-3.01,7.33-6.15,10.92-9.28,1.81-1.57,6.03-4.4,7.13-6.25.75-1.25.42-1.82.52-3.03.03-.36-.01-.73,0-1.09.63-15.35,1.03-30.75,1.66-46.1.12-2.99-.13-6.03-.03-9.03Z"/>
      <path class="cls-7" d="M161.12,170.24c0,.2,0,.39.01.59l9.28-6.55c3.86.51,6.94.94,10.65,2.17,3.7,1.23,18.71,8.94,20.7,8.73.35-.04,3.73-1.62,4.11-1.91,3.66-2.73,1.11-8.29,1.65-12.55.1-.76.3-1.59,1.08-.81.37.37,2.08,9.08,2.15,10.18.46,6.68.59,9.42,2.77,16.02-3.11.37-5.61.74-8.73,0-.81.71,4.11,3.8,2.49,6.03-1.75,2.42-4.97-1.9-6.31-2.76.94,3.81-1.95,6.82-4.92,8.73-.7.45-3.4.92-3.28,1.64-5.86.84-12.46-3.48-13.65-9.28-1.42.66-3.81,1-4.93,2.17-.51.53-.75,1.23-.53,2.2-.69-.17-1.89.08-2.73,0,.01.65,1.07,1.02,1.09,1.09-.21.36-.45.55-.68.63-.74.26-1.36-.71-.41-1.72-.73-.07-1.45-.43-2.18-.55.35-2.61-.3-5.64,2.18-7.64,1.97-1.59,6.13-2.72,8.48-3.8.54-.25,1.28-.32,1.35-1.1-3.92.57-7.68-.75-11.46-1.1-.89-.08-9.84-.76-9.83-.27,2.52,7.31,7.28,15.23,8.14,22.97.53,4.78-1.77,10.11,3.33,12.77,1.45,1.92,1.7,1.63,3.28,2.73.73.51,1.41,1.79,2.6,2.08,3.31.8,12.65-6.91,15.41-9.18,3.26-2.68,6.2-6.05,9.28-8.73,2.35-2.05,5-4.37,7.64-6,.7-.43,1.37-1.32,2.04-1.52.99-.3,1.97,0,2.88-.12.83-2.02,1.89-3.33,2.73-5.46.09-.22.35-.41.55-.55-.37.01-.66-.09-.97-.15.06-.17.39-.16.97.15-.17.24-.32.55-.39.85.14.26.22.55.23.86.04,1.66-1.67,3.8-3.12,4.29,5.23-.65,10.15-.88,15.28.55,1.26,1.87,2.83,1.77,4.37,2.73,3.02,1.87,4.89,2.93,8.19,4.37,5.83,3.31,11.84,6.38,18.02,9,4.44,1.88,20.39,8.41,24.2,8.28,9.65-.34,18.24-11.28,26.96-14.68.78-.82.57-2.72.81-3.86.14-.68.95-.86.96-.92,2.48-1.1,4.69-2.72,6.81-4.38,1.39-1.09,8.42-7.02,8.96-7.96,1.03-1.8.77-12.95.6-15.76-.32-5.33-1.5-15.65-2.79-20.68-.75-2.94-1.54-3.29-3.94-4.79-4.55-2.84-10.16-5.03-14.7-8.07-2.81-2.84.24-10.61.64-14,.44-3.75.36-7.59.66-11.35.1-1.26,1.05-2.9.99-3.91-.07-1.15-2.75-3.14-3.78-4.06-1.09-.98-3.15-1.9-3.28-3.27-1.06.76-2.25-.07-3.27-.55-2.7-1.24-6.14-3.34-8.73-4.91.92-2.14-3.49-4.33-4.91-4.37-1.82-.04-6.51,1.52-8.48,2.16-12.27,3.98-27.29,10.57-38.08,17.59-2.35,1.53-7.79,6.91-9.66,7.31-.51.11-.48-.29-.55-.32,3.61-7.69,8.68-15.06,14.74-21.02.08-.41-.53-.35-.81-.26-6.69,2.1-26.17,16.1-31.7,21.25-.9.84-1.17,2.05-1.33,2.21-.03,1.79-.02,3.96,1.09,5.46-.4.07-.72-.02-1-.16-1.47-.77-1.4-4.05-.09-5.29-1.49,1.47-3.6,2.43-4.91,4.09-1.37,1.73-2.11,4.49-3.28,6.28.27.45.38.79.38,1.05-.68.02-1.36.08-2.02.04,1.04.05,1.18-.39,1.64-1.09-.54-.07-.95.37-1.23.47-.1.03-.18.02-.24-.07-.07-.1-.13-.29-.17-.66-.24-2.61.16-5.53,0-8.19l3.53-12.84c-9,4.22-18.81,10.5-23.68,19.44-.94,1.72.23,1.9-1.69,2.39-2.75.71-1.67.76-3.28,2.18-1.13,1-3.25,3.64-4.37,2.73.13-1.55-2.73-4.33-2.73-5.19v-12.83l-5.32,12.42c-5.12,12.22-2.1,25.53-1.79,38.29M267.01,176.3l27.34,2.96c.94.26,2.92,3.98,3.21,4.97.4,1.36-1.41.64-2.17.8-2.33.47-3.53.56-6,.55v.55c-.48-.15-.47-.34,0-.55-1.54,0-3.83.44-4.91-.55-.05.92-.91,1.31-2.57,1.16-2.02,11.73-19.01,15.03-23.56,3.79-1.12,1-2.05,1.17-2.8.51-.8.41-2.59,1.6-3.02,1.65-4.37.49-1.96-4.6-.26-6.56-.64-.47-8.67,1.75-10.65,1.69-2.46-.09-6.17-1.83-9-1.69l-.3.52c.08-.27.02-.62-.25-1.07-.94-1.19-3.34-2.5-3.82-3.27-.56-.91-.62-3.33-1.39-4.34-1.01-1.34-3.02-.61-3.49-3.6-.33-2.11-.17-15.14,1.06-16.06.44-.33,1.41.27,1.52.93.18,5.09,2.57,9.82,2.29,14.9,2.24,2.25,31.51-9.92,36.29-11.48,5.14-1.68,12.86-4.31,18.09-4.84,11.2-1.13,16.04,2.61,25.86,5.94,1.26.43,2.82.29,2.73,2.18l-44.21,10.93Z"/>
      <path class="cls-7" d="M258.35,189.97c4.54,11.25,21.53,7.94,23.56-3.79,1.66.15,2.52-.24,2.57-1.16-.94.04-2.6-.26-3.31.24-.45.31-1.89,6.42-5.45,8.74-4.7,3.06-16.01,2.14-16.35-5.16-1.69-.34-2.68,1.05-3.82,1.64.75.66,1.68.49,2.8-.51Z"/>
      <path class="cls-7" d="M284.48,185.03c3.6.54,7.3.29,10.92,0-3.62.12-7.3-.17-10.92,0Z"/>
      <polygon class="cls-7" points="216.52 186.26 212.32 195.56 222.56 194.29 216.52 186.26"/>
    </g>
    <path class="cls-10" d="M174.09,191.97c2.05,8.72,17.58,12.88,23.8,5.37-7.14,6.61-17.64.11-18.37-7.46l-6.9,1.89h0l1.47.2Z"/>
    <path class="cls-10" d="M280.03,184.59c-.2.35-.49,3.39-.96,4.7-2.21,6.16-7.23,5.92-12.54,4.83-4.58-.94-4.93-6.84-5.45-6.97-2.27,1.08-4.83-.05-7.09.62-1.73.52-2.08,3.51-1.22,1.92.11.15.2.28.31.42,6.33,8.82,9.89,10.5,18.42,8.3.47-.12.94-.24,1.43-.39.67-.46,1.27-.71,1.84-.85.88-.21,1.65-.09,2.29.45,4.08-3.9,6.08-9.18,8.13-15.05-.87.43-4.91,1.54-5.17,2Z"/>
    <path class="cls-5" d="M294.35,179.26l-27.34-2.96,44.21-10.93c.09-1.89-1.47-1.75-2.73-2.18-9.82-3.33-14.66-7.06-25.86-5.94-5.23.53-12.94,3.16-18.09,4.84-4.78,1.56-34.05,13.73-36.29,11.48.28-5.08-2.11-9.81-2.29-14.9-.11-.65-1.08-1.26-1.52-.93-1.23.93-1.4,13.96-1.06,16.06.47,2.99,2.48,2.27,3.49,3.6.77,1.01.82,3.43,1.39,4.34.48.77,2.88,2.09,3.82,3.27.75-.79,1.08-.44.55.55,2.84-.14,6.55,1.6,9,1.69,1.98.07,10.01-2.15,10.65-1.69-1.7,1.96-4.12,7.05.26,6.56.43-.05,2.22-1.24,3.02-1.65.42-.22.82-.55,1.25-.86.72-.52,1.51-1,2.57-.78.34,7.3,11.66,8.22,16.35,5.16,3.56-2.32,5.01-8.43,5.45-8.74.71-.5,2.37-.2,3.31-.24,3.62-.17,7.29.12,10.92,0,.76-.15,2.57.56,2.17-.8-.29-.99-2.27-4.71-3.21-4.97Z"/>
    <g>
      <path class="cls-8" d="M260.28,262.08c-1.51,13.13-2.93,26.28-4.86,39.35-.25,1.71-1.29,2.81-.97,5.04.1.68-.25,1.04.84.83,1.58-.31,5.97-3.67,7.95-4.61,1.18-.56,2.45-.23,3.78-1.16,1.21-.85.62-4.4,1.13-6.39.11-.44.82-.43.87-.56,1.54-3.57,3.1-22.4,3.49-27.33.13-1.61,1.06-3.18,1.1-5,.06-2.95-1.44-4.72-2.23-7.37-2.93,1.48-10.11,3.98-11.09,7.19Z"/>
      <path class="cls-8" d="M214.61,232.51l-9.28.55c.09.53-.13,2.04,0,2.18.49.51,9.64-.98,11.18-1.11l-.81,1.11c2.38.22,3.34,1.38,5.17,2.74,9.13,6.81,16.85,15.65,26.49,21.83-2.02,4.16-3.54,8.8-7.09,12-2.23,6.88-1.08,21.02-1.09,28.93,0,2.96.46,6.65-.55,9.28-.02,9.3.09,18.56-.55,27.84,1.17-.06,3.3.46,3.75-.9,1.4-20.66,1.76-41.39,1.74-62.12,2.33-5.1,6.2-9.37,8.08-14.68-10.17-9.86-20.88-19.16-31.58-28.45-2.45-.34-5.9-.81-8.18.26.65-.01,2.78-.42,2.73.54Z"/>
      <path class="cls-8" d="M271.19,316.37c-1.53,1.31-6.54,4.25-7.18,5.67-1.2,2.64,1.76,4.03,3.01,5.71,1.77,2.38,3.11,4.99,5.81,6.74,3.49-1.93,17.01-8.62,17.58-12.31.37-2.43-8.19-10.5-10.13-10.95-5.33-1.24-6.18,2.66-9.09,5.15Z"/>
      <path class="cls-8" d="M269.07,226.51c-2.11-1.7-4.63-5.14-6.78-6.47-1.61-1-11.2-5.38-12.75-5.54-1.99-1.17-9.05-6.03-10.89-5.2-.88.39-2.15,2.41-2.76,3.28-1.46,2.05-7.2,11.47-7.88,13.41-1.23,3.54.14,4.63,2.42,6.81,5.13,4.89,11.97,8.94,16.92,14.21.67.3,2.11-.98,2.74-1.39,4.61-3,8.99-6.53,13.47-9.72,1.65-1.18,7.58-4.42,8.36-5.28,2.25-2.48-1.41-2.94-2.86-4.1Z"/>
      <path class="cls-8" d="M244.97,262.71c-.4.97-.82,1.93-1.27,2.87.59-.72,1.06-1.82,1.27-2.87Z"/>
      <path class="cls-8" d="M195.51,253.25c.37-1.09.72-2.2,1.09-3.27-1.01,1.1-1.37,2.19-1.09,3.27Z"/>
      <path class="cls-8" d="M352.71,172.47v-2.73c-4.88,8.74-4.01,18.3-11.75,25.09-2.78,2.43-6.91,5.14-10.08,7.11-6.88,4.27-13.71,7.51-20.74,12.01-14.52,9.28-33.97,20.32-47.12,30.66-3.02,2.38-5.41,5.58-8.6,7.81-1.26,1.49,1.91,4.82,3.47,4.58.77-.12,4.3-2.53,5.66-3.13,8.29-3.64,14.48-6.25,22.03-11.54,5.71-3.31,12.08-5.83,17.63-9.38,1.64-1.05,3-2.5,4.56-3.62,1.53-1.1,5.88-3.3,6.74-4.18.7-.71.54-1.59.54-2.46.61-.12.76.63,1.09,1.09.02-1.08.67-1.53,1.37-2.18,8.46-7.75,18.4-13.86,27.01-21.84.39-1.07.85-1.65,1.38-1.77.2-.05.41-.04.63.06l-.38,3.9c2.35-7.49,3.26-15.47,5.73-22.92.74-2.24,1.72-5.15,3-7.1l-2.18.54Z"/>
      <path class="cls-8" d="M352.7,169.75c.79.38,1.51,1.11,2.18,2.18,4.19-6.36,12.48-8.26,19.65-6.55-.5-1-.56-2.68-.55-3.82-8.67-4.4-17,.5-21.29,8.19Z"/>
      <path class="cls-8" d="M193,305.96c.62,1.75.91,3.46.87,5.15,1.02-.51.35-1.85.2-2.65-.21-1.08-1.68-4.43.34-3.91l4.85,19.46.61-.35c-2.13-6.53-4-13.2-5.63-20.03-1.75-.33-1.58.88-1.24,2.33Z"/>
      <path class="cls-8" d="M154.58,332.4c1.09-2.12,3.05-7.12,0-7.64,1.4,2.07-.64,5.11,0,7.64Z"/>
      <path class="cls-8" d="M271.64,305.09c-4.11,3.38-8.02,9.38-12.02,13.13-.59,1.15.9,2.52,1.67,3.25,4.33-4.57,9.48-8.97,13.35-13.92,1.31-1.67,2.08-2.43,1.1-4.62-1.64-.16-2.93,1.2-4.1,2.17Z"/>
      <path class="cls-8" d="M214.07,201.95c-.95.15-2.71,1.34-3.29,2.05-2.57,3.17-7.77,17.12-8.13,21.2-.1,1.15-.36,1.51,1.04,1.31.11-2.01,1.35-3.7,2.19-5.46,1.26,1.24-1.27,4.12.9,4.83.98.32,11.94.22,12.75-.19,4.2-6.42,4.59-15.6,9.81-21.29-.05-2.13-13.24-4.28-15.27-2.46Z"/>
      <path class="cls-8" d="M206.99,235.76l5.33-.65c-1.73.04-3.5.25-5.33.65Z"/>
      <path class="cls-8" d="M199.88,241.25c-.76-.77-.43-1.1.55-.55-1.52-2.35,1.33-5.24,4.13-5.27-.65-.76-.57-2.08.42-2.66l7.31-.47-.4-.33c-2.12.05-10.26.49-11.43,1.39-1.59,1.22-5.46,10.41-6.58,12.8l2.82-3.63c1.17-1.63,2.23-2.06,3.19-1.29Z"/>
      <path class="cls-8" d="M204.98,232.76c-.99.58-1.08,1.91-.42,2.66.63,0,1.26.08,1.83.4l.6-.07c1.83-.41,3.6-.61,5.33-.65l2.94-.36.45.5.81-1.11c-1.54.12-10.69,1.62-11.18,1.11-.13-.14.09-1.65,0-2.18l9.28-.55c.05-.96-2.08-.55-2.73-.54l.4.33-7.31.47Z"/>
      <path class="cls-8" d="M203.54,236.44c3.96.24,8.31-1.56,12.17-1.2-1.1-.13-2.24-.16-3.39-.14l-5.33.65c-.07.02-.14.02-.22.04-1.04.38-1.78.13-2.21-.37-2.8.03-5.65,2.92-4.13,5.27.26-1.27,1.93-3.92,3.11-4.26Z"/>
      <path class="cls-8" d="M206.77,235.8c.07-.02.14-.02.22-.04l-.6.07c-.57-.32-1.2-.41-1.83-.4.43.5,1.17.76,2.21.37Z"/>
      <path class="cls-8" d="M215.71,235.24l-.45-.5-2.94.36c1.15-.03,2.28,0,3.39.14Z"/>
      <path class="cls-8" d="M200.42,240.7c-.97-.55-1.31-.22-.55.55.17-.1.33-.47.55-.55Z"/>
      <path class="cls-8" d="M199.88,241.25c-.96-.78-2.02-.35-3.19,1.29l-2.82,3.63c2.43-.98,3.93-3.74,6-4.91Z"/>
      <path class="cls-8" d="M384.91,187.75c1.19,1.17,1.1-1.26,1.03-1.85-.71-5.56-6.85-21.76-11.95-24.35.9,1.21,1.91,2.61.55,3.82.77,1.53,3.21,1.92,4.3,3.62,1.66,2.58,1.73,7,2.63,9.92.35,1.13,3.11,8.51,3.45,8.84Z"/>
      <path class="cls-8" d="M347.51,233.59c.39-.86.22-2.14-.53-2.16-1.29-.04-7.32,7.41-9.31,8.17-.81,1.48.73,2.31,1.67,3.27,1.66-3.19,6.81-6.24,8.18-9.28Z"/>
      <g>
        <path class="cls-8" d="M202.9,212.31c-.44-.62-.87-.65-1.57-.45-.93.25-8.08,8.05-9.63,9.48-2.19,2.02-4.93,3.97-7.11,5.99-2.1,1.94-3.93,4.61-6.5,5.79.79,2.91,5.48,12.15,8.44,12.48.52.06,3.95-.2,4.38-.48,1.73-1.14,6.34-16.17,7.47-19.3.77-2.13,5.54-12.07,4.53-13.51Z"/>
        <path class="cls-8" d="M164.95,249.44c2,10.88,5.49,21.4,9.56,31.64l8.98,20.75c-4.18-16.28-8.81-32.51-15.73-47.85l-2.82-4.54Z"/>
        <path class="cls-8" d="M176.97,239.87c-.77-1-2.5-1.22-3.29-1.9-1.39-1.18-4.5-6.03-5.55-7.82-2.81-4.78-4.83-10.14-7.27-15.1-.58.27-.99,1.51-1.13,2.15-.82,3.72.83,16.03,1.47,20.43.28,1.94,1.02,3.82,1.02,5.8l.54-3.82c1.29-.47,1.98,2.44,2.18,3.27.4,1.65.1,3.39.98,5.3,1.41,3.06,5.87,7.16,7.48,10.52,1.25-.97,1-3.05.57-4.39-.18-.56-5.64-8.95-6.31-9.79.11-4.03-2.09-8.69-.55-12.55,1.94,2.25,4.12,4.25,6,6.55,2.02,2.46,4.92,5.57,6.55,8.19.63,1.02,1.7,2.68,1.95,3.78.33,1.42-.05,6.91,1.11,7.17,3.51.77,3.67-7.34,1.86-9.86-1.76-2.44-5.7-5.31-7.63-7.93Z"/>
      </g>
      <path class="cls-8" d="M247.36,259.82c-9.63-6.18-17.36-15.02-26.49-21.83-1.83-1.37-2.79-2.52-5.17-2.74-3.86-.36-8.21,1.44-12.17,1.2-1.19.34-2.85,2.99-3.11,4.26-.22.08-.38.45-.55.55.95,2.19-2.02,4.67-2.86,6.72-.32.78-.24,1.51-.41,2.02-.38,1.08-.72,2.19-1.09,3.27-1.49,4.34-2.87,8.75-4.37,13.1,1.86,3.59-2.76,6.98-1.63,10.92,1.44-.03,1.9-2.22,2.99-2.22.41,0,3.28,2.74,3.49,3.09,1.5,2.49,1.76,7.84,3.34,10.6.13,4.91,1.44,12.62,2.25,17.67.41,2.55,1.79,12.27,2.64,13.74.42.73,2.43,2.38,3.29,2.71,3.67,1.42,13.96,2.68,18.57,3.54,1.37.26,6.88,1.47,7.71,1.37,1.35-.17,1.82-2.75,1.97-3.97,1.47-11.37.83-23.99.71-35.31-.05-4.85-.32-9.66-.27-14.51-.63-1.15-1.37-2.24-2.2-3.26-2.36-2.88-9.57-7.43-13.01-9.37-3.75-2.11-7.89-3.16-11.64-5.24-4.31-.38-6.62,10.93-12.19,9.7-.98-.98,2.9-8.84,3.45-10.49.32-.97.18-1.98.37-2.61.39-1.3.74-2.5,1.09-3.82,1.71-1.53,4.63-1.24,6.84-1.11,9.14.54,14.86,5.86,20.99,12.03,1.85.14,2.7,2.19,3.82,3.27.18.18.36.37.55.55,1.79,1.62,5.01,5.05,7.64,3.82-.58,1.48-1.14,2.84-1.64,4.37,3.56-3.2,5.07-7.83,7.09-12ZM244.97,262.71c-.21,1.05-.68,2.16-1.27,2.87.45-.95.87-1.9,1.27-2.87Z"/>
      <path class="cls-8" d="M238.63,310.02l.55-9.28c-1.01,2.63-.54,6.32-.55,9.28Z"/>
      <path class="cls-8" d="M233.72,263.08l-3.82-3.27c1.12,1.13,1.98,3.11,3.82,3.27Z"/>
      <path class="cls-8" d="M229.9,259.8l3.82,3.27c-1.12-1.08-1.97-3.13-3.82-3.27Z"/>
      <path class="cls-8" d="M374.54,181.75c-.32.05-3.34-.82-6.13-.44-.93.13-5.92,2.45-6.82,3.04-1.8,1.17-2.05,3.28-2.33,5.32-.96,7.06-2.07,17.54-2.18,24.56-.04,2.83.06,8.25.55,10.9.22,1.18,4.13,5.5,5.28,5.67.79.12,12.09-8.38,12.74-9.46,1.76-2.94,2.28-7.87,2.71-11.2.56-4.31,1.41-10.51,1.09-14.74,2.12-2.42-2.19-14.06-4.91-13.65Z"/>
      <g>
        <path class="cls-8" d="M215.78,343.51c-.62-1.21-.75-2.79-1.74-3.72-2.07-1.95-8.1-2.41-10.61-5.77-.92-1.23-2.93-8.3-3.56-10.36l-.61.35-4.85-19.46c-2.02-.53-.55,2.82-.34,3.91.15.8.82,2.13-.2,2.65,1.67,6.33,4.91,21.66,8.28,26.38,2.99,4.18,8.49,8.98,13.83,8.55,3.01-.24.51-1.14-.21-2.53Z"/>
        <path class="cls-8" d="M194.25,303.64c1.63,6.83,3.5,13.5,5.63,20.03-2.79-9.14-5.22-19.56-7.38-28.92-1.21-5.26-3.9-14.12-4.09-19.11-.13-3.4,1.67-6.19,2.73-9.28,1.5-4.34,2.87-8.76,4.37-13.1-.28-1.08.08-2.17,1.09-3.27.18-.51.09-1.23.41-2.02.84-2.05,3.81-4.53,2.86-6.72-2.08,1.17-3.58,3.93-6,4.91-3.06,6.53-5.76,12.84-9.82,19.1-1.61.28-1.17-.73-.96-1.78.19-.97,2.56-5.76.15-4.23-.28.18-1.26,1.09-1.4,1.34-.64,1.14-.89,7.02-1.06,9.04-.22,2.62-.93,1.89.55,4.37,5.86,9.88,4.73,20.18,8.46,30.02.69,1.81,1.87,3.23,2.46.54.54,2.18,1.06,4.38,1.64,6.55.04-1.69-.25-3.4-.87-5.15-.34-1.44-.51-2.66,1.24-2.33Z"/>
      </g>
    </g>
    <g>
      <path class="cls-1" d="M211.41,580.59l-12.43-.81c-2.76-.18-4.76-2.71-4.31-5.43l5.61-33.66c.39-2.35,2.49-4.03,4.87-3.9l11.86.66c2.75.15,4.77,2.64,4.36,5.36l-5.04,33.81c-.36,2.41-2.5,4.14-4.93,3.98Z"/>
      <path class="cls-1" d="M210.84,576.9l-10.33-.68c-2.3-.15-3.96-2.25-3.58-4.52l4.66-27.98c.33-1.96,2.07-3.35,4.05-3.24l9.86.55c2.28.13,3.97,2.19,3.63,4.45l-4.19,28.11c-.3,2-2.08,3.44-4.1,3.31Z"/>
      <path class="cls-8" d="M210.64,575.58l-9.59-.63c-2.13-.14-3.67-2.09-3.32-4.19l4.32-25.96c.3-1.81,1.92-3.11,3.76-3.01l9.15.51c2.12.12,3.68,2.03,3.37,4.13l-3.88,26.08c-.28,1.86-1.93,3.19-3.8,3.07Z"/>
    </g>
    <g>
      <path class="cls-11" d="M229.82,668.01c1.5-2.83,1.71-6.36,2.19-9.57,5.7-38.37,8.63-77.43,16.06-115.48,3.05-15.61,9.4-33.12,11.7-48.34.12-.77.22-1.53.14-2.31l-1.93.52c-5.66,6.64-12.25,12.6-17.99,19.12-2.47,2.8-9.71,10.51-9.58,13.91.15,3.78,4.15,3.24,4.83,5.59.38,1.29.22,4.91.11,6.43-1.24,16.55-7.2,34.87-8.99,51.59-1.32,6.06-5.51,3.18-9.34,2.78-3.51-.37-7.47-.24-10.86-.61-2.38-.26-8.28-.75-10.14-1.33-2.77-.85-9.3-9.16-9.76-12.07-.45-2.86.58-3.57.91-5.57,2.35-14.09,4.31-28.22,6.84-42.28,2.02-5.48,7.97-2.51,9.17-3.38.35-.25,1-5.61,1.05-6.6.38-7.99-2.86-12.83-4.2-20.35-1.08-6.06-1.81-13.33-2.34-19.49-1.33-15.66-1.36-31.53-.55-47.21-4.38-.47-6.7,9.38-7.51,12.96-8.31,36.51-18.2,73.14-24.53,110.28-1.4,8.2-3.22,16.04-2.27,24.33,4.1,36.06,27.26,95.75,43.94,128.54.58,1.15,2.05,4.23,2.68,4.97.66.77,1.31.15,1.33-.25,0-.16-.82-2.06-.93-2.88-.27-2.03-.38-4.11-.69-6.13-.19-1.27-.35-2.55-.55-3.82-.84-5.44-1.84-10.93-2.73-16.37-.06-.34.06-.75,0-1.09-3.67-22.24-8.42-44.33-12-66.59l30.11,44.94c1.29.91,4.16,6.69,5.84,5.77Z"/>
      <path class="cls-11" d="M84.19,501.89c-.43,11.69-2.13,23.89-2.75,35.72,1.49.48.77,1.16.74,2.05-.07,2.03-.37,4.09-.19,6.13l53.52-.24c.94-.96,3.83-12.77,4.18-14.91.74-4.57,1.38-6.12-3.95-6.67-9.29-.96-20.17-.28-29.47-.01-2.76.08-19.57.95-20.46,0-.11-.11.07-1.19,0-1.63,5.92.13,11.86-.85,17.72-1.12,10.78-.48,21.45-.14,32.22.02,1.63.02,3.35,1.25,5.07-.13l15.46-73.29c-.06-7.31-12.88-22.56-18.07-27.82-1.19-1.2-3.06-4.89-4.9-4.44-2.93.72-12.98,8.75-16.42,10.93-6.45,4.09-13.51,7.53-19.78,11.88-5.93,4.11-6.56,4.42-8.83,11.37-3.48,10.64-5.23,21.7-6.82,32.75,2.51,6.22,3,12.75,2.75,19.4Z"/>
      <path class="cls-11" d="M398.3,388.09c1.05-.96,1.97-3.9,0-4.17-.5-.07-1.38.41-2.17.35-.92-.07-1.77-.55-2.7-.51-5.75.22-12.66,8.86-16.99,12.48-15.65,13.09-30.23,20.74-46.94,31.66-7.7,5.03-13.84,8.44-19.14,15.79-8.28,11.47-16.08,22.3-20.41,36.08,3-5.71,6.43-14.46,10.64-19.11,3.07-3.39,4.72-4.51,9.31-4.38,4.66.13,4.16-.34,7.86-.84,1.05-.14,2.22.53,2.97.29.98-.32.63-1.8,1.23-2.21.75-.51,2.25-.26,3.06-.64,1.72-.8,3.54-2.98,5.63-3.11,2.07-.13,9.18,1.95,10.08,1.35.38-.25.36-1.28.9-1.41,1.47-.33,3.56,1.41,5.34,1.15,1.34-.2,3.46-2.19,6.6-2.22,1.56-.01,3.56,1.14,4.26.99,1.33-.28,2.93-3.11,3.9-3.2,1.52-.14,5.16,2.18,7.09,2.25,2.64.09,2.7-2.05,3.32-2.18.48-.11,5.37,1.63,6.5,1.68,3.69.17,10.4-1.21,13.78-1.01.85.05,1.34.9,2.06.93.96.05,1.9-1.21,3.24-1.09,1,.1,1.63,1.16,2.46,1.4,1.53.44,4.79.52,6.03,1.61.8.7.34,2.22,1.06,2.75,1.24.91,4.31.57,5.66-.2,1.49,1.75,5.55,1.38,6.66,3.18,1.28,2.1-2.73,6.96-3.01,9.27,2.46-3.39,6.68-8.3,9.54-11.47,1.74-1.92,3.74-3.79,5.73-5.45-4.1,12.27-9.52,24.27-12.39,37-2.31,10.25-2.69,20.18-2.34,30.67,1.55.28.9-.37,1.23-1.2,1.95-4.9,3.5-10.51,6.96-14.63.52-1.33,1.31-2.43,1.64-3.27,5.64-14.5,21.51-40.7,31.92-52.4,1.84-2.07,13.6-12.73,13.32-14.38-.24-1.42-3.45-2.42-4.48-3.18-11.7-8.51-25.16-19.11-37.31-26.55-4.32-2.65-14.65-7.26-19.57-7.21-1.88.02-12.16,6.46-14.4,7.98-13.61,9.24-25.07,21.78-39.89,29.15l2.16-3.56,39.61-38.44Z"/>
      <path class="cls-11" d="M328.92,676.21c6.88-10.93,12.33-22.62,18.43-33.97,6.35-11.82,13.37-23.39,18.93-35.66,2.04-4.5,4.62-9.19,3.84-14.33-.9-.08-1.79-.51-2.67-.6-.89-.09-1.84.1-2.73,0-1.19-.14-2.42-.45-3.28-.55-11.61-1.26-23.33-1.97-34.93-3.27-1.21-.14-2.33-.44-3.27-.55-12.9-1.46-25.8-3.78-38.75-4.36l-9.22,70.74c-.02,2.71-.62,5.12-.61,7.85.01,4.04.49,4.11,2.99,7.1,7.32,8.74,18.25,20.73,30.04,21.81,2.4.22,10.04.42,11.71-.82,2.14-1.58,7.77-10.62,9.52-13.41Z"/>
      <path class="cls-11" d="M395.01,529.98c5.78-22.98,7.08-44.98,21.56-64.95l-.86-1.08,2.67-5.67c2.03-3.53-6.18-4.31-8.41-3.89-2.87.19-4.14-.91-4.52-3.61-2.87-.55-5.49-1.46-7.85-2.71-1.89,1.05-3.96,1.1-6.21.16-6.59,1.4-12.86,1.22-18.81-.56-2.43,2.52-5.97,2.47-10.62-.15-2.11,3-5.12,3.74-9.02,2.25-3.86,2.05-7.43,2.38-10.7,1-.6,1.11-1.34,1.7-2.64,1.53l-8.87-1.45c-2.6,1.59-5.24,2.75-7.92,3.47l-1.06,1.99c-4.58.63-9.27,1-14.06,1.11-2.38.16-4.59,1.8-6.03,3.66-4.39,5.67-7.21,11.64-10.22,18.14l-1.51.55c-3.4,6.46-10.96,34.38-11.87,41.9-.13,1.09-.5,2.24.4,3.15,1.29,1.3,10.92,1.14,13.38,1.35,20.13,1.79,40.24,3.83,60.32,6,12.15,1.31,24.19,2.79,36.31,4.36.83.11,3.27-.17,3.53,0,1.98-.25,2.56-4.79,3-6.55ZM387.46,495.14c-.81,3.05-4.43,23.69-5.63,23.96l-76.02-10.46c.63-4.13,1.1-8.31,1.97-12.41,1.98-9.29,5.39-18.3,7.84-27.37,9.53-.06,19.09,1.14,28.56,2.23,14.43,1.66,28.78,4.16,43.2,5.99,3.11-.03,6.22-5.92,8.45-8.24.77-2.5,3.59-4.03,5.19-6,2.18.46.35,2.56-.28,3.27-6.03,6.78-10.94,20.26-13.28,29.02Z"/>
      <path class="cls-11" d="M449.91,679.85c6.95-4.77,14.38-9.12,21.24-13.97,11.81-8.35,24.72-17.3,35.74-26.76,7.43-6.38,1.6-9.11-2.99-14.72-1.36-.47-1.16-.8-1.64-1.09-4.6-2.75-8.59-6.96-12.36-10.86-2.25.89-3.82.02-5.9-.08-4.09-.19-12.25,1.58-13.34-3.03-1.86-7.87-2.14-18.58-3.33-26.96-1.51-10.67-3.32-21.32-4.84-32-.21-1.45.21-3.47-.07-4.57-.04-.16-1.96-2.92-2.43-1.61-7.1,10.44-15.21,20.19-22.36,30.59-3.07,4.47-14.93,21.82-15.57,25.91-.56,3.58.26,8.53.51,12.25.18,2.67.27,4.91.55,7.64.74,7.41,1.71,15.71,2.88,23.05.35,2.19,1.46,9.64,2.04,11.06.72,1.73.81,1.66,2.49.86,4.75-2.24,16.88-17,22.6-21.61,4.06-3.27,6.25-5.44,3.7,1.52-3.97,10.82-8.73,22.17-13.52,32.6-.17.37-.38.72-.55,1.09-.43.97-.19,2.98-1.64,3.82-.16.58-.36,1.08-.55,1.64-1.63,4.86-4.73,9.21-5.46,14.19,1.78,1.8,12.78-7.58,14.78-8.95Z"/>
      <path class="cls-11" d="M108.46,670.25c2.09-2.28,1.99-4.97,2.34-7.92,1.64-13.96,3.74-28.41,6.28-42.41,3.96-21.81,9.48-43.34,13.52-65.14l-.12-1.26c-1.59-1.23-3.19-.01-4.56-.08-13.71-.65-29.42-1.33-43.13-.81-2.48.09-.49,1.68-1.89,2.44-.03-1.27.02-2.55,0-3.82l-2.72,36.85c-.26,31.36-4.55,62.99-4.92,94.15-.05,3.95,0,7.94,1.05,11.78l13.94,7.32c1.04-1.77,1.21-5.64,1.34-7.97.07-1.3-.63-2.52-.46-4.25.25-2.58,1.7-5.12,3.53-6.87,4.29-4.07,11.93-7.78,15.81-12.02Z"/>
      <path class="cls-11" d="M449.95,521.06c9.82-20.54,19.09-41.51,30.38-61.32,4.05-7.1,7.01-14.08,14.83-17.37,4.96-2.09,19.63-5.56,24.6-4.41,1.71.39,11.31,7.75,12.51,9.32,2.81,3.66,3.52,10.47,5.97,13.58.5.63,1.04.29,1.68.33-2.53-8.18-3.97-18.18-7.7-25.86-5.02-10.3-22.72-9.72-31.98-6.45-26.86,9.48-41.87,27.88-56.5,51.02-8.25,13.05-14.19,27.34-20.62,41.33-.05.17.05.38,0,.55-3.46,12.16-7.08,20.74-7.64,33.84-.25,5.85-.38,13.4.55,19.1.58,3.54,3.07,8.76,3.27,12.01.03.41.09,1.38,0,1.64.3.85,1.4,1.59,2.15,1.06.63-.44,3.32-12.73,4-14.83,5.88-18.12,16.27-36.33,24.5-53.55Z"/>
      <path class="cls-11" d="M283.23,435.61c-.52.14-7.23,5.14-8.28,5.96-10.02,7.81-19.74,17.11-32.61,20.33-2.48.62-10.35,2.66-6.75-1.83,7.76-6.41,15.73-12.61,22.96-19.62,3.65-3.54-5.92.18-7.22.42-2.69.5-7.63,1.2-10.25,1.24-7.06.1-21.71-6.5-27.26-10.94-2.04-1.64-5.32-7.4-6.79-2.95-3.33,10.04,7.09,19.79,12.51,26.97-3.36.73-13.25-9.64-15-9.27-1.93.4-.34,10.8-.26,12.81.59,16.05.25,33.29,2.74,49.12.45,2.89,2.02,2.03,3.21,2.77.77.47.84,1.99,2.04,2.35,2.36.7,6.64.22,9.07.76,2.12.47,3.07,3.58,5.59,2.11,2.02-1.18,7.03-9.17,9.02-11.61,12.99-15.88,26.32-32.86,38.17-49.56,4.05-5.71,7.64-11.82,11.38-17.74-.54-.78-1.22-1.57-2.27-1.3Z"/>
      <path class="cls-11" d="M300.85,444.83c-3.63-1.15-4.8-7.33-8.19-2.18-1.46,2.22-2.85,4.4-4.37,6.55-15.83,22.46-20.11,37.81-25.93,64.4-14.41,65.8-19.29,137.13-24.83,204.41-.77,9.35-2.41,18.67-2.18,28.11.04,1.45-.03,2.92,0,4.37,5.17-.01,5.75,1.18,6.49-4.16,10.64-77.71,13.32-156.69,30.9-233.27,6.21-27.05,11.54-45.62,28.11-68.22Z"/>
      <path class="cls-11" d="M277.37,528.58c-1.43,3.85-.79,7.59-1.09,11.48-.24,3.03-2.46,6.53.27,9.02,2.11,1.93,4.95.18,7.56.21,1.2.01,7.13.86,7.46,1.42,1.45.1,2.86.47,3.82.55.9.07,1.83-.08,2.73,0,4.56.41,9.11,1.17,13.64,1.64,5.98.61,12.04.99,18.01,1.64,1.12.12,2.13.48,2.73.55,17.26,1.91,34.58,4.42,51.85,6,1.33.12,3.84,1.19,4.66.02.31-.44,2.1-8.9,2.43-10.39.64-2.85,1.19-5.84,1.64-8.73-.41-.93-.89-1.42-1.93-1.62-2.06-.41-5.17-.81-7.35-1.11-.35-.05-.74.05-1.09,0-1.11-.16-2.22-.4-3.27-.55-.52-.07-1.11.07-1.64,0-2.08-.28-4.29-.88-6-1.09-2.17-.27-4.38-.34-6.55-.55-2.25-.21-5.13-.13-7.1-1.09-.36-.02-.73.02-1.09,0-16.57-.95-34.35-4.08-51.31-5.46-2.61-.21-5.87-.13-8.19-1.09-.54-.02-1.09,0-1.64,0-1.71,0-4.2.45-5.46-.55-2.57-.13-5.07-.48-7.64-.55-1.75-.05-3.53-.03-5.27.05-.07.06-.13.12-.19.19Z"/>
      <path class="cls-11" d="M48.61,557.46c.26-1.89.75-11.76,1.18-12.2.83-.86.94.19,1.14.76,1.58,4.4,3.24,8.88,4.7,13.31,2.13,6.46,4.08,17.43,6.97,23.05.44.85.67,1.84,1.91,1.64v-63.59c0-.89.5-3.05.55-4.64l-1.11-11.71c0-4.44-.18-8.58.57-12.85.09-.48.11-1.56-.55-1.64-3.92,9.11-6.04,16.71-8.73,26.2-2,7.05-3.78,14.21-5.73,21.29-.03.12-.78,3.63-1.37,2.18-.34,1.23-1.15,2.66-1.64,4.37-.48,1.68-1.17,7.77-2.73,7.64-.19-.02-.43.86-.55,1.09,1.24,1.44-.81,3.78-.96,5.32l-.67-.41c-4.38,11.7-9.14,23.28-13.64,34.93-1,2.58-1.63,5.3-2.82,7.85-.37.81-.29,1.7-1.55,1.42,2.07,2.56,1.99,3.4,3.33,5.67,2.56,4.34,17.5,21.25,21.48,23.82.67.43,1.09.67,1.93.52.15-3.9-.18-7.8-.61-11.66-1.7-15.23-5.88-28.68-4.29-44.27.6-5.89,2.38-12.11,3.19-18.1ZM27.36,603.31c-.19-.9,1.47-5.66,1.98-6.75.38-.81-.09-1.35,1.34-1.09-.63,3.69-.27,6.23.55,9.82-.19.21-3.82-1.77-3.86-1.98Z"/>
      <path class="cls-11" d="M300.85,444.83c.07-.1.85-.01,1.07-.3,1.24-1.63,1.75-6.5,2.13-8.78,3.2-19.43,4.31-39.64,7.46-59.13,22.28-19.26,47.05-35.44,69.84-54.06,5.72-4.67,20.51-16.37,24.01-21.84,2.21-3.46,1.12-7.62,1.12-7.62-1.49-2.01-3.73-1.28-5.73-2.18.61,2.14-.33,2.38-1.93,3.8-16.68,14.85-36.65,29.14-54.29,43.13-3.33,2.64-6.49,5.56-9.82,8.19-2.54.64-34.26,25.93-33.29,25.65-1.17,11-2.12,22.19-3.27,33.29-.4,3.81-.63,7.63-1.09,11.46-.32,2.68-.73,5.49-1.09,8.19-.82,6.04-.89,12.4-3.27,18.01,2-6.15,6.55-1.15,8.19,2.18Z"/>
      <path class="cls-11" d="M24.12,598.74c.83-2.23,1.74-5.22,3.83-6.55,2.82-12.08,7.7-24.05,13.64-34.93.6-1.61.88-3.33,1.64-4.91-1.46-.59-1-1.55.55-1.09.38-2.67,1.38-5.32,2.73-7.64-1.41-.98-.05-4.55,1.64-4.37,2.18-7.8,3.46-16.18,7.1-23.47l-.46-2.38c2.11-7.52,4.35-15.01,7.34-22.24l1.85-1.59c2.3-5.34,4.74-10.78,7.64-15.83,2.8-9.24,7.28-23.02,11.2-31.65,1.6-3.52,1.89-3.23,4.63-5.47,3.96-3.24,7.93-5.38,12.01-8.19,9.34-6.43,20.66-11.55,30.41-17.4.2-.12,3.86-4.67,4.05-4.78.97-2.34.55-3.87-.55-6-13.23,7.7-33.17,18.3-46.09,26.65-2.07,1.34-5.1,3.06-6.88,4.58-3.82,3.25-9.17,19.08-11.37,24.65-7.2,18.22-13.51,36.71-19.79,55.26-4.6,13.59-9.37,27.24-13.65,40.94-3.64,11.64-11.27,33.25-11.93,44.55-.04.62-.54,1.95.47,1.84Z"/>
      <path class="cls-11" d="M151.85,345.74c-.42-.22-.79-.36-1.26-.18l-17.23,16.49c9.12,13.27,19.56,25.56,29.41,38.29,3.66,4.72,6.33,6.87,9.19,12.65,1.45,2.94,2.83,8.3,4.52,10.76.45.65.64,1.08,1.56.89,1.69-1.54-.72-22.12-1.55-25.46-2.75-10.99-9-23.74-14.08-33.95-1.24-2.5-9.58-18.96-10.56-19.48Z"/>
      <path class="cls-11" d="M116.35,708.16c-.13.96-1.17,2.18-1.07,2.74.18,1.01,3.74,1.52,3.56-.22,8.35-55.74,18.26-110.95,29.9-166.07,5.68-26.86,12.55-53.58,17.69-80.56.64-3.38,1.82-7.67,1.79-11.03-.03-5.03-2.47-2.33-6.55-3.27-3.99,9.14-6.76,25.7-9.28,36.02,1.87.57,4.2,1.77,3.85,4.06-2.27,10.27-4.42,20.58-6.58,30.87,1.32,1.17-.53,7.14-.55,3.82-.07.33-.39.9-.55,1.64,1.03.52.34,1.85.2,2.64-1.28,7.09-3.4,14.01-4.54,21.13l-.57-.31c-.28,1.35-.78,2.85-1.09,4.37,1.12,1.11-.5,7.16-.55,3.82-.07.32-.39.9-.55,1.64.95,1.16.08,3.62-.17,5.01-8.64,47.95-18.66,95.34-24.96,143.69Z"/>
      <path class="cls-11" d="M144.75,390.5c0-.76.56-1.66.55-1.89-.05-1.18-11.38-16.2-13.1-18.56-1.75-2.4-7.01-8.33-7.91-10.39-.19-.43-.44-.78-.24-1.28,10.55-8.23,20.72-16.92,30.53-26-.64-2.53,1.4-5.57,0-7.64-14.23,10.52-28.4,21.15-42.02,32.48,11.12,12.91,20.99,26.85,31.65,40.12.98-1.71.57-4.71.55-6.85Z"/>
      <path class="cls-11" d="M460.77,386.43c-3.45,1.85-7.99-4.19-10.92-1.37-2.07,1.99,3.06,4.41,4.18,5.75.77.93.17,1.03.2,1.08,1.55,2.09,31.03,18.32,36.02,21.29.99.59,4.94,3.11,5.46,3.27,3.56,1.14,14.78,1.28,19.36,1.66.37.03,2.47.31,1.66-.57l-55.95-31.11Z"/>
      <path class="cls-11" d="M490.73,414.05c.36,1.04-.85.97-2.27.63-9.17-2.21-24.69-11.87-33.33-16.89-3.78-2.19-15.85-11.24-19.62-10.72-1.49.2-6.04,2.55-3.13,4l37.48,25.29c5.14.48,8.1,4.97,12.99,5.52l12.85-5.43c-2.41.46-3.91-.68-4.97-2.4Z"/>
      <path class="cls-11" d="M168.22,453.02c1.58-.33.99.78,1.25,1.73.67,2.53,1.25,5.15,2.3,7.55.98-2.07,1.65-4.83,2.2-7.08,3.24-13.2,1.31-24.88-4.39-37.12-3.11-6.69-7.04-9.64-11.17-15.03-8.08-10.56-15.43-21.68-23.49-32.19-1.11-1.44-4.53-7.38-5.74-7.91-2.54-1.11,2.23,4.75,2.51,5.15.45.65,1.45,1.06.5,1.94.35-.31.77-.46.98-.16,4.33,5.82,8.68,11.68,12.74,17.69l-.63,1.03h.55c.06-.17.18-.47.28-.45.95.2,10.16,13.66,11.19,15.73.7,1.05,2.6,3.95,3,4.91.92,2.2.39,4.54,1.36,6.55.02-.73-.02-1.46,0-2.18h.53c-.23,1.68.63,4.09-.54,5.46-.03,2.97.48,6.64-.55,9.28,1.69,4.16,7.52,13.01,7.61,16.71.02.91-.94,3.36-1.59,3.79-2.11,1.37-3.13-4.04-5.47,1.33,2.4-2.15,10.3-.23,6.55,3.27Z"/>
      <path class="cls-11" d="M458.32,385.9l2.46.53c-14.99-8.34-29.94-16.73-44.73-25.41-3.13-.99-6.17,2.3-9.3,2.5l47.49,28.38-.8-1.02c-10.24-5.51-3-10.59,4.9-4.97Z"/>
      <path class="cls-11" d="M161.67,418.63c.01-1.09-.03-2.19,0-3.27l-1.27-.23c-.2-3.79-1.4-7.13-3.61-10.04l.51-1.2c-.14-.2-.92-.53-1.32-1.11-3.31-4.78-6.86-9.38-10.14-14.17-.15.48-.34.47-.55,0,.82,2.01,1.61,8.05-1.09,8.73,2.94,3.66,5.93,7.37,9,10.92.84.97,3.25,2.62,3.54,3.15.85,1.54-.22,8.19.56,10.48.77.29.48-2.2,1.62-1.09.31.3,1.73,5.97,2.19,7.09l-.54-8.47,1.09-.8Z"/>
      <path class="cls-11" d="M403.98,326.1c.22,6.76,1.85,13.5,2.21,20.22.06,1.19.26,3.87.03,4.82-.07.3-2.25,1.19-3.05,1.98-3.82,3.77-6.84,9.49-11.17,13.11,1.02.24,1.3-.57,1.91-1.08,2.52-2.11,15.25-12.75,15.85-14.71.42-1.34.28-2.75.24-4.12-.21-6.43-1.59-13.7-2.17-20.2-.14-1.53.08-3.1,0-4.63-.74-.85-4.17,3.48-3.85,4.62Z"/>
      <path class="cls-11" d="M154.58,332.4c4.76-4.4,9.17-8.69,13.63-13.38,2.37-2.5,5.22-2.68,2.47-6.26-5.48,3.85-10.73,8.03-16.1,12,3.05.53,1.09,5.53,0,7.64Z"/>
      <path class="cls-11" d="M283.39,559.45c-.61,4.52-1.33,9.21-1.4,13.68.64.89,12.72,2.35,14.84,2.63,19.98,2.62,40.21,5.13,60.24,7.16.16-1.54,2.62-1.52,2.73-1.64.58-.61-1.46-1.82-1.09-2.72,1.51.29,3.33-.47,3.01-2.23-.65-3.61-2.94-2.16-4.84-2.77-.9-.29-1.18-1.97-1.74-2.1-.67-.15-1.73,1.52-2.39,1.05-.11-.08-1.67-1.86-1.7-1.99-.31-1.22.19-2.94,1.49-3.32,1.06-.31,3.16.44,3.43-.65-1.92-.61-3.91.88-4.91-1.64-22.35-2.5-44.74-4.89-67.13-7.1.34.77-.52,1.46-.55,1.64Z"/>
      <path class="cls-5" d="M394.41,535.55c3.16-11.85,5.99-23.93,8.49-36.23,2.7-11.18,6.66-22.14,13.18-31.71l.48-2.58c-14.48,19.98-15.78,41.97-21.56,64.95-.44,1.76-1.02,6.3-3,6.55,1.06,1.28,1.97.41,2.41-.98Z"/>
      <path class="cls-11" d="M352.8,568.25c-1.3.99-.75,2.12.34,3.07,2.05-1.76,3.05-.61,4.19,1.26,4.84-.82,8.02,4.78,3.05,7,1.1,1.69,0,2.8-3.31,3.34,2.32.24,14.81,1.73,15.59.58,1.17-1.73,1.25-12.27,2.3-14.98-.7-1.89-2.35-1.21-3.69-1.43-1-.16-2.4-.44-3.27-.55-5.6-.65-11.31-1.01-16.92-1.64l1.57.81c5.26-.37,5.59,2.86.16,2.53Z"/>
      <path class="cls-5" d="M399.36,465.56c-.86.66-2.74,2.45-3.54,3.28-2.23,2.32-5.34,8.22-8.45,8.24-14.41-1.83-28.76-4.33-43.2-5.99-9.48-1.09-19.03-2.29-28.56-2.23-2.45,9.07-5.86,18.07-7.84,27.37-.87,4.1-1.34,8.28-1.97,12.41l76.02,10.46c1.2-.27,4.82-20.92,5.63-23.96,2.34-8.76,7.25-22.24,13.28-29.02.17-1.55-.33-1.34-1.37-.55ZM375.27,510.91c-19.63-3.22-39.23-6.98-59.13-8.23-1.58-1.52,5.38-23.75,7.45-24.47l58.59,7.01-6.91,25.69Z"/>
      <path class="cls-11" d="M316.14,502.68c19.9,1.25,39.5,5.02,59.13,8.23l6.91-25.69-58.59-7.01c-2.06.72-9.03,22.95-7.45,24.47Z"/>
      <g>
        <path class="cls-11" d="M46.51,543.62c.48-1.71,1.29-3.14,1.64-4.37-1.68-.18-3.05,3.38-1.64,4.37Z"/>
        <path class="cls-11" d="M41.6,557.27c-5.95,10.89-10.82,22.85-13.64,34.93,4.5-11.65,9.27-23.23,13.64-34.93Z"/>
        <path class="cls-11" d="M54.78,513.41l.46,2.38c2.7-9.49,4.82-17.09,8.73-26.2l-1.85,1.59c-2.99,7.23-5.23,14.72-7.34,22.24Z"/>
        <path class="cls-11" d="M79.76,551.84l1.14-.58c-.08-4.59.31-9.08.55-13.65-.52-1.16-.81-2.37-.87-3.64l2.15-25.1c.76-8.91.33-17.71-1.27-26.39-5.68,39.29-7.69,80.09-9.28,119.8-.54,13.46-.91,25.21-.52,38.74.4,13.79.91,27.48,1.61,41.23l.05-27.66c4.3-68.5,6.45-102.75,6.45-102.75Z"/>
        <path class="cls-11" d="M80.89,551.26l-1.14.58s-2.15,34.25-6.45,102.75l-.05,27.66c.37-31.16,4.66-62.79,4.92-94.15l2.72-36.85Z"/>
        <path class="cls-11" d="M142.02,557.81c.23-1.12.27-2.48.55-3.82-1.38-1.19-.67-3.97,1.09-4.37,1.63-7.83,3.27-15.65,4.91-23.47-1.39-.79-1.03-1.63.55-1.64.24-1.11.27-2.48.55-3.82,1.21-10.83,3.01-21.48,5.41-31.93-1.27-.93-2.16-1.93-2.68-3-9.43,38.7-17.64,78.11-24.56,117.35l1.09,2.18c.5-5.52,1.51-11.04,3-16.37,4.39,4.19-1.01,10,.82,14.73,2.63-14.79,5.71-29.51,8.73-44.21-1.39-.79-1.03-1.64.55-1.64Z"/>
        <path class="cls-11" d="M131.41,599.57c1.49-5.03,1.7-13.42-.4-1.71-.05,4.12-2.3,11.47-3.18,5.25-4.85,27.5-8.92,55.22-12.55,82.96l1.09,1.63c.38-2.21,1.52-16.27,2.2-16.92.55-.52,1.14-.12,1.09.81-.17,2.78-1.53,6.12-1.65,8.77-.07,1.48.57,2.31.55,2.43l14.19-79.14c-1.48-.2-1.93-1.57-1.33-4.09Z"/>
        <path class="cls-11" d="M131.92,588.93c-1.49,5.33-2.5,10.85-3,16.37l-1.09-2.18c.88,6.22,3.12-1.14,3.18-5.25,2.1-11.71,1.9-3.33.4,1.71-.6,2.53-.15,3.89,1.33,4.09-1.83-4.73,3.57-10.54-.82-14.73Z"/>
        <path class="cls-11" d="M22.77,599.09c.43.41,1.04.6,1.62.43.47-1.17.96-2.33,1.53-3.49.6-1.32,1.27-2.6,2.03-3.83-2.09,1.32-3,4.31-3.83,6.55-1,.11-.5-1.22-.47-1.84.66-11.3,8.3-32.91,11.93-44.55-3.63,9.89-7.23,19.9-10.07,30.09-.7,2.5-4.24,15.21-2.75,16.65Z"/>
        <path class="cls-11" d="M115.28,686.08c-1.04,7.93-1.84,15.9-3.32,23.77.02,1.01,1.39,1.27,2.22,1.88.82-9.7,3.27-19.29,4.37-28.93l-.84.24c.04,2.62-1.28,8.07-2.43,3.03Z"/>
        <path class="cls-11" d="M63.97,489.59c1.73-1.01,2.41,1.01.55,1.64.72.5,1.67.09,1.62,1.3-.12,2.62-1.03,6.14-1.1,8.77-.05,1.79.59,4.38.57,5.21.66-11.13,2.78-22.11,6-32.75l-5.57,13.8c-.54.83-1.23,1.51-2.07,2.03Z"/>
      </g>
    </g>
    <g>
      <path class="cls-1" d="M539.02,497.26l-73.89,10.33c.8,11.14,3.75,22.04,5.39,33.09.43,2.87,1.04,5.58,1.16,8.39l1.09,6c.4,1.08.83,2.15,1.09,3.27,1.61,6.86,1.98,14.32,3.27,21.29,1.3,4.94,1.81,9.72,2.73,14.74.19,1.07.35,2.37.55,3.27.24,1.08,1.08,2.54,1.1,3.82,2.16-.85,4.6-.48,6.71-.76,2.96-.39,6.15-1.48,9.11-1.97,19.26-3.19,38.57-6.23,57.86-9.28v-17.47l-13.91-67.68c-.66-1.39-1.03-6.65-2.26-7.05ZM550.29,582.37c-18.24,2.41-36.35,5.71-54.58,8.19-2.85.39-5.73,1.63-8.73,1.08-.62-5.67-1.72-11.3-2.74-16.91-2.26-12.54-4.35-25.11-6.55-37.66-1.27-7.26-3.23-14.44-3.82-21.83,3.14.2,6.21-.83,9.28-1.09l50.97-7.68c.88.14,2.18,8.92,2.52,10.41,3.93,17.2,7.34,34.57,10.92,51.85.94,4.54,2.2,9.03,2.73,13.65Z"/>
      <g>
        <polygon class="cls-1" points="542.64 569.82 530.79 572.39 484.35 524.6 495.55 523.5 542.64 569.82"/>
        <polygon class="cls-1" points="496.59 583.12 491.85 571.97 530.06 517.37 533.25 528.17 496.59 583.12"/>
      </g>
    </g>
    <g>
      <path class="cls-12" d="M307.03,262.49c-8.84,11.84-14.19,30.63-5.67,44.4,1.97,3.18,4.5,5.87,8.59,5.72,16.38-.61,27.37-23.07,28.91-37.31,2.92-26.86-15.75-34.34-31.83-12.81ZM331.66,289.15c-4.29,9.63-18.34,26.82-28.13,13.92l-1.47-.3c.4-.37.37-.55-.13-.53-.57-2.68-1.35-5.34-1.94-8.02l.99-1.58c-.42-9.73,2.18-19.62,7.87-27.59l.04-1.87,1.32.12c23.41-24.75,31.4,3.47,21.43,25.85Z"/>
      <path class="cls-2" d="M302.06,302.76c-.03-.18-.09-.36-.13-.53-1.08-2.54-1.82-5.25-1.94-8.02-.95-10.59,2.21-22.68,8.91-31.03,6.65-8.29,21.44-17.63,26.53-2.77,4.43,12.92-1.21,31.39-10.52,41.02-6.65,6.88-16.94,11.83-22.84,1.33Z"/>
      <ellipse class="cls-6" cx="318.97" cy="280.41" rx="25.4" ry="11.73" transform="translate(-56.37 479.14) rotate(-69.22)"/>
      <path class="cls-9" d="M305.76,239.56c-1.98.57-3.19,1.9-4.71,2.86-3.15,1.99-4.08,2.7-6.58,5.56-3.61,4.12-6.55,9.67-8.92,14.62-4.75,9.92-7.72,19.11-5.7,30.26.03.18.09.35.13.53-.28,3.02.85,7.13,2.33,9.63,1.1,1.86,1.64,1.99,2.78,2.62.27.27.54.46.81.48,1.78,1.16,8.46,5.16,10.11,5.47,1.66.32-.98-3.75-1.31-4.21-3.61-9.34-3.38-20.65-.62-30.24.8-2.8,2.51-7.71,3.86-10.18,2.06-3.78,7.22-10.34,10.38-13.27,1.78-1.65,5.58-4.63,7.65-5.82,3.4-1.95,7.13-3.04,10.97-3.79.8-.05,2.29.44,2.74-.38-5.74-2.57-17.89-5.86-23.9-4.14Z"/>
    </g>
    <g>
      <path class="cls-8" d="M256.63,185.26c.91,6.3,7.07,11.26,13.38,11.02,6.07-.23,10.6-6.44,11.47-13.57-9.6-.71-18.01.78-24.86,2.56Z"/>
      <path class="cls-8" d="M179.13,190.48c.76,6.63,5.9,9.3,11.02,9.68,6.3.46,12.22-5.82,10.82-10.77-7.78-4.52-16.21-.99-21.84,1.09Z"/>
      <ellipse class="cls-4" cx="189.89" cy="187.81" rx="3.01" ry="4.41"/>
      <ellipse class="cls-4" cx="269.57" cy="182.7" rx="3.01" ry="4.41" transform="translate(-21.16 36) rotate(-7.35)"/>
    </g>
    <path class="cls-5" d="M180.13,190.11l-1.86-1.2-6.58,1.37v3.07l2.23-.33c1.13-.85,3.06-1.8,6.21-2.91Z"/>
    <path class="cls-5" d="M256.63,182.7l.17,6.93c5.99-6.32,16.82-6.18,28.68-4.65l-2.81-4.86-26.04,2.59Z"/>
  </g>
</svg>