<?xml version="1.0" encoding="UTF-8"?>
<svg id="Calque_2" data-name="Calque 2" xmlns="http://www.w3.org/2000/svg" viewBox="0 0 1700.79 1049.68">
  <defs>
    <style>
      .cls-1 {
        fill: none;
      }

      .cls-1, .cls-2 {
        stroke: #343434;
        stroke-miterlimit: 10;
        stroke-width: 3px;
      }

      .cls-2 {
        fill: #343434;
      }

      .cls-3 {
        fill: #62c5e3;
      }
    </style>
  </defs>
  <g id="moodboard">
    <polygon class="cls-3" points="519.64 .86 613.82 137.7 1125.22 137.7 1208.62 86.99 1522.15 86.99 1630.76 180.59 1630.76 321.53 1523.52 404.25 1523.52 839.31 1385.65 947.59 1177.31 947.59 717.38 947.59 650.2 870.09 229.46 870.03 164.56 947.59 .39 947.59 0 1049.68 1700.79 1049.68 1700.79 .86 519.64 .86"/>
    <polygon class="cls-3" points="330.32 .86 247.6 131.93 82.48 131.93 82.48 373.21 132.19 428.36 132.19 609.89 82.48 661.97 82.48 947.59 .39 947.59 0 .86 330.32 .86"/>
    <polyline class="cls-1" points="33.13 984.7 256.79 984.7 348.41 899.49 613.82 899.49 694.92 984.7 1470.06 984.7 1609.63 857.48 1609.63 404.61 1675.34 343.33 1675.34 119.68 1558.92 30.82 1151.43 30.82 1028.87 101.29 655.09 101.29 584.62 .86"/>
    <polyline class="cls-1" points="330.32 984.7 613.82 984.7 670.66 1035.76 1433.3 1035.76"/>
    <polyline class="cls-1" points="249.64 25.72 210.83 92.1 53.55 92.1 53.55 429.12 82.48 458.74 82.48 569.04 53.55 606.82 53.55 883.59"/>
    <polyline class="cls-1" points="1660.18 667.08 1660.18 890.74 1559.07 984.7"/>
    <line class="cls-1" x1="702.24" y1="49.21" x2="998.55" y2="49.21"/>
    <circle class="cls-2" cx="247.51" cy="27.85" r="10.3"/>
    <circle class="cls-2" cx="53.55" cy="883.59" r="10.3"/>
    <circle class="cls-2" cx="33.13" cy="984.7" r="10.3"/>
    <circle class="cls-2" cx="330.32" cy="984.7" r="10.3"/>
    <circle class="cls-2" cx="1559.07" cy="984.7" r="10.3"/>
    <circle class="cls-2" cx="702.24" cy="49.21" r="10.3"/>
    <circle class="cls-2" cx="1002.08" cy="49.21" r="10.3"/>
    <circle class="cls-2" cx="1442.58" cy="1034.38" r="10.3"/>
    <circle class="cls-2" cx="1660.18" cy="667.08" r="10.3"/>
  </g>
</svg>